<?xml version="1.0" standalone="no"?>
<!DOCTYPE svg PUBLIC "-//W3C//DTD SVG 1.1//EN" "http://www.w3.org/Graphics/SVG/1.1/DTD/svg11.dtd" >
<svg>
<metadata>
Created by FontForge 20090914 at Tue Jul 13 18:20:22 2021
 By www-data
Generated in 2009 by FontLab Studio. Copyright info pending.
</metadata>
<defs>
<font id="ChunkFiveEx" horiz-adv-x="1306" >
  <font-face 
    font-family="ChunkFive Ex"
    font-weight="400"
    font-stretch="normal"
    units-per-em="2048"
    panose-1="0 0 0 0 0 0 0 0 0 0"
    ascent="1536"
    descent="-512"
    x-height="1024"
    cap-height="1432"
    bbox="-393 -578 2421 1939"
    underline-thickness="102"
    underline-position="-102"
    unicode-range="U+000D-U+25FC"
  />
<missing-glyph horiz-adv-x="748" 
d="M68 0v1365h544v-1365h-544zM136 68h408v1229h-408v-1229z" />
    <glyph glyph-name=".notdef" horiz-adv-x="748" 
d="M68 0v1365h544v-1365h-544zM136 68h408v1229h-408v-1229z" />
    <glyph glyph-name="glyph1" horiz-adv-x="2048" 
 />
    <glyph glyph-name="glyph1" horiz-adv-x="2048" 
 />
    <glyph glyph-name="uni000D" unicode="&#xd;" horiz-adv-x="573" 
 />
    <glyph glyph-name="space" unicode=" " horiz-adv-x="512" 
 />
    <glyph glyph-name="exclam" unicode="!" horiz-adv-x="630" 
d="M57 209c0 26 5.16602 52.0039 15.499 78.0039s25.833 49.167 46.5 69.5s45.334 37 74.001 50s61.334 19.5 98.001 19.5s69.667 -5.83301 99 -17.5s55 -27.334 77 -47.001s38.833 -42.834 50.5 -69.501s17.5 -54.334 17.5 -83.001c0 -57.333 -22 -106.833 -66 -148.5
s-103.333 -62.5 -178 -62.5c-32.667 0 -63.334 6.16699 -92.001 18.5s-53.667 28 -75 47s-37.833 41.167 -49.5 66.5s-17.5 51.666 -17.5 78.999zM65.999 1042v390h489v-390l-109 -516h-270z" />
    <glyph glyph-name="quotedbl" unicode="&#x22;" horiz-adv-x="1056" 
d="M74 1436h405l-73 -613h-256zM588 1436h405l-73 -613h-256z" />
    <glyph glyph-name="numbersign" unicode="#" horiz-adv-x="1165" 
d="M61 395v217h181l30 228h-153v217h180l51 370h240l-49 -370h164l51 370h239l-49 -370h152v-217h-180l-31 -228h153v-217h-180l-55 -395h-240l56 395h-166l-56 -395h-239l55 395h-154zM481 612h166l29 228h-166z" />
    <glyph glyph-name="dollar" unicode="$" horiz-adv-x="1454" 
d="M51 0v516.002h381c0 -42 9.5 -76.333 28.5 -103s41.833 -47.5 68.5 -62.5s54.667 -25.333 84 -31s55 -8.5 77 -8.5c18 0 37.167 1.33301 57.5 4s39 7.83398 56 15.501s31.333 18 43 31s17.5 30.5 17.5 52.5c0 26 -19.333 47.5 -58 64.5s-87.167 33.667 -145.5 50
s-121.5 35 -189.5 56s-131 50 -189 87s-106.5 83.833 -145.5 140.5s-58.5 128.667 -58.5 216c0 75.333 16 141 48 197s72.167 101.667 120.5 137s100.833 61.833 157.5 79.5s110.334 26.5 161.001 26.5h19v97h315v-195c19.333 -15.333 36.833 -31.833 52.5 -49.5
s29.5 -37.834 41.5 -60.501l21 172h352v-514h-371c0 38 -6.83301 71.667 -20.5 101s-32.334 54.166 -56.001 74.499s-51.667 35.666 -84 45.999s-66.166 15.5 -101.499 15.5c-15.333 0 -31 -2.33301 -47 -7s-31.333 -11.5 -46 -20.5s-26.334 -20.333 -35.001 -34
s-13 -29.167 -13 -46.5c0 -35.333 20.167 -64.666 60.5 -87.999s90.5 -45.333 150.5 -66l194.5 -66.5c69.667 -23.667 134.5 -53.334 194.5 -89.001s110.167 -80.167 150.5 -133.5s60.5 -120.333 60.5 -201c0 -76.667 -15.333 -141.5 -46 -194.5s-70 -96.5 -118 -130.5
s-102 -59.667 -162 -77s-119.333 -27.333 -178 -30v-104h-315v168c-32.667 18 -61.667 37.5 -87 58.5s-47 42.5 -65 64.5l-22 -158h-359z" />
    <glyph glyph-name="percent" unicode="%" horiz-adv-x="2410" 
d="M96 1075c0 60 14.3301 113.667 42.9971 161s66.334 87.333 113.001 120s99.334 57.5 158.001 74.5s117.334 25.5 176.001 25.5c78 0 147.333 -10.167 208 -30.5s111.834 -48.666 153.501 -84.999s73.334 -79 95.001 -128s32.5 -102.167 32.5 -159.5
c0 -60 -14.333 -113.667 -43 -161s-66.167 -87.333 -112.5 -120s-98.833 -57.5 -157.5 -74.5s-117.334 -25.5 -176.001 -25.5c-80.667 0 -151.334 10.167 -212.001 30.5s-111.5 48.666 -152.5 84.999s-72.167 79 -93.5 128s-32 102.167 -32 159.5zM435.997 1059
c0 -38 16 -69 48 -93s67.333 -36 106 -36c36.667 0 70 13 100 39s45 59.333 45 100c0 10 -2 20.333 -6 31c0 15.333 -5.16699 29 -15.5 41s-23 22.167 -38 30.5s-31 14.833 -48 19.5s-32.167 7 -45.5 7c-36.667 0 -70.167 -13 -100.5 -39s-45.5 -59.333 -45.5 -100z
M661.997 6l763 1442h349l-764 -1442h-348zM1368 352c0 60 14.334 113.667 43.001 161s66.167 87.333 112.5 120s98.833 57.5 157.5 74.5s117.667 25.5 177 25.5c78 0 147.333 -10.167 208 -30.5s111.667 -48.666 153 -84.999s73 -79 95 -128s33 -102.167 33 -159.5
c0 -60 -14.333 -113.667 -43 -161s-66.167 -87.333 -112.5 -120s-98.833 -57.5 -157.5 -74.5s-117.334 -25.5 -176.001 -25.5c-80.667 0 -151.5 10.167 -212.5 30.5s-111.833 48.666 -152.5 84.999s-71.667 79 -93 128s-32 102.167 -32 159.5zM1708 336c0 -38 16 -69 48 -93
s67.333 -36 106 -36c36.667 0 70 13 100 39s45 59.333 45 100c0 10 -2 20.333 -6 31c0 15.333 -5.16699 29 -15.5 41s-23 22.167 -38 30.5s-31 14.833 -48 19.5s-32.5 7 -46.5 7c-36.667 0 -70 -13 -100 -39s-45 -59.333 -45 -100z" />
    <glyph glyph-name="ampersand" unicode="&#x26;" horiz-adv-x="1503" 
d="M70 365c0 74 19.335 142 58.002 204s101 112 187 150c-52 32.667 -91.167 74.667 -117.5 126s-39.5 109.666 -39.5 174.999c0 53.333 10.833 101.833 32.5 145.5s52.334 81.5 92.001 113.5s87.5 56.5 143.5 73.5s118 25.5 186 25.5s129.5 -8.5 184.5 -25.5
s101.5 -40.5 139.5 -70.5s67.333 -65.167 88 -105.5s31 -82.833 31 -127.5c0 -36.667 -4.5 -70.5 -13.5 -101.5s-23.667 -60.167 -44 -87.5s-48 -53.666 -83 -78.999s-77.833 -50.666 -128.5 -75.999l205 -205c15.333 23.333 31.166 53.666 47.499 90.999
s29.833 72.333 40.5 105l283 -82c-16.667 -57.333 -40.334 -115.333 -71.001 -174s-61.667 -108.334 -93 -149.001l289 -291h-471l-72 74c-52 -32.667 -114.5 -57.667 -187.5 -75s-144.167 -26 -213.5 -26c-68 0 -131.167 8.33301 -189.5 25s-108.333 41.334 -150 74.001
s-74.334 73.5 -98.001 122.5s-35.5 105.833 -35.5 170.5zM449.002 401c0 -45.333 14.333 -85 43 -119s71.667 -51 129 -51c50.667 0 95 11 133 33l-256 260c-32.667 -32.667 -49 -73.667 -49 -123zM526.002 1040c0 -23.333 3.5 -42 10.5 -56s16.5 -28.667 28.5 -44l43 -51
c19.333 12 38.166 31.667 56.499 59s27.5 58 27.5 92c0 28.667 -7.16699 52 -21.5 70s-33.166 27 -56.499 27c-32.667 0 -55.5 -10.333 -68.5 -31s-19.5 -42.667 -19.5 -66z" />
    <glyph glyph-name="quotesingle" unicode="'" horiz-adv-x="559" 
d="M74 1436h405l-73 -613h-256z" />
    <glyph glyph-name="parenleft" unicode="(" horiz-adv-x="794" 
d="M51 639c0 120 17.167 234.666 51.5 343.999s76.333 208.333 126 297s102.167 166.5 157.5 233.5s104 118.833 146 155.5l211 -217l-91 -115.5c-36 -47 -70.333 -103.667 -103 -170s-61 -143.166 -85 -230.499s-36 -186.333 -36 -297c0 -114.667 11 -216.334 33 -305.001
s48.667 -167.5 80 -236.5s65.333 -128.5 102 -178.5s70 -92.667 100 -128l-211 -219c-56 50.667 -112.167 112.834 -168.5 186.501s-107.833 156.167 -154.5 247.5s-84.667 190.333 -114 297s-44 218.667 -44 336z" />
    <glyph glyph-name="parenright" unicode=")" horiz-adv-x="794" 
d="M51 -211c30 35.333 63.4971 78.001 100.497 128.001s71.167 109.5 102.5 178.5s58 147.833 80 236.5s33 190.334 33 305.001c0 110.667 -12 209.667 -36 297s-52.333 164.166 -85 230.499s-67.167 123 -103.5 170l-91.5 115.5l211 217
c42 -36.667 90.833 -88.5 146.5 -155.5s108.334 -144.833 158.001 -233.5s91.5 -187.667 125.5 -297s51 -224 51 -344c0 -117.333 -14.667 -229.333 -44 -336s-67.166 -205.667 -113.499 -297s-98.166 -173.833 -155.499 -247.5s-113.333 -135.834 -168 -186.501z" />
    <glyph glyph-name="asterisk" unicode="*" horiz-adv-x="1040" 
d="M47 1036l82 246l254 -96v268h266v-268l254 82l76 -246l-254 -78l162 -227l-217 -156l-164 223l-160 -209l-209 158l170 211z" />
    <glyph glyph-name="plus" unicode="+" horiz-adv-x="1478" 
d="M74 537v323h477v479h334v-479h477v-323h-477v-488h-334v488h-477z" />
    <glyph glyph-name="comma" unicode="," horiz-adv-x="557" 
d="M-12 -264c32.667 40.667 61.333 81.168 86 121.501s45.167 83 61.5 128s28.833 93.167 37.5 144.5s13 107.666 13 168.999c0 16.667 -0.333008 33.5 -1 50.5s-1.66699 34.167 -3 51.5l373 -98v-24c0 -128.667 -29.667 -251 -89 -367s-140.333 -219 -243 -309z" />
    <glyph glyph-name="hyphen" unicode="-" horiz-adv-x="790" 
d="M96 352v273h594v-273h-594z" />
    <glyph glyph-name="period" unicode="." horiz-adv-x="528" 
d="M31 213c0 26 5.00098 53 15.001 81s24.667 53.167 44 75.5s43.666 40.666 72.999 54.999s62.333 21.5 99 21.5s69.834 -7.16699 99.501 -21.5s54.667 -32.666 75 -54.999s35.666 -47.5 45.999 -75.5s15.5 -55 15.5 -81c0 -61.333 -19.833 -113.5 -59.5 -156.5
s-98.5 -64.5 -176.5 -64.5c-34 0 -65 6.5 -93 19.5s-52.167 29.667 -72.5 50s-36.333 43.833 -48 70.5s-17.5 53.667 -17.5 81z" />
    <glyph glyph-name="slash" unicode="/" horiz-adv-x="1161" 
d="M4 -113l850 1649h240l-850 -1649h-240z" />
    <glyph glyph-name="zero" unicode="0" horiz-adv-x="1226" 
d="M31 723c0 108 14.001 207.333 42.001 298s67.5 168.167 118.5 232.5s112 114.5 183 150.5s148.833 54 233.5 54c100 0 187.167 -17.667 261.5 -53s135.333 -85.833 183 -151.5s83.5 -144.5 107.5 -236.5s36 -194.667 36 -308s-12.667 -215.5 -38 -306.5
s-62.5 -168.167 -111.5 -231.5s-109.5 -111.833 -181.5 -145.5s-154.333 -50.5 -247 -50.5c-86 0 -164.833 15.5 -236.5 46.5s-133.334 77.5 -185.001 139.5s-92.167 139.833 -121.5 233.5s-44 203.167 -44 328.5zM436.001 723c0 -65.333 5.83008 -124.665 17.4971 -177.998
s26 -98.833 43 -136.5s36.333 -66.334 58 -86.001s42.834 -29.5 63.501 -29.5c23.333 0 45.333 9.83301 66 29.5s38.5 47.667 53.5 84s26.5 80 34.5 131s12 108.167 12 171.5c0 61.333 -4.66699 117.5 -14 168.5s-22.166 95.333 -38.499 133s-35.5 66.667 -57.5 87
s-45.333 30.5 -70 30.5c-19.333 0 -38.833 -9.5 -58.5 -28.5s-37.667 -45.833 -54 -80.5s-29.666 -77.334 -39.999 -128.001s-15.5 -106.667 -15.5 -168z" />
    <glyph glyph-name="one" unicode="1" horiz-adv-x="1015" 
d="M51 1163l84.001 41c27.333 14 55 30.167 83 48.5s57.667 41.5 89 69.5s65.666 64.667 102.999 110h364v-1160h191v-272h-820v272h205v760l-205 -96z" />
    <glyph glyph-name="two" unicode="2" horiz-adv-x="1208" 
d="M51 0l-0.00390625 296.998c28.667 46.667 54 86 76 118s44.167 60.667 66.5 86s45.833 49.166 70.5 71.499s53.334 46.5 86.001 72.5c36.667 32.667 76.167 62.667 118.5 90s81.666 54.333 117.999 81s66.5 54 90.5 82s36 57.667 36 89c0 52 -16.833 87.5 -50.5 106.5
s-74.167 28.5 -121.5 28.5c-27.333 0 -53 -5 -77 -15s-46.5 -22.5 -67.5 -37.5s-40.5 -31.833 -58.5 -50.5l-49 -52l-221 233c72.667 83.333 153.834 146.5 243.501 189.5s185.834 64.5 288.501 64.5c68 0 131.833 -10.167 191.5 -30.5s111.334 -50 155.001 -89
s78 -86.167 103 -141.5s37.5 -117.666 37.5 -186.999c0 -58.667 -6.66699 -109.167 -20 -151.5s-33.666 -80.333 -60.999 -114s-61.5 -65.5 -102.5 -95.5s-88.833 -62.667 -143.5 -98l-83 -58.5c-30.667 -22.333 -60.667 -46.166 -90 -71.499s-56 -50.666 -80 -75.999
s-42 -48.333 -54 -69h360v164h344v-436h-1106z" />
    <glyph glyph-name="three" unicode="3" horiz-adv-x="1105" 
d="M31 205l208.994 216.994c38 -38 77.833 -69.667 119.5 -95s91.834 -38 150.501 -38c57.333 0 102.333 13.333 135 40s49 65.667 49 117c0 56 -15.333 95 -46 117s-72 33 -124 33h-153v244h149c49.333 0 90.666 11.833 123.999 35.5s50 58.834 50 105.501
c0 27.333 -5.33301 51.166 -16 71.499s-24.667 37 -42 50s-36.5 23 -57.5 30s-42.5 10.5 -64.5 10.5c-39.333 0 -80.166 -11 -122.499 -33s-81.5 -52 -117.5 -90l-198 240c18 20.667 42.333 42.167 73 64.5s65.334 43 104.001 62s80.167 35 124.5 48s89.833 19.5 136.5 19.5
c83.333 0 157.5 -10.167 222.5 -30.5s119.667 -49.666 164 -87.999s78 -84.166 101 -137.499s34.5 -112.666 34.5 -177.999c0 -35.333 -5.33301 -66.666 -16 -93.999s-24 -51.666 -40 -72.999s-32.5 -39.833 -49.5 -55.5s-32.167 -28.167 -45.5 -37.5
c16.667 -12 35.834 -27.667 57.501 -47s42.334 -42.666 62.001 -69.999s36.334 -59 50.001 -95s20.5 -77.333 20.5 -124c0 -76.667 -16.667 -143 -50 -199s-76.666 -102.667 -129.999 -140s-113.833 -65.333 -181.5 -84s-136.167 -28 -205.5 -28
c-49.333 0 -97.833 6.5 -145.5 19.5s-93 30.167 -136 51.5s-81.333 46 -115 74s-60.5 57 -80.5 87z" />
    <glyph glyph-name="four" unicode="4" horiz-adv-x="1196" 
d="M20 403v293l590 736h424v-807h109v-222h-109v-133h111v-270h-664v270h129v133h-590zM307 625h303v379z" />
    <glyph glyph-name="five" unicode="5" horiz-adv-x="1181" 
d="M31 221l223.002 232c39.333 -40.667 82 -76.167 128 -106.5s99 -45.5 159 -45.5c69.333 0 124.166 19.167 164.499 57.5s60.5 87.5 60.5 147.5c0 27.333 -5.5 52.833 -16.5 76.5s-25.667 44.834 -44 63.501s-40.5 33.167 -66.5 43.5s-53.333 15.5 -82 15.5
c-48 0 -86.667 -10 -116 -30s-54.666 -41.667 -75.999 -65l-263 117l125 705h811v-306h-551l-34 -198c20.667 13.333 50 24.833 88 34.5s82.333 14.5 133 14.5c60 0 118.667 -10.333 176 -31s108.166 -51.334 152.499 -92.001s80.166 -91.5 107.499 -152.5
s41 -130.833 41 -209.5c0 -86 -18.167 -161.5 -54.5 -226.5s-83.5 -119 -141.5 -162s-123.333 -75.5 -196 -97.5s-146 -33 -220 -33c-52 0 -103.667 6.83301 -155 20.5s-99.833 32.167 -145.5 55.5s-86.667 50 -123 80s-64.5 60.667 -84.5 92z" />
    <glyph glyph-name="six" unicode="6" horiz-adv-x="1189" 
d="M33 653c0 46.667 2.66602 98.6719 7.99902 156.005s16.166 115.666 32.499 174.999s38.833 117 67.5 173s65.5 106.167 110.5 150.5s100 79.833 165 106.5s141.833 40 230.5 40c34 0 72.5 -3.66699 115.5 -11s86 -18.166 129 -32.499s84.333 -31.5 124 -51.5
s73.834 -42.333 102.501 -67l-139 -266c-35.333 20.667 -78.333 43.167 -129 67.5s-107.334 36.5 -170.001 36.5c-38 0 -72.5 -7.5 -103.5 -22.5s-57.667 -35.333 -80 -61s-40.666 -55.334 -54.999 -89.001s-24.166 -68.834 -29.499 -105.501
c28.667 28.667 69.167 53.167 121.5 73.5s107.833 30.5 166.5 30.5c62.667 0 122.167 -11.167 178.5 -33.5s105.166 -53.333 146.499 -93s74 -87.834 98 -144.501s36 -118.334 36 -185.001c0 -69.333 -12.667 -135.5 -38 -198.5s-61.5 -118 -108.5 -165
s-104.667 -84.5 -173 -112.5s-145.5 -42 -231.5 -42c-83.333 0 -160.166 15.333 -230.499 46s-131 74.667 -182 132s-90.833 127.666 -119.5 210.999s-43 177.333 -43 282zM415.999 545.005c0 -26 3.66699 -53.001 11 -81.001s18.833 -54 34.5 -78s35.5 -43.833 59.5 -59.5
s52.333 -23.5 85 -23.5c53.333 0 97.833 17.167 133.5 51.5s53.5 75.833 53.5 124.5c0 20.667 -3.16699 41.834 -9.5 63.501s-16 41.167 -29 58.5s-30 31.833 -51 43.5s-46.5 17.5 -76.5 17.5c-24.667 -1.33301 -48 -6.16602 -70 -14.499s-42.167 -18.333 -60.5 -30
s-34.333 -24.334 -48 -38.001s-24.5 -25.167 -32.5 -34.5z" />
    <glyph glyph-name="seven" unicode="7" horiz-adv-x="1159" 
d="M31 1026v406h1108v-273l-551 -1159h-443l549 1159h-336v-133h-327z" />
    <glyph glyph-name="eight" unicode="8" horiz-adv-x="1144" 
d="M31 420c0 32.667 4.99805 66.666 14.998 101.999s24.667 69.5 44 102.5s42.666 63.167 69.999 90.5s58 49 92 65c-52 31.333 -90.667 72.333 -116 123s-38 100.667 -38 150c0 57.333 11 110.5 33 159.5s53.833 91.667 95.5 128s92.834 64.666 153.501 84.999
s129.334 30.5 206.001 30.5c79.333 0 149.333 -10.167 210 -30.5s111.834 -48.666 153.501 -84.999s73 -79 94 -128s31.5 -102.167 31.5 -159.5c0 -68 -17.333 -126 -52 -174s-74.667 -83 -120 -105c69.333 -34 121.833 -84.167 157.5 -150.5s53.5 -134.166 53.5 -203.499
c0 -62.667 -12.667 -121.334 -38 -176.001s-61.5 -101.834 -108.5 -141.501s-104 -71.167 -171 -94.5s-141.5 -35 -223.5 -35c-84.667 0 -160.667 11.667 -228 35s-124.333 54.833 -171 94.5s-82.167 86.834 -106.5 141.501s-36.5 113.334 -36.5 176.001zM384.998 431.999
c0 -24.667 5.16895 -47.1641 15.502 -67.4971s24 -38 41 -53s37.167 -26.667 60.5 -35s47.666 -12.5 72.999 -12.5c49.333 0 93.166 13.667 131.499 41s57.5 69.666 57.5 126.999c0 35.333 -9.16699 64.666 -27.5 87.999s-40.833 41.833 -67.5 55.5s-55 23.167 -85 28.5
s-56.667 8.66602 -80 9.99902c-31.333 -18 -59 -43.333 -83 -76s-36 -68 -36 -106zM434 1069c0 -28.667 7.50098 -51.5 22.501 -68.5s33.167 -30.333 54.5 -40s43.5 -16.5 66.5 -20.5s42.833 -6 59.5 -6c26 12 48.833 29.667 68.5 53s29.5 50.666 29.5 81.999
c0 36.667 -15.333 67.334 -46 92.001s-66.334 37 -107.001 37c-39.333 0 -73.833 -13 -103.5 -39s-44.5 -56 -44.5 -90z" />
    <glyph glyph-name="nine" unicode="9" horiz-adv-x="1202" 
d="M31 936c0 69.333 12.502 135.505 37.502 198.505s61.167 118 108.5 165s105.166 84.5 173.499 112.5s145.5 42 231.5 42c84.667 0 162.834 -15.667 234.501 -47s133.667 -76 186 -134s93.166 -129 122.499 -213s44 -179.333 44 -286c0 -52 -3.33301 -107.333 -10 -166
s-18.5 -117.334 -35.5 -176.001s-40.167 -115.334 -69.5 -170.001s-67.333 -102.834 -114 -144.501s-102.667 -74.667 -168 -99s-141.666 -36.5 -228.999 -36.5c-35.333 0 -74.333 3.66699 -117 11s-85.5 17.833 -128.5 31.5s-84.167 30.667 -123.5 51
s-73.333 42.833 -102 67.5l139 267c35.333 -20.667 78.333 -43.334 129 -68.001s107.334 -37 170.001 -37c78 0 139.167 24 183.5 72s66.5 117 66.5 207c-28.667 -28.667 -65.834 -53.334 -111.501 -74.001s-98.834 -31 -159.501 -31c-64 0 -123.667 11 -179 33
s-103.833 53.167 -145.5 93.5s-74.334 88.5 -98.001 144.5s-35.5 118 -35.5 186zM397.002 956.005c0 -20.667 2.83496 -41.834 8.50195 -63.501s15.334 -41 29.001 -58s30.667 -31.333 51 -43s46.166 -17.5 77.499 -17.5c24.667 1.33301 46.834 6.16602 66.501 14.499
s37.5 18.333 53.5 30s30 23.834 42 36.501s22.333 24.667 31 36c0 26 -2.83301 53 -8.5 81s-15.334 53.833 -29.001 77.5s-31.334 43.5 -53.001 59.5s-48.834 24 -81.501 24c-53.333 0 -97.833 -17.167 -133.5 -51.5s-53.5 -76.166 -53.5 -125.499z" />
    <glyph glyph-name="colon" unicode=":" horiz-adv-x="520" 
d="M31 201c0 26 4.66895 52.166 14.002 78.499s24 50.833 44 73.5s44 41.167 72 55.5s60.333 21.5 97 21.5s69.334 -7.16699 98.001 -21.5s53 -32.833 73 -55.5s35 -47.167 45 -73.5s15 -52.5 15 -78.5c0 -30 -5.33301 -58.333 -16 -85s-26.334 -49.667 -47.001 -69
s-45.334 -34.666 -74.001 -45.999s-60 -17 -94 -17c-32.667 0 -63 6 -91 18s-52.333 28.333 -73 49s-36.334 44 -47.001 70s-16 52.667 -16 80zM31.002 822.999c0 26 4.66602 52.332 13.999 78.999s24 51.334 44 74.001s44 41.167 72 55.5s60.333 21.5 97 21.5
s69.334 -7.16699 98.001 -21.5s53 -32.833 73 -55.5s35 -47.334 45 -74.001s15 -53 15 -79c0 -61.333 -20 -112.833 -60 -154.5s-97 -62.5 -171 -62.5c-31.333 0 -61 6.16699 -89 18.5s-52.167 28.833 -72.5 49.5s-36.333 43.834 -48 69.501s-17.5 52.167 -17.5 79.5z" />
    <glyph glyph-name="semicolon" unicode=";" horiz-adv-x="618" 
d="M10 -264c32.667 40.667 61.333 81.168 86 121.501s45.167 83 61.5 128s29 93.167 38 144.5s13.5 107.666 13.5 168.999c0 16.667 -0.333008 33.5 -1 50.5s-1.66699 34.167 -3 51.5l373 -98v-24c0 -128.667 -29.833 -251 -89.5 -367s-140.5 -219 -242.5 -309z
M120.999 788.001c0 26 5.16602 53.001 15.499 81.001s25 53.333 44 76s43.167 41.167 72.5 55.5s62.333 21.5 99 21.5s69.834 -7.16699 99.501 -21.5s54.667 -32.833 75 -55.5s35.666 -48 45.999 -76s15.5 -55 15.5 -81c0 -61.333 -20.833 -113.5 -62.5 -156.5
s-99.5 -64.5 -173.5 -64.5c-32.667 0 -63 6.5 -91 19.5s-52.167 29.833 -72.5 50.5s-36.666 44.167 -48.999 70.5s-18.5 53.166 -18.5 80.499z" />
    <glyph glyph-name="less" unicode="&#x3c;" horiz-adv-x="698" 
d="M41 526l365 490l258 -162l-248 -328l248 -325l-258 -166z" />
    <glyph glyph-name="equal" unicode="=" horiz-adv-x="1028" 
d="M90 352v273h844v-273h-844zM90 805v272h844v-272h-844z" />
    <glyph glyph-name="greater" unicode="&#x3e;" horiz-adv-x="698" 
d="M41 201l248 325l-248 328l258 162l365 -490l-365 -491z" />
    <glyph glyph-name="question" unicode="?" horiz-adv-x="1064" 
d="M4 1200c72.667 83.333 153.999 148.165 243.999 194.498s186.333 69.5 289 69.5c68 0 131.667 -8.83301 191 -26.5s110.833 -44.167 154.5 -79.5s78.167 -79 103.5 -131s38 -113 38 -183c0 -45.333 -8.16699 -84.5 -24.5 -117.5s-36.5 -63.167 -60.5 -90.5
s-50 -51.666 -78 -72.999l-77.5 -59.5c-23.667 -18.333 -43.834 -36.666 -60.501 -54.999s-25 -37.833 -25 -58.5v-113h-379l-2 164c0 46.667 16.833 89 50.5 127s71 73.167 112 105.5l112.5 90.5c34 28 51 56.333 51 85c0 19.333 -4.5 35 -13.5 47s-20.667 21.833 -35 29.5
s-30.666 12.834 -48.999 15.501s-36.166 4 -53.499 4c-22 0 -45 -4.83301 -69 -14.5s-48 -22.667 -72 -39s-46.5 -34.333 -67.5 -54s-40.5 -39.834 -58.5 -60.501zM263.999 208.999c0 26 5.16895 52.0039 15.502 78.0039s25.666 49.167 45.999 69.5s44.833 37 73.5 50
s61.667 19.5 99 19.5c36.667 0 69.667 -5.83301 99 -17.5s55 -27.334 77 -47.001s38.667 -42.834 50 -69.501s17 -54.334 17 -83.001c0 -57.333 -21.833 -106.833 -65.5 -148.5s-102.834 -62.5 -177.501 -62.5c-32.667 0 -63.5 6.16699 -92.5 18.5s-54 28 -75 47
s-37.333 41.167 -49 66.5s-17.5 51.666 -17.5 78.999z" />
    <glyph glyph-name="at" unicode="@" horiz-adv-x="1902" 
d="M51 463c0 173.333 27.001 324.168 81.001 452.501s126 234.5 216 318.5s192.667 146.833 308 188.5s234.666 62.5 357.999 62.5c121.333 0 233.166 -16 335.499 -48s190.666 -80.833 264.999 -146.5s132.333 -148.334 174 -248.001s62.5 -217.834 62.5 -354.501
c0 -125.333 -12.5 -231 -37.5 -317s-58 -156.333 -99 -211s-88.5 -94 -142.5 -118s-109.667 -36 -167 -36c-54.667 0 -99 7.83301 -133 23.5s-60.667 35.167 -80 58.5s-32.666 49 -39.999 77s-11.666 53.667 -12.999 77c-10.667 -27.333 -24.667 -55 -42 -83
s-39 -54 -65 -78s-57 -43.5 -93 -58.5s-78.667 -22.5 -128 -22.5c-36.667 0 -74.167 5.83301 -112.5 17.5s-73.166 32.834 -104.499 63.501s-57 72.667 -77 126s-30 121.666 -30 204.999c0 102.667 12.667 191.834 38 267.501s58.833 138.667 100.5 189
s90.5 88.166 146.5 113.499s114.667 38 176 38c49.333 0 87.666 -8.16699 114.999 -24.5s48.333 -32.833 63 -49.5l50 58h243l-90 -551c-4 -24.667 -6 -48 -6 -70c0 -35.333 6.83301 -65 20.5 -89s38.167 -36 73.5 -36c36.667 0 65.334 30.333 86.001 91s31 167 31 319
c0 88.667 -9.16699 167.167 -27.5 235.5s-48 126 -89 173s-94.667 82.5 -161 106.5s-147.166 36 -242.499 36c-100 0 -189.5 -17.833 -268.5 -53.5s-146.5 -86.667 -202.5 -153s-99 -145.833 -129 -238.5s-45 -196.334 -45 -311.001c0 -121.333 14.667 -222.666 44 -303.999
s68.5 -146.666 117.5 -195.999s105 -84.5 168 -105.5s127.167 -31.5 192.5 -31.5c105.333 0 197.5 6.83301 276.5 20.5s146.5 28.5 202.5 44.5v-266c-52 -15.333 -117.167 -30 -195.5 -44s-172.833 -21 -283.5 -21c-98 0 -197.333 13.667 -298 41s-190.834 75 -270.501 143
s-144.834 160.167 -195.501 276.5s-76 263.833 -76 442.5zM813.001 416.002c0 -70.667 4.16797 -118.333 12.501 -143s25.5 -37 51.5 -37c16.667 0 32 6.66699 46 20s27.167 30.333 39.5 51s23.666 43.667 33.999 69s18.833 50.333 25.5 75l51 313l-37.5 16.5
c-15.667 7 -33.834 10.5 -54.501 10.5c-28.667 0 -53.667 -12.333 -75 -37s-38.666 -55.5 -51.999 -92.5s-23.5 -77.667 -30.5 -122s-10.5 -85.5 -10.5 -123.5z" />
    <glyph glyph-name="A" unicode="A" horiz-adv-x="1685" 
d="M31 0v268h139l276 899h-84v265h787l362 -1164h144v-268h-821v268h194l-43 140h-420l-43 -140h160v-268h-651zM641 653h268l-135 443z" />
    <glyph glyph-name="B" unicode="B" horiz-adv-x="1406" 
d="M51 0l0.00195312 266.001h119v901h-119v265h764c170.667 0 297 -30.5 379 -91.5s123 -147.5 123 -259.5c0 -44 -3.5 -81.833 -10.5 -113.5s-18 -60.167 -33 -85.5s-35.333 -47.666 -61 -66.999s-57.834 -36.333 -96.501 -51c36.667 -10.667 71.5 -25.334 104.5 -44.001
s61.667 -42.334 86 -71.001s43.666 -62.5 57.999 -101.5s21.5 -82.833 21.5 -131.5c0 -144.667 -43.333 -250.167 -130 -316.5s-229 -99.5 -427 -99.5h-778zM594.002 266.001h164c44 0 82.667 15.333 116 46s50 74 50 130c0 52 -14.333 95.167 -43 129.5
s-71.667 51.5 -129 51.5h-158v-357zM594.002 854.001h124.999c54.667 0 91.5 14 110.5 42s28.5 66.667 28.5 116c0 48 -12.667 84.833 -38 110.5s-57.666 38.5 -96.999 38.5h-129v-307z" />
    <glyph glyph-name="C" unicode="C" horiz-adv-x="1404" 
d="M31 702c0 117.333 19.833 222.832 59.5 316.499s90.167 173 151.5 238s128.5 114.5 201.5 148.5s142.833 51 209.5 51c50.667 0 94.834 -6.16699 132.501 -18.5s69.5 -26.333 95.5 -42s46.167 -31.334 60.5 -47.001s23.5 -26.167 27.5 -31.5l47 115h321v-582h-366
c-1.33301 32.667 -6.83301 64.667 -16.5 96s-23 59 -40 83s-38.833 43.167 -65.5 57.5s-58.334 21.5 -95.001 21.5s-70.167 -10.667 -100.5 -32s-56 -50.333 -77 -87s-37.333 -79.667 -49 -129s-17.5 -102 -17.5 -158c0 -50.667 6.5 -99.167 19.5 -145.5
s32.167 -87.166 57.5 -122.499s56.333 -63.666 93 -84.999s79.667 -32 129 -32c42 0 82.167 9.66699 120.5 29s71.833 40.833 100.5 64.5s52.167 46.167 70.5 67.5l34.5 40l239 -262c-35.333 -38 -74.833 -74.5 -118.5 -109.5s-91.5 -65.833 -143.5 -92.5
s-108 -47.834 -168 -63.501s-123.333 -23.5 -190 -23.5c-109.333 0 -208.333 16.833 -297 50.5s-164.5 82.167 -227.5 145.5s-111.833 140.333 -146.5 231s-52 193.334 -52 308.001z" />
    <glyph glyph-name="D" unicode="D" horiz-adv-x="1474" 
d="M51 0l0.000976562 272.002h127v889h-127v271h625c124 0 234.167 -18.167 330.5 -54.5s177.666 -85.5 243.999 -147.5s116.833 -135.333 151.5 -220s52 -176.334 52 -275.001c0 -234.667 -67.5 -415.834 -202.5 -543.501s-329.5 -191.5 -583.5 -191.5h-617z
M598.001 272.002l78 -0.00195312c54.667 0 101.334 12.333 140.001 37s70.334 57.834 95.001 99.501s42.834 90.5 54.501 146.5s17.5 116 17.5 180c0 54.667 -5.83301 107.667 -17.5 159s-29.834 96.833 -54.501 136.5s-56.334 71.334 -95.001 95.001
s-85.334 35.5 -140.001 35.5h-78v-889z" />
    <glyph glyph-name="E" unicode="E" horiz-adv-x="1337" 
d="M51 0v272h129v889h-129v271h1235v-453h-354v182h-328v-282h389v-273h-389v-334h328v191h354v-463h-1235z" />
    <glyph glyph-name="F" unicode="F" 
d="M51 0v272h127v889h-127v271h1225v-453h-363v182h-309v-356h389v-273h-389v-260h209v-272h-762z" />
    <glyph glyph-name="G" unicode="G" horiz-adv-x="1589" 
d="M31 702c0 112 17.668 214.168 53.001 306.501s82.333 171.666 141 237.999s125.667 117.833 201 154.5s153 55 233 55c74 0 134.833 -7.5 182.5 -22.5s86.167 -32 115.5 -51s51.666 -38.167 66.999 -57.5s27 -33 35 -41l43 148h305v-605h-367
c-1.33301 40.667 -8.5 77.5 -21.5 110.5s-30.333 60.5 -52 82.5s-46.167 38.667 -73.5 50s-56 17 -86 17c-40.667 0 -78.5 -10.5 -113.5 -31.5s-64.833 -48.833 -89.5 -83.5s-43.834 -75.667 -57.501 -123s-20.5 -96.333 -20.5 -147c0 -52 6.16699 -100.833 18.5 -146.5
s30.5 -85.5 54.5 -119.5s53.333 -60.833 88 -80.5s74.667 -29.5 120 -29.5c58.667 0 102.334 9.83301 131.001 29.5s50.667 43.167 66 70.5v86h-125v219h680v-219h-82v-512h-410l-63 129c-23.333 -38 -64.333 -72 -123 -102s-127.667 -45 -207 -45
c-90 0 -174 16.667 -252 50s-146 81.333 -204 144s-103.667 138.5 -137 227.5s-50 188.5 -50 298.5z" />
    <glyph glyph-name="H" unicode="H" horiz-adv-x="1572" 
d="M51 0v270h113v891h-113v271h664v-271h-127v-309h389v309h-121v271h666v-271h-119v-891h119v-270h-666v270h121v310h-389v-310h127v-270h-664z" />
    <glyph glyph-name="I" unicode="I" horiz-adv-x="782" 
d="M51 0v272h129v889h-129v271h680v-271h-127v-889h127v-272h-680z" />
    <glyph glyph-name="J" unicode="J" horiz-adv-x="948" 
d="M41 -125c26 -12 56.666 -18.002 91.999 -18.002c50.667 0 91.667 21.833 123 65.5s47 120.167 47 229.5v1011h-176v269h770v-269h-170v-1011c0 -90 -10.167 -170.667 -30.5 -242s-53.5 -131.166 -99.5 -179.499s-105.833 -85.166 -179.5 -110.499
s-162.834 -38 -267.501 -38c-19.333 0 -38.166 2 -56.499 6s-35.166 9.66699 -50.499 17z" />
    <glyph glyph-name="K" unicode="K" horiz-adv-x="1669" 
d="M51 0v266h111v901h-111v265h645v-265h-110v-333l381 333h-148v265h682v-265h-119l-297 -256l414 -645h119v-266h-799v266h139l-221 348l-151 -129v-219h110v-266h-645z" />
    <glyph glyph-name="L" unicode="L" horiz-adv-x="1249" 
d="M51 0v272h113v889h-113v271h647v-271h-108v-889h264v260h344v-532h-1147z" />
    <glyph glyph-name="M" unicode="M" horiz-adv-x="2064" 
d="M51 0l0.000976562 263.999h111v903h-109v265h776l207 -766l197 766h780v-265h-112v-901h112v-266h-647v266h117v805h-10c-4 -23.333 -8.83301 -48.666 -14.5 -75.999l-16.5 -78.5c-5.33301 -25 -10.833 -48.167 -16.5 -69.5s-9.83398 -38 -12.501 -50l-215 -797h-428
l-229 817c-2.66699 8 -6.16699 21.333 -10.5 40s-8.5 39.5 -12.5 62.5s-8 47.5 -12 73.5s-6.66699 52 -8 78h-9v-807h117v-264h-555z" />
    <glyph glyph-name="N" unicode="N" horiz-adv-x="1671" 
d="M51 0v264h121v903h-119v265h588l504 -752v487h-141v265h616v-265h-135v-1167h-441l-522 780v-516h158v-264h-629z" />
    <glyph glyph-name="O" unicode="O" horiz-adv-x="1515" 
d="M31 723c0 110.667 17.332 211.667 51.999 303s83.834 170.166 147.501 236.499s139.5 117.5 227.5 153.5s185.333 54 292 54c125.333 0 234 -18 326 -54s168.5 -87.167 229.5 -153.5s106.167 -146.5 135.5 -240.5s44 -198.333 44 -313
c0 -116 -15.667 -220.167 -47 -312.5s-77.833 -170.5 -139.5 -234.5s-137.167 -113.167 -226.5 -147.5s-192 -51.5 -308 -51.5c-106.667 0 -205 15.667 -295 47s-167.5 78.5 -232.5 141.5s-115.5 141.833 -151.5 236.5s-54 206.334 -54 335.001zM536.999 723
c0 -66.667 5.66797 -127.003 17.001 -181.003s27 -100.167 47 -138.5s44 -67.666 72 -87.999s58.333 -30.5 91 -30.5s61.667 10.167 87 30.5s47.166 49 65.499 86s32.333 81.333 42 133s14.5 109.834 14.5 174.501c0 62.667 -4.5 121 -13.5 175s-22.667 101 -41 141
s-41.833 71.667 -70.5 95s-63 35 -103 35c-31.333 0 -59.5 -10.5 -84.5 -31.5s-46.833 -50.667 -65.5 -89s-33 -84.166 -43 -137.499s-15 -111.333 -15 -174z" />
    <glyph glyph-name="P" unicode="P" horiz-adv-x="1310" 
d="M51 0l-0.000976562 270.001h115v893h-115v269h664c118.667 0 214.834 -12 288.501 -36s131 -56.167 172 -96.5s68.667 -86.833 83 -139.5s21.5 -108.334 21.5 -167.001c0 -68 -14.333 -127.333 -43 -178s-67.5 -92.667 -116.5 -126s-106 -58.5 -171 -75.5
s-134.5 -25.5 -208.5 -25.5h-155v-318h125v-270h-660zM585.999 809.001l92 0.000976562c60 0 108.5 14.667 145.5 44s55.5 71.333 55.5 126c0 61.333 -16.833 107.666 -50.5 138.999s-80.5 47 -140.5 47h-102v-356z" />
    <glyph glyph-name="Q" unicode="Q" horiz-adv-x="1546" 
d="M31 725c0 104 16.3291 199.668 48.9961 287.001s79.334 162.666 140.001 225.999s133.334 112.5 218.001 147.5s178.334 52.5 281.001 52.5c120 0 224 -17.5 312 -52.5s160.667 -84.167 218 -147.5s100 -139.833 128 -229.5s42 -188.834 42 -297.501
c0 -217.333 -56.667 -388 -170 -512c8 -31.333 18.5 -61.333 31.5 -90s32.5 -43 58.5 -43c18 0 29.333 10.833 34 32.5s7 41.5 7 59.5v59h136v-104c0 -45.333 -6.5 -88.166 -19.5 -128.499s-32.167 -75.166 -57.5 -104.499s-57.5 -52.5 -96.5 -69.5
s-83.833 -25.5 -134.5 -25.5c-42 0 -80.167 6.16699 -114.5 18.5s-64.333 29 -90 50s-48.167 45.167 -67.5 72.5s-34.333 56 -45 86c-49.333 -8 -102.666 -12 -159.999 -12c-104 0 -199 15 -285 45s-159.667 75.333 -221 136s-109 136.167 -143 226.5
s-51 196.166 -51 317.499zM480.996 725.001c0 -44 2.66895 -81.665 8.00195 -112.998c23.333 24.667 54.166 47.334 92.499 68.001s88.166 31 149.499 31c44 0 85 -7.5 123 -22.5s73.667 -34.167 107 -57.5c1.33301 12 2.33301 24.5 3 37.5s1 27.167 1 42.5
c0 58.667 -5.83301 114.167 -17.5 166.5s-28.5 97.666 -50.5 135.999s-48.333 68.833 -79 91.5s-65 34 -103 34c-31.333 0 -61 -10.667 -89 -32s-52.667 -50.333 -74 -87s-38.5 -80.334 -51.5 -131.001s-19.5 -105.334 -19.5 -164.001zM593.998 375.003
c40.667 -45.333 86.332 -68 136.999 -68c38 0 74.333 15 109 45c-6.66699 52 -17.667 93.667 -33 125s-40.666 47 -75.999 47c-34 0 -61.667 -14.667 -83 -44s-39.333 -64.333 -54 -105z" />
    <glyph glyph-name="R" unicode="R" horiz-adv-x="1509" 
d="M51 0l-0.00292969 269.998h115v893h-115v269h666c118.667 0 214.834 -11 288.501 -33s131.334 -52.167 173.001 -90.5s69.667 -83 84 -134s21.5 -105.833 21.5 -164.5c0 -39.333 -7.5 -76.166 -22.5 -110.499s-35.833 -64.166 -62.5 -89.499s-58 -46.5 -94 -63.5
s-75.333 -28.167 -118 -33.5c35.333 -5.33301 69.166 -16.666 101.499 -33.999s60.666 -39 84.999 -65s44 -55.333 59 -88s22.5 -67.334 22.5 -104.001c0 -44 3.5 -78.167 10.5 -102.5s20.167 -36.5 39.5 -36.5c31.333 0 47 21.667 47 65v68h137v-113
c0 -42 -4.83301 -82.833 -14.5 -122.5s-26 -74.5 -49 -104.5s-53.667 -54.333 -92 -73s-86.166 -28 -143.499 -28c-135.333 0 -235.333 33.5 -300 100.5s-97 160.5 -97 280.5c0 46.667 -2.16699 85 -6.5 115s-13.666 53.5 -27.999 70.5s-35.166 29 -62.499 36
s-63.333 10.5 -108 10.5v-318h125v-270h-662zM587.997 816.998h92c60 0 107.833 14 143.5 42s53.5 69.333 53.5 124c0 61.333 -16.167 107 -48.5 137s-78.5 45 -138.5 45h-102v-348z" />
    <glyph glyph-name="S" unicode="S" horiz-adv-x="1454" 
d="M51 0l-0.000976562 515.999h381c0 -42 9.5 -76.333 28.5 -103s41.833 -47.5 68.5 -62.5s54.667 -25.333 84 -31s55 -8.5 77 -8.5c18 0 37.167 1.33301 57.5 4s39 7.83398 56 15.501s31.333 18 43 31s17.5 30.5 17.5 52.5c0 26 -19.333 47.5 -58 64.5
s-87.167 33.667 -145.5 50s-121.5 35 -189.5 56s-131 50 -189 87s-106.5 83.833 -145.5 140.5s-58.5 128.667 -58.5 216c0 75.333 16 141 48 197s72.167 101.667 120.5 137s100.833 61.833 157.5 79.5s110.334 26.5 161.001 26.5c42 0 84.333 -3.66699 127 -11
s83 -19.166 121 -35.499s72.5 -37.833 103.5 -64.5s56.5 -59 76.5 -97l21 172h352v-514h-371c0 38 -6.83301 71.667 -20.5 101s-32.334 54.166 -56.001 74.499s-51.667 35.666 -84 45.999s-66.166 15.5 -101.499 15.5c-15.333 0 -31 -2.33301 -47 -7
s-31.333 -11.5 -46 -20.5s-26.334 -20.333 -35.001 -34s-13 -29.167 -13 -46.5c0 -35.333 20.167 -64.666 60.5 -87.999s90.5 -45.333 150.5 -66l194.5 -66.5c69.667 -23.667 134.5 -53.334 194.5 -89.001s110.167 -80.167 150.5 -133.5s60.5 -120.333 60.5 -201
s-16.667 -148.167 -50 -202.5s-76.333 -99 -129 -134s-111.167 -60 -175.5 -75s-127.166 -22.5 -188.499 -22.5c-52 0 -99.833 5.5 -143.5 16.5s-83.167 25.333 -118.5 43s-67 37.834 -95 60.501s-51.667 45.667 -71 69l-22 -158h-359z" />
    <glyph glyph-name="T" unicode="T" horiz-adv-x="1435" 
d="M31 899v533h1374v-533h-301v262h-172v-889h170v-272h-762v272h168v889h-176v-262h-301z" />
    <glyph glyph-name="U" unicode="U" horiz-adv-x="1509" 
d="M31 1165l0.00292969 266.999h651v-265h-111v-442c0 -82 4.5 -149 13.5 -201s22.333 -92.667 40 -122s39.167 -49.333 64.5 -60s54.333 -16 87 -16c31.333 0 59.666 4.33301 84.999 13s47.166 27 65.499 55s32.333 68.333 42 121s14.5 123.334 14.5 212.001v434h-111v271
h607v-265h-111v-497c0 -243.333 -49.833 -421.666 -149.5 -534.999s-245.834 -170 -438.501 -170c-207.333 6.66699 -365 65.667 -473 177s-162 283.666 -162 516.999v506h-114z" />
    <glyph glyph-name="V" unicode="V" horiz-adv-x="1583" 
d="M-20 1165v267h755v-267h-112l174 -458c16.667 -50.667 30.667 -97.5 42 -140.5s18.333 -78.833 21 -107.5h10c2.66699 28.667 10.167 66.167 22.5 112.5s29.5 95.5 51.5 147.5l186 446h-106v267h580v-267h-101l-491 -1165h-377l-543 1165h-112z" />
    <glyph glyph-name="W" unicode="W" horiz-adv-x="2078" 
d="M-20 1165l-0.00195312 267.003h675v-267h-118l53 -299c5.33301 -24.667 11.333 -56.667 18 -96l19.5 -119.5c6.33301 -40.333 11.833 -78 16.5 -113s8.33398 -59.833 11.001 -74.5h11c1.33301 13.333 5.33301 38.5 12 75.5s14.834 79.333 24.501 127l31 151.5l32.5 154
l102 461h426l129 -566c8 -32.667 15.167 -67.334 21.5 -104.001s11.833 -72.834 16.5 -108.501l13.5 -102.5c4.33301 -32.667 7.83301 -62 10.5 -88h10c1.33301 23.333 4.33301 52.666 9 87.999s10.167 71.833 16.5 109.5l18.5 108.5c6 34.667 11.667 63 17 85l70 311h-113
v267h586v-267h-112l-306 -1165h-485l-123 487l-14 61c-5.33301 22.667 -10.166 45.5 -14.499 68.5l-12.5 67.5c-4 22 -7.33301 41 -10 57h-8l-9.5 -56.5c-3.66699 -22.333 -7.83398 -45.333 -12.501 -69l-14 -68.5c-4.66699 -22 -9 -40.333 -13 -55l-125 -492h-475
l-271 1165h-114z" />
    <glyph glyph-name="X" unicode="X" horiz-adv-x="1710" 
d="M51 0v264h178l301 391l-370 510h-107v267h811v-267h-119l201 -272l209 272h-180v267h680v-267h-174l-310 -395l369 -504h119v-266h-817v266h116l-198 266l-211 -268h182v-264h-680z" />
    <glyph glyph-name="Y" unicode="Y" horiz-adv-x="1370" 
d="M-20 1169l-0.000976562 263.002h700v-263h-107l119 -217c2.66699 -9.33301 7.16699 -21.5 13.5 -36.5l19.5 -47l18.5 -47c5.66699 -15 9.83398 -26.833 12.501 -35.5h8c1.33301 9.33301 5 21.666 11 36.999s12.833 31.166 20.5 47.499l23.5 49l21 43.5l112 206h-112v263
h551v-263h-111l-379 -665v-238h115v-266h-656v266h117v242l-397 661h-100z" />
    <glyph glyph-name="Z" unicode="Z" horiz-adv-x="1462" 
d="M51 0v266l746 895h-387v-268h-347v539h1344v-273l-745 -889h378v262h365v-532h-1354z" />
    <glyph glyph-name="bracketleft" unicode="[" horiz-adv-x="1474" 
d="M59 0l-0.000976562 270.002h115v893h-115v271h664c118.667 0 214.834 -13.333 288.501 -40s131 -61.834 172 -105.501s68.667 -93.5 83 -149.5s21.5 -113.333 21.5 -172c0 -76.667 -20.5 -143.334 -61.5 -200.001s-94.167 -102.667 -159.5 -138l229 -363h119v-266h-393
l-340 549h-88v-279h125v-270h-660zM593.999 809.002l92 0.000976562c60 0 108.5 14.667 145.5 44s55.5 71.333 55.5 126c0 61.333 -16.833 107.666 -50.5 138.999s-80.5 47 -140.5 47h-102v-356z" />
    <glyph glyph-name="backslash" unicode="\" horiz-adv-x="1161" 
d="M4 1536h240l850 -1649h-240z" />
    <glyph glyph-name="bracketright" unicode="]" horiz-adv-x="1325" 
d="M61 0v266h84v1002h-84v268h474v-926l237 142h-147v272h573v-272h-158l-129 -76l285 -408h84v-268h-332l-344 489l-72 -49v-172h146v-268h-617z" />
    <glyph glyph-name="asciicircum" unicode="^" horiz-adv-x="1363" 
d="M168 797l309 653h418l309 -653h-385l-133 333l-137 -333h-381z" />
    <glyph glyph-name="underscore" unicode="_" horiz-adv-x="1024" 
d="M0 -154h1024v-102h-1024v102z" />
    <glyph glyph-name="grave" unicode="`" horiz-adv-x="1042" 
d="M-297 1436h406l159 -291h-256z" />
    <glyph glyph-name="a" unicode="a" horiz-adv-x="1228" 
d="M31 303c0 57.333 11.1641 109.165 33.4971 155.498s53 86 92 119s84.5 58.333 136.5 76s106.667 26.5 164 26.5c30 0 56.833 -3 80.5 -9s44.167 -13.167 61.5 -21.5s31 -16.666 41 -24.999s16.333 -13.833 19 -16.5v72c0 46.667 -18.333 77.5 -55 92.5
s-83 22.5 -139 22.5c-61.333 0 -117.666 -10.333 -168.999 -31s-96.666 -42 -135.999 -64l-86 238c20.667 12 46.667 26.333 78 43s66.333 32.834 105 48.501s80.334 28.5 125.001 38.5s90.667 15 138 15c61.333 0 124.833 -6.5 190.5 -19.5s125.5 -35.5 179.5 -67.5
s98.333 -75.333 133 -130s52 -122.667 52 -204v-400h123v-262h-438l-49 92c-19.333 -26 -41 -47.5 -65 -64.5s-48.5 -30.333 -73.5 -40s-49.833 -16.5 -74.5 -20.5s-46 -6 -64 -6c-49.333 0 -97.833 6.83301 -145.5 20.5s-90.667 34.167 -129 61.5s-69.333 62.5 -93 105.5
s-35.5 94.5 -35.5 154.5zM419.997 323.999c0 -28.667 10.1699 -52.001 30.5029 -70.001s46.166 -27 77.499 -27s58.666 7.5 81.999 22.5s39.666 30.167 48.999 45.5v78c-1.33301 2.66699 -4.33301 7 -9 13s-11.834 12.5 -21.501 19.5s-21.667 13.167 -36 18.5
s-32.166 8 -53.499 8c-40.667 0 -70.667 -10.167 -90 -30.5s-29 -46.166 -29 -77.499z" />
    <glyph glyph-name="b" unicode="b" horiz-adv-x="1343" 
d="M63 0l-0.00292969 266h87v1002h-87v268h496v-592c10.667 13.333 26 25.833 46 37.5s42.333 22 67 31s50.667 15.833 78 20.5s53 7 77 7c79.333 0 148.333 -15 207 -45s107.5 -69.833 146.5 -119.5s68.333 -107 88 -172s29.5 -131.5 29.5 -199.5
c-1.33301 -79.333 -13.166 -151.5 -35.499 -216.5s-54 -120.333 -95 -166s-90.167 -81.167 -147.5 -106.5s-122.333 -38 -195 -38c-39.333 0 -72.666 2.5 -99.999 7.5s-51.166 11.833 -71.499 20.5s-38.5 18.5 -54.5 29.5s-30.667 22.833 -44 35.5l-31 -70h-461z
M554.997 514c0 -38 3.33301 -73.5 10 -106.5s16.5 -61.667 29.5 -86s28.833 -43.333 47.5 -57s38.667 -20.5 60 -20.5c44 0 79.333 23.167 106 69.5s40 108.5 40 186.5c0 30 -3.5 60.333 -10.5 91s-17 57.667 -30 81s-28.667 42.5 -47 57.5s-38.5 22.5 -60.5 22.5
c-38 0 -71.667 -21.167 -101 -63.5s-44 -100.5 -44 -174.5z" />
    <glyph glyph-name="c" unicode="c" horiz-adv-x="1087" 
d="M2 518c0 90 14.001 168.167 42.001 234.5s65.167 121 111.5 164s100 74.667 161 95s124.167 30.5 189.5 30.5c34 0 65 -4 93 -12s52.667 -18.167 74 -30.5s39.5 -25.333 54.5 -39s26.5 -25.167 34.5 -34.5l35 98h241v-463h-301c-1.33301 24.667 -4.33301 49.667 -9 75
s-11.834 48.5 -21.501 69.5s-22.667 38 -39 51s-36.166 19.5 -59.499 19.5c-30 0 -56.167 -7.5 -78.5 -22.5s-41 -34.833 -56 -59.5s-26.333 -52.667 -34 -84s-11.5 -63.333 -11.5 -96c0 -69.333 19.167 -127 57.5 -173s91.5 -69 159.5 -69c52 0 97.167 10.667 135.5 32
s73.833 49.666 106.5 84.999l180 -209c-24.667 -26 -54 -51.5 -88 -76.5s-72.5 -47.167 -115.5 -66.5s-89.833 -35.166 -140.5 -47.499s-103.334 -18.5 -158.001 -18.5c-75.333 0 -147 11.333 -215 34s-127.667 56.834 -179 102.501s-92.333 102.667 -123 171
s-46 148.166 -46 239.499z" />
    <glyph glyph-name="d" unicode="d" horiz-adv-x="1298" 
d="M20 522c0 79.333 13.0049 151.496 39.0049 216.496s60.833 120 104.5 165s94.167 79.667 151.5 104s117.666 36.5 180.999 36.5c72.667 0 129 -9.83301 169 -29.5s69.667 -35.5 89 -47.5v303h-95v266h510v-1270h99v-266h-480l-34 76
c-6.66699 -6.66699 -17.334 -15.167 -32.001 -25.5s-32.834 -20.666 -54.501 -30.999s-46.834 -19.166 -75.501 -26.499s-60.667 -11 -96 -11c-72.667 0 -138.334 14.667 -197.001 44s-108.5 68.833 -149.5 118.5s-72.833 107.334 -95.5 173.001s-34 133.834 -34 204.501z
M461.005 521.996c0 -31.333 3.33301 -62 10 -92s16.5 -56.667 29.5 -80s28.333 -42.5 46 -57.5s38.167 -22.5 61.5 -22.5c38 0 71.833 21.167 101.5 63.5s44.5 100.5 44.5 174.5c0 38 -3.5 73.5 -10.5 106.5s-17 61.667 -30 86s-28.667 43.333 -47 57s-38.5 20.5 -60.5 20.5
c-44 0 -79.167 -23.167 -105.5 -69.5s-39.5 -108.5 -39.5 -186.5z" />
    <glyph glyph-name="e" unicode="e" horiz-adv-x="1110" 
d="M10 518c0 83.333 14.334 158.171 43.001 224.504s67.667 122.666 117 168.999s107.333 81.5 174 105.5s139 36 217 36c84.667 0 159.5 -12.333 224.5 -37s119.333 -58.834 163 -102.501s76.334 -95.167 98.001 -154.5s32.5 -124 32.5 -194c0 -27.333 -2 -54.333 -6 -81
s-10 -51.334 -18 -74.001h-645c2.66699 -13.333 7 -29.666 13 -48.999s16.5 -37.833 31.5 -55.5s35.5 -32.667 61.5 -45s61 -18.5 105 -18.5c18 0 37.5 0.666992 58.5 2s43.667 5.33301 68 12s50.166 16.5 77.499 29.5s54.666 31.167 81.999 54.5l172 -199
c-76.667 -65.333 -157.167 -111.333 -241.5 -138s-179.833 -40 -286.5 -40c-64 0 -128.167 10.667 -192.5 32s-122 54.166 -173 98.499s-93 101.666 -126 171.999s-49.5 154.5 -49.5 252.5zM416.001 612.005h309.002c0 19.333 -2 38.833 -6 58.5s-11.167 37.5 -21.5 53.5
s-25.5 28.667 -45.5 38s-46.333 14 -79 14c-31.333 0 -56.833 -6.16699 -76.5 -18.5s-35.334 -27 -47.001 -44s-19.834 -35 -24.501 -54s-7.66699 -34.833 -9 -47.5z" />
    <glyph glyph-name="f" unicode="f" horiz-adv-x="790" 
d="M51 758l0.000976562 266.001h84v174c0 28.667 3.83301 64.5 11.5 107.5s25.5 84.333 53.5 124s68.5 73.5 121.5 101.5s126.167 42 219.5 42c26 0 54 -1.33301 84 -4s58.667 -6.5 86 -11.5s52.5 -10.5 75.5 -16.5s41.5 -12.333 55.5 -19l-123 -236
c-10.667 5.33301 -25.334 10.166 -44.001 14.499s-41.667 6.5 -69 6.5c-44 0 -65.667 -36.333 -65 -109v-174h186v-266h-186v-490h123v-268h-611v268h82v490h-84z" />
    <glyph glyph-name="g" unicode="g" horiz-adv-x="1310" 
d="M20 518c0 79.333 11.002 151.336 33.002 216.003s54.5 120 97.5 166s96.667 81.5 161 106.5s138.833 37.5 223.5 37.5c45.333 0 87.666 -8.83301 126.999 -26.5s69.333 -36.5 90 -56.5l41 63h487v-268h-123v-613c0 -84.667 -13 -161.334 -39 -230.001
s-65.5 -127.667 -118.5 -177s-119.5 -87.666 -199.5 -114.999s-174 -41 -282 -41c-56 0 -108.167 6.16699 -156.5 18.5s-92.666 27.666 -132.999 45.999s-75.5 37.833 -105.5 58.5s-54.667 39.667 -74 57l109 228c12 -10.667 30 -23.334 54 -38.001s51.667 -29.167 83 -43.5
s65.833 -26.166 103.5 -35.499s76.167 -14 115.5 -14c46.667 0 85 6.16699 115 18.5s54.167 27.666 72.5 45.999s31.333 38.666 39 60.999s11.5 44.5 11.5 66.5v70c-6.66699 -9.33301 -17 -20.5 -31 -33.5s-30.833 -25.333 -50.5 -37s-42.834 -21.667 -69.501 -30
s-56.334 -12.5 -89.001 -12.5c-88.667 0 -164 14.667 -226 44s-112.5 68 -151.5 116s-67.833 102.667 -86.5 164s-28 124 -28 188zM457.002 522.003c0 -31.333 3.33301 -62 10 -92s16.5 -56.667 29.5 -80s28.333 -42.5 46 -57.5s38.167 -22.5 61.5 -22.5
c38 0 71.833 21.167 101.5 63.5s44.5 100.5 44.5 174.5c0 38 -3.5 73.5 -10.5 106.5s-17 61.667 -30 86s-28.667 43.333 -47 57s-38.5 20.5 -60.5 20.5c-44 0 -79.167 -23.167 -105.5 -69.5s-39.5 -108.5 -39.5 -186.5z" />
    <glyph glyph-name="h" unicode="h" horiz-adv-x="1353" 
d="M51 0l0.000976562 268.001h86v1002h-86v266h496v-639c5.33301 9.33301 18.166 23 38.499 41s45.333 36.167 75 54.5s62.5 34.333 98.5 48s72.333 20.5 109 20.5c79.333 0 142.5 -13.333 189.5 -40s83.167 -61.5 108.5 -104.5s41.833 -91.5 49.5 -145.5
s11.5 -107.667 11.5 -161v-342h96v-268h-526v557c0 18 -0.666992 37.833 -2 59.5s-5.83301 42.167 -13.5 61.5s-19.667 35.833 -36 49.5s-39.5 20.5 -69.5 20.5c-26 0 -47.5 -5.83301 -64.5 -17.5s-30.333 -26.834 -40 -45.501s-16.167 -39.167 -19.5 -61.5
s-5 -44.5 -5 -66.5v-289h147v-268h-643z" />
    <glyph glyph-name="i" unicode="i" horiz-adv-x="675" 
d="M51 0v268h86v490h-86v266h475v-756h99v-268h-574zM109 1323c0 23.333 4.66602 47.3301 13.999 71.9971s23.333 47.167 42 67.5s41.834 37 69.501 50s59.5 19.5 95.5 19.5c35.333 0 67 -6.5 95 -19.5s51.5 -29.667 70.5 -50s33.667 -42.833 44 -67.5
s15.5 -48.667 15.5 -72c0 -57.333 -19.167 -106.166 -57.5 -146.499s-94.166 -60.5 -167.499 -60.5c-32.667 0 -62.334 6.16699 -89.001 18.5s-50 28.333 -70 48s-35.333 41.834 -46 66.501s-16 49.334 -16 74.001z" />
    <glyph glyph-name="j" unicode="j" horiz-adv-x="737" 
d="M29 -154c58.667 0 104.001 11 136.001 33s55.167 48.333 69.5 79s22.5 63 24.5 97s3 63.333 3 88v615h-86v266h475v-881c0 -64 -6.83301 -129.5 -20.5 -196.5s-42.334 -128.5 -86.001 -184.5s-106.5 -101.667 -188.5 -137s-191 -53 -327 -53v274zM233.001 1323
c0 23.333 4.83301 47.3301 14.5 71.9971s23.667 47.167 42 67.5s41.5 37 69.5 50s60 19.5 96 19.5c35.333 0 67 -6.5 95 -19.5s51.5 -29.667 70.5 -50s33.667 -42.833 44 -67.5s15.5 -48.667 15.5 -72c0 -57.333 -19.167 -106.166 -57.5 -146.499
s-94.166 -60.5 -167.499 -60.5c-32.667 0 -62.334 6.16699 -89.001 18.5s-50 28.333 -70 48s-35.5 41.834 -46.5 66.501s-16.5 49.334 -16.5 74.001z" />
    <glyph glyph-name="k" unicode="k" horiz-adv-x="1339" 
d="M78 0v266h84v1002h-84v268h473v-926l237 142h-147v270h573v-270h-157l-139 -88l276 -396h102v-268h-606v268h86l-155 221l-72 -49v-172h76v-268h-547z" />
    <glyph glyph-name="l" unicode="l" horiz-adv-x="679" 
d="M51 0v268h88v1004h-86v264h475v-1268h121v-268h-598z" />
    <glyph glyph-name="m" unicode="m" horiz-adv-x="1859" 
d="M51 0l0.000976562 268.002h86v484h-86v270h387l45 -121l36 40c16 17.333 34.833 34.166 56.5 50.499s46.167 30.333 73.5 42s57.333 17.5 90 17.5c52 0 95.5 -5.5 130.5 -16.5s64 -24 87 -39s41.333 -31 55 -48s24.5 -31.833 32.5 -44.5
c31.333 35.333 71.666 68.833 120.999 100.5s109.666 47.5 180.999 47.5c83.333 0 149.833 -14 199.5 -42s88.167 -65 115.5 -111s45.5 -98.333 54.5 -157s13.5 -119.334 13.5 -182.001v-283h100v-276h-520v502c0 13.333 0.333008 27.5 1 42.5s1 30.833 1 47.5
c0 20.667 -1 40.834 -3 60.501s-5.83301 37 -11.5 52s-13.667 27.333 -24 37s-24.166 14.5 -41.499 14.5c-44 0 -73.167 -14 -87.5 -42s-21.5 -64 -21.5 -108v-332h123v-274h-530v522c0 83.333 -4.16699 143.166 -12.5 179.499s-32.833 54.5 -73.5 54.5
c-32.667 0 -56.167 -10 -70.5 -30s-21.5 -51 -21.5 -93v-365h122v-268h-608z" />
    <glyph glyph-name="n" unicode="n" horiz-adv-x="1325" 
d="M51 0v268.001h86v490h-86v266h436l48 -127c35.333 48 76.5 87.333 123.5 118s103.167 46 168.5 46c79.333 0 143.333 -13.333 192 -40s86.167 -61.5 112.5 -104.5s44 -91.5 53 -145.5s13.5 -107.667 13.5 -161v-342h96v-268h-516v559c0 18 -0.333008 37.833 -1 59.5
s-4.33398 42.167 -11.001 61.5s-17.834 35.833 -33.501 49.5s-38.5 20.5 -68.5 20.5c-26 0 -47.667 -5.83301 -65 -17.5s-30.666 -26.834 -39.999 -45.501s-15.666 -39.167 -18.999 -61.5s-5 -44.5 -5 -66.5v-291h147v-268h-631z" />
    <glyph glyph-name="o" unicode="o" horiz-adv-x="1175" 
d="M23 516c0 86 16.001 162.165 48.001 228.498s74.167 122 126.5 167s112.333 79.167 180 102.5s136.5 35 206.5 35c80.667 0 155.667 -12.667 225 -38s129.666 -61.666 180.999 -108.999s91.333 -104.666 120 -171.999s43 -144 43 -230
c0 -84.667 -14.667 -159.5 -44 -224.5s-69.333 -120 -120 -165s-109.667 -79.167 -177 -102.5s-140 -35 -218 -35c-74 0 -145.5 11.333 -214.5 34s-130 56.5 -183 101.5s-95.167 101.667 -126.5 170s-47 147.5 -47 237.5zM442.001 513.998
c0 -84.667 14.332 -152.167 42.999 -202.5s65 -75.5 109 -75.5c22 0 41.5 6.66699 58.5 20s31.667 32.333 44 57s21.5 53.834 27.5 87.501s9 69.5 9 107.5s-3.33301 73.833 -10 107.5s-16.167 62.667 -28.5 87s-27.666 43.666 -45.999 57.999s-39.833 21.5 -64.5 21.5
c-20.667 0 -39.5 -6.83301 -56.5 -20.5s-31.667 -32.667 -44 -57s-22.333 -53 -30 -86s-11.5 -67.833 -11.5 -104.5z" />
    <glyph glyph-name="p" unicode="p" 
d="M51 -150l85.999 -0.000976562v902h-86v272h469l35 -72c9.33301 6.66699 21.833 15.167 37.5 25.5s33.834 20 54.501 29s44 16.833 70 23.5s54.667 10 86 10c79.333 0 149.333 -14.333 210 -43s111.167 -67.5 151.5 -116.5s70.666 -106 90.999 -171
s30.5 -133.5 30.5 -205.5c0 -82 -12 -155.5 -36 -220.5s-56.667 -120 -98 -165s-90.666 -79.833 -147.999 -104.5s-119 -37 -185 -37c-42 0 -79.167 3.5 -111.5 10.5s-59 15.333 -80 25s-37.667 18.834 -50 27.501l-24.5 17v-207h111v-268h-613v268zM552.999 513.999
c0 -38 3.33301 -73.5 10 -106.5s16.5 -61.667 29.5 -86s28.833 -43.333 47.5 -57s38.667 -20.5 60 -20.5c44 0 79.333 23.167 106 69.5s40 108.5 40 186.5c0 30 -3.5 60.333 -10.5 91s-17 57.667 -30 81s-28.667 42.5 -47 57.5s-38.5 22.5 -60.5 22.5
c-38 0 -71.667 -21.167 -101 -63.5s-44 -100.5 -44 -174.5z" />
    <glyph glyph-name="q" unicode="q" horiz-adv-x="1351" 
d="M51 518c0 88.667 12.667 165.83 38 231.497s60.166 120.334 104.499 164.001s96.166 76.334 155.499 98.001s123.333 32.5 192 32.5c66.667 0 121.167 -10.167 163.5 -30.5s68.833 -37.166 79.5 -50.499l39 61h477v-266h-100v-955h100v-274h-649v268h133v271
c-23.333 -19.333 -57.5 -38.5 -102.5 -57.5s-98.167 -28.5 -159.5 -28.5c-65.333 0 -126.666 12.5 -183.999 37.5s-107.166 60.833 -149.499 107.5s-75.833 103 -100.5 169s-37 140 -37 222zM492 540.996c0 -38 3.33301 -73.5 10 -106.5s16.5 -61.833 29.5 -86.5
s28.667 -43.834 47 -57.501s38.5 -20.5 60.5 -20.5c44 0 79.167 23.167 105.5 69.5s39.5 108.5 39.5 186.5c0 30 -3.33301 60.5 -10 91.5s-16.5 58 -29.5 81s-28.667 42 -47 57s-38.5 22.5 -60.5 22.5c-38 0 -71.667 -21.167 -101 -63.5s-44 -100.166 -44 -173.499z" />
    <glyph glyph-name="r" unicode="r" horiz-adv-x="847" 
d="M51 0v268h90v490h-88v266h385l62 -131c13.333 24.667 27.5 47.834 42.5 69.501s34.167 41.167 57.5 58.5s52 30.666 86 39.999s77.667 14 131 14v-368c-92.667 0 -164 -15.5 -214 -46.5s-75 -91.5 -75 -181.5v-211h103v-268h-580z" />
    <glyph glyph-name="s" unicode="s" horiz-adv-x="1040" 
d="M31 0l-0.00292969 369.002h274c0 -27.333 8.5 -50 25.5 -68s37.167 -32 60.5 -42s47.333 -17.167 72 -21.5s44.334 -6.5 59.001 -6.5c20.667 0 40.834 4.5 60.501 13.5s29.5 27.833 29.5 56.5c0 19.333 -14 34.833 -42 46.5s-63.5 22.834 -106.5 33.501
s-89 23.5 -138 38.5s-95 35.833 -138 62.5s-78.5 61.5 -106.5 104.5s-42 98.167 -42 165.5c0 52 12 96.667 36 134s54 68 90 92s74.833 41.833 116.5 53.5s80.834 17.5 117.501 17.5c69.333 0 132.166 -15.833 188.499 -47.5s95.5 -69.167 117.5 -112.5l16 135h252v-369
h-266c0 22 -6.16699 42.167 -18.5 60.5s-28.5 34.666 -48.5 48.999s-42.167 25.666 -66.5 33.999s-49.5 12.5 -75.5 12.5c-22 0 -40.833 -5.83301 -56.5 -17.5s-23.5 -30.5 -23.5 -56.5c0 -23.333 14.333 -41.666 43 -54.999s64.5 -26.5 107.5 -39.5l140 -43.5
c50.333 -16 97 -36.833 140 -62.5s78.833 -58.667 107.5 -99s43 -91.833 43 -154.5c0 -48 -10.5 -91.167 -31.5 -129.5s-49 -70.833 -84 -97.5s-75.667 -46.834 -122 -60.501s-94.166 -20.5 -143.499 -20.5c-74 0 -138.5 15.167 -193.5 45.5s-94.833 65.166 -119.5 104.499
l-18 -125h-256z" />
    <glyph glyph-name="t" unicode="t" horiz-adv-x="743" 
d="M31 758v266h110v188l377 121v-309h195v-266h-195v-365c0 -9.33301 -0.333008 -18.833 -1 -28.5s-1 -19.834 -1 -30.501c0 -27.333 3.83301 -51.666 11.5 -72.999s26.5 -32 56.5 -32c13.333 0 33.333 3.83301 60 11.5s49.667 15.5 69 23.5v-262
c-15.333 -6.66699 -34.5 -12.5 -57.5 -17.5s-46.833 -8.83301 -71.5 -11.5s-47.667 -5 -69 -7s-38 -3 -50 -3c-76.667 0 -136.5 10.333 -179.5 31s-74.667 49.334 -95 86.001s-33.333 81.667 -39 135s-9.16699 112.666 -10.5 177.999v365h-110z" />
    <glyph glyph-name="u" unicode="u" horiz-adv-x="1292" 
d="M31 754l0.000976562 269.999h495v-494c0 -88.667 7.83301 -153.834 23.5 -195.501s44.834 -62.5 87.501 -62.5c35.333 0 65.666 14.333 90.999 43s38 66.334 38 113.001v326h-135v270h530v-752h101v-272h-388l-55 129l-39.5 -46
c-15.667 -18.667 -34.834 -36.167 -57.501 -52.5s-49.667 -30.333 -81 -42s-69 -17.5 -113 -17.5c-78 0 -143.167 10.333 -195.5 31s-94.5 51.5 -126.5 92.5s-54.833 92.833 -68.5 155.5s-20.5 136.334 -20.5 221.001v283h-86z" />
    <glyph glyph-name="v" unicode="v" horiz-adv-x="1255" 
d="M0 764l0.000976562 259.999h623v-260h-103l94 -217c13.333 -39.333 25 -79.5 35 -120.5s16.333 -72.5 19 -94.5h8c0 10.667 1.66699 24.5 5 41.5s7.66602 35.833 12.999 56.5s11.833 41.834 19.5 63.501l23.5 63.5l99 207h-109v260h528v-260h-106l-354 -764h-318
l-381 764h-96z" />
    <glyph glyph-name="w" unicode="w" horiz-adv-x="1785" 
d="M0 758l0.00390625 265.997h551v-266h-70l45 -150c6.66699 -24.667 13.167 -51 19.5 -79s11.5 -55.5 15.5 -82.5s7.33301 -52.167 10 -75.5s5 -42.666 7 -57.999h4c1.33301 20.667 3.66602 48 6.99902 82s8 71.833 14 113.5s14.167 86.834 24.5 135.501
s23.166 99 38.499 151l65 229h379l78 -266c12 -39.333 22.833 -81.666 32.5 -126.999l27 -129.5c8.33301 -41 14.833 -78.167 19.5 -111.5s7.66699 -59 9 -77h4c1.33301 16.667 3.66602 37.667 6.99902 63s7.16602 53 11.499 83s9.5 60.333 15.5 91s13 59.667 21 87l35 121
h-84v266h500v-266h-84l-240 -758h-432l-141 463l-148 -463h-422l-231 758h-88z" />
    <glyph glyph-name="x" unicode="x" horiz-adv-x="1329" 
d="M41 0v254h137l209 235l-254 279h-92v256h664v-256h-97l144 -156l153 156h-137v256h522v-256h-135l-217 -219l258 -295h96v-254h-653v254h96l-155 166l-148 -166h133v-254h-524z" />
    <glyph glyph-name="y" unicode="y" horiz-adv-x="1187" 
d="M-18 762l-0.000976562 262.002h630v-260h-96l133 -320l133 320h-94v260h520v-254h-98l-389 -946c-15.333 -32.667 -32.833 -66.167 -52.5 -100.5s-45.834 -65.5 -78.501 -93.5s-74 -50.833 -124 -68.5s-111.667 -26.5 -185 -26.5
c-53.333 2.66699 -100.166 13.667 -140.499 33s-76.166 42.666 -107.499 69.999l153 241c19.333 -18 41 -34.5 65 -49.5s47.667 -22.5 71 -22.5c27.333 0 50.833 11.667 70.5 35s34.167 48.666 43.5 75.999l29 86l-399 758h-84z" />
    <glyph glyph-name="z" unicode="z" horiz-adv-x="1132" 
d="M51 0v268l494 492h-228v-146h-266v410h1014v-264l-487 -492h215v140h288v-408h-1030z" />
    <glyph glyph-name="braceleft" unicode="{" horiz-adv-x="878" 
d="M158 455l0.000976562 274c54.667 0 91.167 8.5 109.5 25.5s27.5 49.5 27.5 97.5v322c0 122.667 26 207.5 78 254.5s125 70.5 219 70.5h162v-309h-47c-23.333 0 -41.5 -4.16699 -54.5 -12.5s-22.667 -17.833 -29 -28.5s-10.5 -22.167 -12.5 -34.5s-3 -23.5 -3 -33.5v-309
c0 -46.667 -6.16699 -82.167 -18.5 -106.5s-26.666 -42 -42.999 -53s-32.666 -17.167 -48.999 -18.5s-29.166 -2 -38.499 -2v-4c9.33301 0 22.166 -1 38.499 -3s32.666 -8.5 48.999 -19.5s30.666 -28.5 42.999 -52.5s18.5 -57 18.5 -99v-316
c0 -9.33301 1.33301 -20.166 4 -32.499s7.5 -24.333 14.5 -36s17 -21.167 30 -28.5s29.833 -11 50.5 -11h47v-309h-162c-44 0 -84 5.66699 -120 17s-67.333 29.666 -94 54.999s-47.167 58.833 -61.5 100.5s-21.5 93.167 -21.5 154.5v320c0 28.667 -2.33301 51.167 -7 67.5
s-12.5 28.833 -23.5 37.5s-25.333 14.5 -43 17.5s-38.834 4.5 -63.501 4.5z" />
    <glyph glyph-name="bar" unicode="|" horiz-adv-x="454" 
d="M57 -121v1655h340v-1655h-340z" />
    <glyph glyph-name="braceright" unicode="}" horiz-adv-x="884" 
d="M160 -10l46.9961 -0.000976562c20.667 0 37.334 3.66699 50.001 11s22.5 16.833 29.5 28.5s11.833 23.667 14.5 36s4 23.166 4 32.499v316c0 42 6.16699 75 18.5 99s26.666 41.5 42.999 52.5s32.666 17.5 48.999 19.5s29.5 3 39.5 3v4c-9.33301 0 -22.333 0.666992 -39 2
s-33.167 7.5 -49.5 18.5s-30.666 28.667 -42.999 53s-18.5 59.833 -18.5 106.5v309c0 9.33301 -1 20.333 -3 33s-6 24.334 -12 35.001s-15.833 20.167 -29.5 28.5s-31.5 12.5 -53.5 12.5h-47v309h162c94 0 166.833 -23.5 218.5 -70.5s77.5 -131.833 77.5 -254.5v-322
c0 -48 9.33301 -80.5 28 -97.5s55.334 -25.5 110.001 -25.5v-274c-26 0 -47.5 -1.5 -64.5 -4.5s-31 -8.83301 -42 -17.5s-19 -21.167 -24 -37.5s-7.5 -38.833 -7.5 -67.5v-320c0 -61.333 -7.16699 -112.833 -21.5 -154.5s-34.666 -75.167 -60.999 -100.5
s-57.666 -43.666 -93.999 -54.999s-76.166 -17 -119.499 -17h-162v309z" />
    <glyph glyph-name="asciitilde" unicode="~" horiz-adv-x="1363" 
d="M205 752c24.667 23.333 57.4961 45.498 98.4961 66.498s94.167 31.5 159.5 31.5c46.667 0 87.334 -6.16699 122.001 -18.5s68 -25.666 100 -39.999s64.833 -27.666 98.5 -39.999s70.834 -18.5 111.501 -18.5c38 0 74.5 8.16699 109.5 24.5s64.833 39.5 89.5 69.5l69 -319
c-57.333 -76.667 -144.666 -115 -261.999 -115c-53.333 0 -98.666 6.16699 -135.999 18.5s-71.833 26 -103.5 41s-62.167 28.667 -91.5 41s-62.333 18.5 -99 18.5c-38 0 -71.333 -6.16699 -100 -18.5s-58 -31.5 -88 -57.5z" />
    <glyph glyph-name="uni00A0" unicode="&#xa0;" horiz-adv-x="512" 
 />
    <glyph glyph-name="cent" unicode="&#xa2;" horiz-adv-x="1087" 
d="M2 518c0 90 14.002 167.832 42.002 233.499s64.833 120 110.5 163s99 75 160 96s124.167 31.5 189.5 31.5v78h172v-123c20.667 -12 37.834 -24.5 51.501 -37.5l34.5 -33.5l35 98h241v-463h-301c-2.66699 35.333 -8.33398 70.5 -17.001 105.5s-23.334 62.833 -44.001 83.5
v-478c44 4 82.667 16.333 116 37s65 47.334 95 80.001l180 -209c-39.333 -44 -92.833 -84.667 -160.5 -122s-144.5 -62.666 -230.5 -75.999v-103h-172v94c-68 5.33301 -132.5 21 -193.5 47s-114.333 61.667 -160 107s-81.834 100.666 -108.501 165.999s-40 140.333 -40 225z
M428.002 513.999c0 -39.333 6.5 -75.499 19.5 -108.499s31.833 -60.167 56.5 -81.5v409c-26 -24.667 -45.167 -56.334 -57.5 -95.001s-18.5 -80 -18.5 -124z" />
    <glyph glyph-name="sterling" unicode="&#xa3;" horiz-adv-x="1527" 
d="M59 465l-0.000976562 272.001h154c4 112 23.167 212.333 57.5 301s78 164.167 131 226.5s112.333 109.833 178 142.5s131.167 49 196.5 49c50.667 0 94.834 -6.16699 132.501 -18.5s69.334 -26.333 95.001 -42s45.667 -31.334 60 -47.001l28.5 -31.5l47 115h321v-582
h-366c-1.33301 32.667 -6.83301 64.667 -16.5 96s-23 59 -40 83s-38.833 43.167 -65.5 57.5s-58.334 21.5 -95.001 21.5c-35.333 0 -67.5 -9.5 -96.5 -28.5s-54 -45.333 -75 -79s-37.667 -73 -50 -118s-19.833 -93.5 -22.5 -145.5h344v-272h-344v-193h489v191h355v-463
h-1414v272h150v193h-154z" />
    <glyph glyph-name="yen" unicode="&#xa5;" horiz-adv-x="1370" 
d="M-20 1169v263h700v-263h-107l183 -186h8l188 186h-112v263h551v-263h-111l-326 -350h156v-157h-209v-105h209v-156h-209v-135h115v-266h-656v266h117v135h-188v156h188v105h-188v157h135l-344 350h-100z" />
    <glyph glyph-name="dieresis" unicode="&#xa8;" horiz-adv-x="1200" 
d="M109 1323c0 23.333 4.66602 47.3301 13.999 71.9971s23.333 47.167 42 67.5s41.834 37 69.501 50s59.5 19.5 95.5 19.5c35.333 0 67 -6.5 95 -19.5s51.5 -29.667 70.5 -50s33.667 -42.833 44 -67.5s15.5 -48.667 15.5 -72c0 -57.333 -19.167 -106.166 -57.5 -146.499
s-94.166 -60.5 -167.499 -60.5c-32.667 0 -62.334 6.16699 -89.001 18.5s-50 28.333 -70 48s-35.333 41.834 -46 66.501s-16 49.334 -16 74.001zM671.999 1323c0 23.333 4.66895 47.3301 14.002 71.9971s23.333 47.167 42 67.5s42 37 70 50s59.667 19.5 95 19.5
s67 -6.5 95 -19.5s51.5 -29.667 70.5 -50s33.667 -42.833 44 -67.5s15.5 -48.667 15.5 -72c0 -57.333 -19 -106.166 -57 -146.499s-94 -60.5 -168 -60.5c-32.667 0 -62.334 6.16699 -89.001 18.5s-49.834 28.333 -69.501 48s-35 41.834 -46 66.501
s-16.5 49.334 -16.5 74.001z" />
    <glyph glyph-name="copyright" unicode="&#xa9;" horiz-adv-x="1597" 
d="M51 707c0 130 19.166 243.998 57.499 341.998s91 180.167 158 246.5s145.833 116.166 236.5 149.499s189.334 50 296.001 50s205.334 -17.333 296.001 -52s169.5 -85.167 236.5 -151.5s119.5 -148.666 157.5 -246.999s57 -210.833 57 -337.5
c0 -128.667 -19 -242.167 -57 -340.5s-90.5 -180.666 -157.5 -246.999s-146 -116.5 -237 -150.5s-189.5 -51 -295.5 -51c-106.667 0 -205.334 16.333 -296.001 49s-169.5 81.834 -236.5 147.501s-119.667 148 -158 247s-57.5 214.167 -57.5 345.5zM357.999 706.998
c0 -92.667 10.6699 -173.333 32.0029 -242s51.166 -125.167 89.499 -169.5s84.666 -77.333 138.999 -99s114.5 -32.5 180.5 -32.5c136.667 0 244.167 44.5 322.5 133.5s117.5 225.5 117.5 409.5c0 174.667 -37.167 308.667 -111.5 402s-183.833 140 -328.5 140
s-254.334 -44 -329.001 -132s-112 -224.667 -112 -410zM479.002 710.999c0 86 13 155.164 39 207.497s58.167 92.833 96.5 121.5s80 48.167 125 58.5s85.833 15.5 122.5 15.5c38 0 69.333 -3.66699 94 -11s44.667 -14.666 60 -21.999v-194l-63.5 20.5
c-21.667 7 -48.5 10.5 -80.5 10.5c-44 0 -78.833 -15.167 -104.5 -45.5s-38.5 -84.166 -38.5 -161.499c0 -65.333 11 -115.833 33 -151.5s54.667 -53.5 98 -53.5c30 0 58 2.66699 84 8s50 12.333 72 21v-201c-20.667 -8 -44 -15.167 -70 -21.5s-58 -9.5 -96 -9.5
c-36.667 0 -76.5 4.83301 -119.5 14.5s-83 28.834 -120 57.501s-68.167 69.667 -93.5 123s-38 124.333 -38 213z" />
    <glyph glyph-name="guillemotleft" unicode="&#xab;" horiz-adv-x="1155" 
d="M0 522l348 508l236 -160l-236 -348l236 -348l-236 -158zM584 522l338 508l235 -160l-235 -348l235 -348l-235 -158z" />
    <glyph glyph-name="uni00AD" unicode="&#xad;" horiz-adv-x="790" 
d="M96 352v273h594v-273h-594z" />
    <glyph glyph-name="registered" unicode="&#xae;" horiz-adv-x="1597" 
d="M51 707c0 130 19.166 243.998 57.499 341.998s91 180.167 158 246.5s145.833 116.166 236.5 149.499s189.334 50 296.001 50s205.334 -17.333 296.001 -52s169.5 -85.167 236.5 -151.5s119.5 -148.666 157.5 -246.999s57 -210.833 57 -337.5
c0 -128.667 -19 -242.167 -57 -340.5s-90.5 -180.666 -157.5 -246.999s-146 -116.5 -237 -150.5s-189.5 -51 -295.5 -51c-106.667 0 -205.334 16.333 -296.001 49s-169.5 81.834 -236.5 147.501s-119.667 148 -158 247s-57.5 214.167 -57.5 345.5zM357.999 706.998
c0 -92.667 10.6699 -173.333 32.0029 -242s51.166 -125.167 89.499 -169.5s84.666 -77.333 138.999 -99s114.5 -32.5 180.5 -32.5c136.667 0 244.167 44.5 322.5 133.5s117.5 225.5 117.5 409.5c0 174.667 -37.167 308.667 -111.5 402s-183.833 140 -328.5 140
s-254.334 -44 -329.001 -132s-112 -224.667 -112 -410zM528.002 341.999l0.000976562 757.999h248c39.333 0 78.5 -1.66699 117.5 -5s74.333 -12.666 106 -27.999s57 -38 76 -68s28.5 -70.667 28.5 -122c0 -53.333 -13.667 -94.666 -41 -123.999s-64.333 -54.333 -111 -75
c34 -20.667 59.333 -46.334 76 -77.001s31 -63.667 43 -99l53 -160h-252l-22 121c-6.66699 35.333 -13.834 65 -21.501 89s-21.167 45.333 -40.5 64l-32 -6v-268h-228zM756.003 744.998c24.667 5.33301 44.834 10.833 60.501 16.5s27.5 12.667 35.5 21
s13.667 18.833 17 31.5s5 30 5 52c0 40.667 -8.83301 65.167 -26.5 73.5s-40.834 12.5 -69.501 12.5h-22v-207z" />
    <glyph glyph-name="acute" unicode="&#xb4;" horiz-adv-x="1042" 
d="M-80 1145l160 291h405l-309 -291h-256z" />
    <glyph glyph-name="cedilla" unicode="&#xb8;" horiz-adv-x="878" 
d="M268 -369l65.999 126.998c32.667 -15.333 65.334 -22.666 98.001 -21.999c45.333 0 68 16.333 68 49s-22.667 49 -68 49c-12 0 -22.833 -0.333008 -32.5 -1s-17.834 -1.66699 -24.501 -3l-21 35l56 176l161 -21l-32 -71c49.333 -4 87.833 -20.167 115.5 -48.5
s41.5 -62.166 41.5 -101.499c0 -24.667 -4.33301 -49.5 -13 -74.5s-22.667 -47.5 -42 -67.5s-44.666 -36.167 -75.999 -48.5s-70 -18.5 -116 -18.5c-31.333 0 -63.833 4.16699 -97.5 12.5s-61.5 17.833 -83.5 28.5z" />
    <glyph glyph-name="guillemotright" unicode="&#xbb;" horiz-adv-x="1155" 
d="M0 174l236 348l-236 348l236 160l348 -508l-348 -506zM573 870l236 160l348 -508l-348 -506l-225 158l225 348z" />
    <glyph glyph-name="circumflex" unicode="&#x2c6;" horiz-adv-x="823" 
d="M-393 1309l391 243l387 -243l-115 -191l-284 144l-277 -144z" />
    <glyph glyph-name="ring" unicode="&#x2da;" horiz-adv-x="1228" 
d="M303 1329c0 30 6.49902 58 19.499 84s30.833 48.833 53.5 68.5s48.334 35.334 77.001 47.001s59.334 17.5 92.001 17.5s63 -5.83301 91 -17.5s52.833 -27.334 74.5 -47.001s38.667 -42.5 51 -68.5s18.5 -54 18.5 -84s-6.5 -58 -19.5 -84s-30.333 -48.833 -52 -68.5
s-46.834 -35.334 -75.501 -47.001s-58 -17.5 -88 -17.5c-34 0 -65.667 5.83301 -95 17.5s-55 27.334 -77 47.001s-39.167 42.5 -51.5 68.5s-18.5 54 -18.5 84zM456.999 1329c0 -24.667 8.16699 -45.167 24.5 -61.5s36.166 -24.5 59.499 -24.5c26 0 46.833 8.16699 62.5 24.5
s23.5 36.833 23.5 61.5s-8.16699 45.167 -24.5 61.5s-34.833 24.5 -55.5 24.5c-27.333 0 -49.166 -8.16699 -65.499 -24.5s-24.5 -36.833 -24.5 -61.5z" />
    <glyph glyph-name="tilde" unicode="&#x2dc;" horiz-adv-x="823" 
d="M35 1348c31.333 39.333 66.1689 69.167 104.502 89.5s83.166 30.5 134.499 30.5c32.667 0 60 -3.66699 82 -11s43 -15.5 63 -24.5s40.167 -17.167 60.5 -24.5s44.833 -11 73.5 -11c30 0 59 6.16699 87 18.5s48.667 25.833 62 40.5l93 -215
c-30 -36.667 -64.833 -64.667 -104.5 -84s-88.834 -29 -147.501 -29c-31.333 0 -57.666 4.16699 -78.999 12.5s-41.5 17 -60.5 26s-38.833 17.5 -59.5 25.5s-46 12 -76 12c-54.667 0 -102.334 -20.333 -143.001 -61z" />
    <glyph glyph-name="uni0400" unicode="&#x400;" horiz-adv-x="1337" 
d="M51 0v272h129v889h-129v271h1235v-453h-354v182h-328v-282h389v-273h-389v-334h328v191h354v-463h-1235zM385 1843h406l159 -291h-256z" />
    <glyph glyph-name="afii10023" unicode="&#x401;" horiz-adv-x="1337" 
d="M51 0v272h129v889h-129v271h1235v-453h-354v182h-328v-282h389v-273h-389v-334h328v191h354v-463h-1235zM164 1731c0 23.333 4.83496 47.166 14.502 71.499s23.667 46.833 42 67.5s41.5 37.334 69.5 50.001s59.667 19 95 19s67 -6.33301 95 -19
s51.667 -29.334 71 -50.001s34 -43.334 44 -68.001s15 -48.334 15 -71.001c0 -57.333 -19 -106.166 -57 -146.499s-94 -60.5 -168 -60.5c-32.667 0 -62.334 6.16699 -89.001 18.5s-49.834 28.333 -69.501 48s-35 41.834 -46 66.501s-16.5 49.334 -16.5 74.001zM727.002 1731
c0 23.333 4.83594 47.166 14.5029 71.499s23.667 46.833 42 67.5s41.5 37.334 69.5 50.001s59.667 19 95 19s67 -6.33301 95 -19s51.667 -29.334 71 -50.001s34.166 -43.334 44.499 -68.001s15.5 -48.334 15.5 -71.001c0 -57.333 -19.167 -106.166 -57.5 -146.499
s-94.5 -60.5 -168.5 -60.5c-32.667 0 -62.334 6.16699 -89.001 18.5s-49.834 28.333 -69.501 48s-35 41.834 -46 66.501s-16.5 49.334 -16.5 74.001z" />
    <glyph glyph-name="afii10051" unicode="&#x402;" horiz-adv-x="1630" 
d="M31 983l-0.000976562 448.999h1374v-449h-301v178h-172v-463c35.333 48 76.5 87.333 123.5 118s103.5 46 169.5 46c79.333 0 143.5 -13.333 192.5 -40s86.833 -61.167 113.5 -103.5s44.667 -90.333 54 -144s14 -107.167 14 -160.5v-281
c0 -90 -10.167 -169.5 -30.5 -238.5s-53.333 -126.667 -99 -173s-105.334 -81.166 -179.001 -104.499s-163.167 -35 -268.5 -35c-19.333 0 -38.166 2 -56.499 6s-35.166 9.66699 -50.499 17l-2 270c26 -12 57 -18 93 -18c48 0 87.5 19.333 118.5 58s48.167 106.667 51.5 204
v241c0 18 -0.333008 38 -1 60s-4.5 42.5 -11.5 61.5s-18.333 35.333 -34 49s-38.5 20.5 -68.5 20.5c-26 0 -47.5 -5.83301 -64.5 -17.5s-30.333 -26.667 -40 -45s-16.167 -38.833 -19.5 -61.5s-5 -45 -5 -67v-88h170v-272h-762v272h168v889h-176v-178h-301z" />
    <glyph glyph-name="afii10052" unicode="&#x403;" horiz-adv-x="1249" 
d="M51 0v270h113v889h-113v273h1147v-533h-344v260h-264v-889h108v-270h-647zM553 1530l160 291h405l-309 -291h-256z" />
    <glyph glyph-name="afii10053" unicode="&#x404;" horiz-adv-x="1404" 
d="M31 702c0 117.333 19.8301 222.836 59.4971 316.503s90.167 173 151.5 238s128.5 114.5 201.5 148.5s142.833 51 209.5 51c50.667 0 94.834 -6.16699 132.501 -18.5s69.5 -26.333 95.5 -42s46.167 -31.334 60.5 -47.001s23.5 -26.167 27.5 -31.5l47 115h321v-431h-366
c-15.333 38 -41 65.333 -77 82s-82.667 25 -140 25c-54.667 0 -101.167 -21.833 -139.5 -65.5s-66.5 -100.5 -84.5 -170.5c31.333 19.333 69 29 113 29c26 0 48.167 -3.33301 66.5 -10s35.333 -13.834 51 -21.501s32.167 -14.834 49.5 -21.501s38 -10 62 -10
c24.667 0 48.667 5 72 15s40.333 22.667 51 38l76 -193c-24.667 -32.667 -53.334 -57.5 -86.001 -74.5s-73 -25.5 -121 -25.5c-26 0 -47.833 3.33301 -65.5 10s-34.334 14.5 -50.001 23.5s-32 17 -49 24s-37.833 10.5 -62.5 10.5c-45.333 0 -85 -18.667 -119 -56l-2 2
c6.66699 -40.667 17.834 -79.167 33.501 -115.5s35.834 -67.833 60.501 -94.5s53.834 -47.5 87.501 -62.5s70.834 -22.5 111.501 -22.5c42 0 82.167 9.66699 120.5 29s71.833 40.833 100.5 64.5s52.167 46.167 70.5 67.5l34.5 40l239 -262
c-35.333 -38 -74.833 -74.5 -118.5 -109.5s-91.5 -65.833 -143.5 -92.5s-108 -47.834 -168 -63.501s-123.333 -23.5 -190 -23.5c-109.333 0 -208.333 16.833 -297 50.5s-164.5 82.167 -227.5 145.5s-111.833 140.333 -146.5 231s-52 193.334 -52 308.001z" />
    <glyph glyph-name="afii10054" unicode="&#x405;" horiz-adv-x="1454" 
d="M51 0l-0.000976562 515.999h381c0 -42 9.5 -76.333 28.5 -103s41.833 -47.5 68.5 -62.5s54.667 -25.333 84 -31s55 -8.5 77 -8.5c18 0 37.167 1.33301 57.5 4s39 7.83398 56 15.501s31.333 18 43 31s17.5 30.5 17.5 52.5c0 26 -19.333 47.5 -58 64.5
s-87.167 33.667 -145.5 50s-121.5 35 -189.5 56s-131 50 -189 87s-106.5 83.833 -145.5 140.5s-58.5 128.667 -58.5 216c0 75.333 16 141 48 197s72.167 101.667 120.5 137s100.833 61.833 157.5 79.5s110.334 26.5 161.001 26.5c42 0 84.333 -3.66699 127 -11
s83 -19.166 121 -35.499s72.5 -37.833 103.5 -64.5s56.5 -59 76.5 -97l21 172h352v-514h-371c0 38 -6.83301 71.667 -20.5 101s-32.334 54.166 -56.001 74.499s-51.667 35.666 -84 45.999s-66.166 15.5 -101.499 15.5c-15.333 0 -31 -2.33301 -47 -7
s-31.333 -11.5 -46 -20.5s-26.334 -20.333 -35.001 -34s-13 -29.167 -13 -46.5c0 -35.333 20.167 -64.666 60.5 -87.999s90.5 -45.333 150.5 -66l194.5 -66.5c69.667 -23.667 134.5 -53.334 194.5 -89.001s110.167 -80.167 150.5 -133.5s60.5 -120.333 60.5 -201
s-16.667 -148.167 -50 -202.5s-76.333 -99 -129 -134s-111.167 -60 -175.5 -75s-127.166 -22.5 -188.499 -22.5c-52 0 -99.833 5.5 -143.5 16.5s-83.167 25.333 -118.5 43s-67 37.834 -95 60.501s-51.667 45.667 -71 69l-22 -158h-359z" />
    <glyph glyph-name="afii10055" unicode="&#x406;" horiz-adv-x="782" 
d="M51 0v272h129v889h-129v271h680v-271h-127v-889h127v-272h-680z" />
    <glyph glyph-name="afii10056" unicode="&#x407;" horiz-adv-x="782" 
d="M-113 1731c0 23.333 4.83301 47.166 14.5 71.499s23.667 46.833 42 67.5s41.5 37.334 69.5 50.001s60 19 96 19c35.333 0 67 -6.33301 95 -19s51.5 -29.334 70.5 -50.001s33.667 -43.334 44 -68.001s15.5 -48.334 15.5 -71.001
c0 -57.333 -19.167 -106.166 -57.5 -146.499s-94.166 -60.5 -167.499 -60.5c-32.667 0 -62.334 6.16699 -89.001 18.5s-50 28.333 -70 48s-35.5 41.834 -46.5 66.501s-16.5 49.334 -16.5 74.001zM51 0v272h129v889h-129v271h680v-271h-127v-889h127v-272h-680zM451 1731
c0 23.333 4.66602 47.166 13.999 71.499s23.333 46.833 42 67.5s41.834 37.334 69.501 50.001s59.5 19 95.5 19c35.333 0 67 -6.33301 95 -19s51.5 -29.334 70.5 -50.001s33.667 -43.334 44 -68.001s15.5 -48.334 15.5 -71.001c0 -57.333 -19.167 -106.166 -57.5 -146.499
s-94.166 -60.5 -167.499 -60.5c-32.667 0 -62.334 6.16699 -89.001 18.5s-50 28.333 -70 48s-35.333 41.834 -46 66.501s-16 49.334 -16 74.001z" />
    <glyph glyph-name="afii10057" unicode="&#x408;" horiz-adv-x="948" 
d="M41 -125c26 -12 56.666 -18.002 91.999 -18.002c50.667 0 91.667 21.833 123 65.5s47 120.167 47 229.5v1011h-176v269h770v-269h-170v-1011c0 -90 -10.167 -170.667 -30.5 -242s-53.5 -131.166 -99.5 -179.499s-105.833 -85.166 -179.5 -110.499
s-162.834 -38 -267.501 -38c-19.333 0 -38.166 2 -56.499 6s-35.166 9.66699 -50.499 17z" />
    <glyph glyph-name="afii10058" unicode="&#x409;" horiz-adv-x="2144" 
d="M41 262c26 -12 56.666 -18.0029 91.999 -18.0029c50.667 0 91.667 21.833 123 65.5s47 120.167 47 229.5v624h-176v269h1413v-271h-125v-317h156c74 0 143.333 -8.5 208 -25.5s121.5 -42.333 170.5 -76s87.833 -76 116.5 -127s43 -110.167 43 -177.5
c0 -58.667 -7.16699 -114.167 -21.5 -166.5s-41.833 -98.666 -82.5 -138.999s-98 -72.5 -172 -96.5s-170.333 -36 -289 -36h-663v268h114v893h-268v-622c0 -90 -10.167 -170.667 -30.5 -242s-53.5 -131.166 -99.5 -179.499s-105.833 -85.166 -179.5 -110.499
s-162.834 -38 -267.501 -38c-19.333 0 -38.166 2.16699 -56.499 6.5s-35.166 9.83301 -50.499 16.5zM1415 265.997h103c60 0 106.667 15.667 140 47s50 78 50 140c0 54.667 -18.5 96.667 -55.5 126s-85.5 44 -145.5 44h-92v-357z" />
    <glyph glyph-name="afii10059" unicode="&#x40a;" horiz-adv-x="1572" 
d="M51 0l0.000976562 269.999h113v891h-113v271h664v-271h-127v-309h389v309h-121v271h666v-271h-125v-317h155c74 0 143.5 -8.5 208.5 -25.5s122 -42.333 171 -76s87.833 -76 116.5 -127s43 -110.167 43 -177.5c0 -58.667 -7.16699 -114.167 -21.5 -166.5
s-42 -98.666 -83 -138.999s-98.333 -72.5 -172 -96.5s-169.834 -36 -288.501 -36h-670v270h121v310h-389v-310h127v-270h-664zM1393 265.999h102c60 0 106.833 15.667 140.5 47s50.5 78 50.5 140c0 54.667 -18.5 96.667 -55.5 126s-85.5 44 -145.5 44h-92v-357z" />
    <glyph glyph-name="afii10060" unicode="&#x40b;" horiz-adv-x="1630" 
d="M31 983v449h1374v-449h-301v178h-172v-463c35.333 48 76.5 87.333 123.5 118s103.5 46 169.5 46c79.333 0 143.166 -13.333 191.499 -40s85.833 -61.5 112.5 -104.5s44.334 -91.333 53.001 -145s13 -107.167 13 -160.5v-144h107v-268h-526v360c0 18 -0.333008 38 -1 60
s-4.5 42.5 -11.5 61.5s-18.333 35.333 -34 49s-38.5 20.5 -68.5 20.5c-26 0 -47.5 -5.83301 -64.5 -17.5s-30.333 -26.667 -40 -45s-16.167 -38.833 -19.5 -61.5s-5 -45 -5 -67v-88h170v-272h-762v272h168v889h-176v-178h-301z" />
    <glyph glyph-name="afii10061" unicode="&#x40c;" horiz-adv-x="1669" 
d="M51 0l-0.000976562 266.002h111v901h-111v265h701v-265h-166v-364c61.333 0 109.666 9.16699 144.999 27.5s64 42.5 86 72.5s39.167 64.167 51.5 102.5s25.666 77.666 39.999 117.999s32.333 79.5 54 117.5s52.334 72.167 92.001 102.5s91.334 54.666 155.001 72.999
s144.5 27.5 242.5 27.5c35.333 0 68.333 -2 99 -6s53.667 -9 69 -15l2 -272c-27.333 12 -58.666 18 -93.999 18c-57.333 0 -103.166 -10.833 -137.499 -32.5s-63.333 -50 -87 -85s-44 -74 -61 -117s-36.5 -86.167 -58.5 -129.5l315 -539h119v-266h-799v266h139l-129 254
c-31.333 -6.66699 -64.333 -12 -99 -16s-73.334 -6 -116.001 -6h-28v-232h110v-266h-645zM800.999 1501l160 291h405l-309 -291h-256z" />
    <glyph glyph-name="uni040D" unicode="&#x40d;" horiz-adv-x="1755" 
d="M51 0v264h135v903h-135v265h682v-265h-139v-594l584 859h505v-265h-118v-903h121v-264h-695v264h158v592l-574 -856h-524zM473 1821h406l159 -291h-256z" />
    <glyph glyph-name="afii10062" unicode="&#x40e;" horiz-adv-x="1374" 
d="M-12 1169v263.001h694v-261h-80l152 -319l153 319h-82v261h572v-254h-113l-442 -928c-18 -32.667 -38.167 -66.167 -60.5 -100.5s-52.666 -65.5 -90.999 -93.5s-85.833 -50.833 -142.5 -68.5s-127.334 -26.5 -212.001 -26.5c-61.333 2.66699 -115.333 13.667 -162 33
s-87.667 42.333 -123 69l176 242c22 -18 46.333 -34.5 73 -49.5s53.667 -22.5 81 -22.5c32.667 0 60 11.667 82 35s39 48.666 51 75.999l29 68l-459 757h-96zM326 1829l317.003 0.000976562c6.66699 -44 19.667 -78.167 39 -102.5s42 -36.5 68 -36.5
c27.333 0 49.166 13.167 65.499 39.5s27.833 60.166 34.5 101.499l317 2c-6.66699 -54.667 -22 -103.167 -46 -145.5s-54.333 -77.833 -91 -106.5s-79.334 -50.5 -128.001 -65.5s-99.334 -22.5 -152.001 -22.5c-49.333 0 -98 6.83301 -146 20.5s-91 34.5 -129 62.5
s-70.333 63.167 -97 105.5s-44 91.5 -52 147.5z" />
    <glyph glyph-name="afii10145" unicode="&#x40f;" horiz-adv-x="1699" 
d="M51 0v272h129v889h-129v271h680v-271h-127v-889h469v889h-129v271h680v-271h-127v-889h127v-272h-577l-74 -289h-256l-74 289h-592z" />
    <glyph glyph-name="afii10017" unicode="&#x410;" horiz-adv-x="1685" 
d="M31 0v268h139l276 899h-84v265h787l362 -1164h144v-268h-821v268h194l-43 140h-420l-43 -140h160v-268h-651zM641 653h268l-135 443z" />
    <glyph glyph-name="afii10018" unicode="&#x411;" horiz-adv-x="1310" 
d="M51 0l0.000976562 267.999h115v893h-115v271h1202v-453h-354v182h-313v-317h155c74 0 143.5 -8.5 208.5 -25.5s122 -42.333 171 -76s87.833 -76 116.5 -127s43 -110.167 43 -177.5c0 -58.667 -7.16699 -114.167 -21.5 -166.5s-42 -98.666 -83 -138.999
s-98.333 -72.5 -172 -96.5s-169.834 -36 -288.501 -36h-664zM586.001 265.999h102c60 0 106.833 15.667 140.5 47s50.5 78 50.5 140c0 54.667 -18.5 96.667 -55.5 126s-85.5 44 -145.5 44h-92v-357z" />
    <glyph glyph-name="afii10019" unicode="&#x412;" horiz-adv-x="1406" 
d="M51 0l0.00195312 266.001h119v901h-119v265h764c170.667 0 297 -30.5 379 -91.5s123 -147.5 123 -259.5c0 -44 -3.5 -81.833 -10.5 -113.5s-18 -60.167 -33 -85.5s-35.333 -47.666 -61 -66.999s-57.834 -36.333 -96.501 -51c36.667 -10.667 71.5 -25.334 104.5 -44.001
s61.667 -42.334 86 -71.001s43.666 -62.5 57.999 -101.5s21.5 -82.833 21.5 -131.5c0 -144.667 -43.333 -250.167 -130 -316.5s-229 -99.5 -427 -99.5h-778zM594.002 266.001h164c44 0 82.667 15.333 116 46s50 74 50 130c0 52 -14.333 95.167 -43 129.5
s-71.667 51.5 -129 51.5h-158v-357zM594.002 854.001h124.999c54.667 0 91.5 14 110.5 42s28.5 66.667 28.5 116c0 48 -12.667 84.833 -38 110.5s-57.666 38.5 -96.999 38.5h-129v-307z" />
    <glyph glyph-name="afii10020" unicode="&#x413;" horiz-adv-x="1249" 
d="M51 0v270h113v889h-113v273h1147v-533h-344v260h-264v-889h108v-270h-647z" />
    <glyph glyph-name="afii10021" unicode="&#x414;" horiz-adv-x="1587" 
d="M-68 -291l107 291h4l-2 291c26 -12 56.667 -18.333 92 -19c50.667 0 91.667 21.833 123 65.5s47 120.167 47 229.5v596h-176v269h1395v-269h-125v-897h125v-266l106 -291h-256l-256 291h-672l-256 -291h-256zM592 268h385v895h-250v-596c0 -58.667 -12 -115.667 -36 -171
s-57 -98 -99 -128z" />
    <glyph glyph-name="afii10022" unicode="&#x415;" horiz-adv-x="1337" 
d="M51 0v272h129v889h-129v271h1235v-453h-354v182h-328v-282h389v-273h-389v-334h328v191h354v-463h-1235z" />
    <glyph glyph-name="afii10024" unicode="&#x416;" horiz-adv-x="2355" 
d="M63 1151l3.00293 272.001c13.333 5.33301 35 10.166 65 14.499s62 6.5 96 6.5c84.667 -1.33301 154.334 -11.666 209.001 -30.999s99.167 -44.333 133.5 -75s61 -65 80 -103s34.667 -76.833 47 -116.5l35 -116c11 -37.667 26 -71.5 45 -101.5s44.167 -53.833 75.5 -71.5
s73.666 -26.5 126.999 -26.5v364h-145v265h704v-265h-145v-364c53.333 0 95.666 9.16699 126.999 27.5s56.5 42.5 75.5 72.5s34 64.167 45 102.5s23 77.666 36 117.999s29 79.5 48 117.5s46.333 72.167 82 102.5s81.5 54.666 137.5 72.999s127.667 27.5 215 27.5
c31.333 0 60.666 -2 88 -6c27.333 -4 47 -9 59 -15l2 -272c-23.333 12 -51.333 18 -84 18c-50.667 0 -91.334 -10.833 -122.001 -32.5s-56.167 -50 -76.5 -85s-38 -74 -53 -117s-32.167 -86.167 -51.5 -129.5l279 -539h104v-266h-707v266h123l-112 254
c-56 -15.333 -119.667 -22.666 -191 -21.999h-24v-232h96v-266h-606v266h96v232h-25c-70.667 0 -134 7.33301 -190 22l-113 -254h123v-266h-706v266h104l279 539c-19.333 44 -36.833 87.333 -52.5 130s-33.834 81.5 -54.501 116.5s-46 63.333 -76 85s-70.333 32.5 -121 32.5
c-34 0 -62 -6 -84 -18z" />
    <glyph glyph-name="afii10025" unicode="&#x417;" horiz-adv-x="1366" 
d="M31 205l257.999 217.002c48 -38 97.5 -69.667 148.5 -95s112.833 -38 185.5 -38c70.667 0 126.167 13.333 166.5 40s60.5 65.667 60.5 117c0 56 -19.167 95 -57.5 117s-88.833 33 -151.5 33h-190v244h184c61.333 0 112.5 11.833 153.5 35.5s61.5 58.834 61.5 105.501
c0 20.667 -2.33301 40.834 -7 60.501s-13.834 37 -27.501 52s-32.834 27 -57.501 36s-56 13.5 -94 13.5c-35.333 0 -65.666 -6.83301 -90.999 -20.5s-46.666 -30.834 -63.999 -51.501s-31 -43.834 -41 -69.501s-18 -50.834 -24 -75.501h-376v506h321l47 -115
c26 32.667 66 63.667 120 93s123.333 44 208 44c174.667 0 303.334 -37.833 386.001 -113.5s124 -183.834 124 -324.501c0 -34 -6.83301 -64.667 -20.5 -92s-30 -51.333 -49 -72s-39.5 -38.834 -61.5 -54.501s-41.333 -28.167 -58 -37.5c20.667 -12 44.667 -27.667 72 -47
s53 -42.666 77 -69.999s44.5 -59 61.5 -95s25.5 -77.333 25.5 -124c0 -76.667 -20.5 -143 -61.5 -199s-94.667 -102.667 -161 -140s-141 -65.333 -224 -84s-167.5 -28 -253.5 -28c-60 0 -120.167 6.5 -180.5 19.5s-116.666 30.167 -168.999 51.5s-99.333 46 -141 74
s-74.834 57 -99.501 87z" />
    <glyph glyph-name="afii10026" unicode="&#x418;" horiz-adv-x="1755" 
d="M51 0v264h135v903h-135v265h682v-265h-139v-594l584 859h505v-265h-118v-903h121v-264h-695v264h158v592l-574 -856h-524z" />
    <glyph glyph-name="afii10027" unicode="&#x419;" horiz-adv-x="1755" 
d="M51 0v264h135v903h-135v265h682v-265h-139v-594l584 859h505v-265h-118v-903h121v-264h-695v264h158v592l-574 -856h-524zM473 1862h318c6.66699 -44 19.5 -78.333 38.5 -103s41.5 -37 67.5 -37c27.333 0 49.166 13.333 65.499 40s27.833 60.667 34.5 102l318 2
c-6.66699 -54.667 -22 -103.167 -46 -145.5s-54.5 -77.833 -91.5 -106.5s-79.667 -50.5 -128 -65.5s-99.166 -22.5 -152.499 -22.5c-49.333 0 -97.833 6.83301 -145.5 20.5s-90.667 34.5 -129 62.5s-70.833 63.167 -97.5 105.5s-44 91.5 -52 147.5z" />
    <glyph glyph-name="afii10028" unicode="&#x41a;" horiz-adv-x="1669" 
d="M51 0l-0.000976562 266.002h111v901h-111v265h701v-265h-166v-364c61.333 0 109.666 9.16699 144.999 27.5s64 42.5 86 72.5s39.167 64.167 51.5 102.5s25.666 77.666 39.999 117.999s32.333 79.5 54 117.5s52.334 72.167 92.001 102.5s91.334 54.666 155.001 72.999
s144.5 27.5 242.5 27.5c35.333 0 68.333 -2 99 -6s53.667 -9 69 -15l2 -272c-27.333 12 -58.666 18 -93.999 18c-57.333 0 -103.166 -10.833 -137.499 -32.5s-63.333 -50 -87 -85s-44 -74 -61 -117s-36.5 -86.167 -58.5 -129.5l315 -539h119v-266h-799v266h139l-129 254
c-31.333 -6.66699 -64.333 -12 -99 -16s-73.334 -6 -116.001 -6h-28v-232h110v-266h-645z" />
    <glyph glyph-name="afii10029" unicode="&#x41b;" horiz-adv-x="1677" 
d="M41 262c26 -12 56.666 -18.002 91.999 -18.002c50.667 0 91.667 21.833 123 65.5s47 120.167 47 229.5v624h-176v269h1483v-271h-125v-895h125v-266h-660v268h115v893h-338v-622c0 -90 -10.167 -170.667 -30.5 -242s-53.5 -131.166 -99.5 -179.499
s-105.833 -85.166 -179.5 -110.499s-162.834 -38 -267.501 -38c-19.333 0 -38.166 2.16699 -56.499 6.5s-35.166 9.83301 -50.499 16.5z" />
    <glyph glyph-name="afii10030" unicode="&#x41c;" horiz-adv-x="2064" 
d="M51 0l0.000976562 263.999h111v903h-109v265h776l207 -766l197 766h780v-265h-112v-901h112v-266h-647v266h117v805h-10c-4 -23.333 -8.83301 -48.666 -14.5 -75.999l-16.5 -78.5c-5.33301 -25 -10.833 -48.167 -16.5 -69.5s-9.83398 -38 -12.501 -50l-215 -797h-428
l-229 817c-2.66699 8 -6.16699 21.333 -10.5 40s-8.5 39.5 -12.5 62.5s-8 47.5 -12 73.5s-6.66699 52 -8 78h-9v-807h117v-264h-555z" />
    <glyph glyph-name="afii10031" unicode="&#x41d;" horiz-adv-x="1572" 
d="M51 0v270h113v891h-113v271h664v-271h-127v-309h389v309h-121v271h666v-271h-119v-891h119v-270h-666v270h121v310h-389v-310h127v-270h-664z" />
    <glyph glyph-name="afii10032" unicode="&#x41e;" horiz-adv-x="1515" 
d="M31 723c0 110.667 17.332 211.667 51.999 303s83.834 170.166 147.501 236.499s139.5 117.5 227.5 153.5s185.333 54 292 54c125.333 0 234 -18 326 -54s168.5 -87.167 229.5 -153.5s106.167 -146.5 135.5 -240.5s44 -198.333 44 -313
c0 -116 -15.667 -220.167 -47 -312.5s-77.833 -170.5 -139.5 -234.5s-137.167 -113.167 -226.5 -147.5s-192 -51.5 -308 -51.5c-106.667 0 -205 15.667 -295 47s-167.5 78.5 -232.5 141.5s-115.5 141.833 -151.5 236.5s-54 206.334 -54 335.001zM536.999 723
c0 -66.667 5.66797 -127.003 17.001 -181.003s27 -100.167 47 -138.5s44 -67.666 72 -87.999s58.333 -30.5 91 -30.5s61.667 10.167 87 30.5s47.166 49 65.499 86s32.333 81.333 42 133s14.5 109.834 14.5 174.501c0 62.667 -4.5 121 -13.5 175s-22.667 101 -41 141
s-41.833 71.667 -70.5 95s-63 35 -103 35c-31.333 0 -59.5 -10.5 -84.5 -31.5s-46.833 -50.667 -65.5 -89s-33 -84.166 -43 -137.499s-15 -111.333 -15 -174z" />
    <glyph glyph-name="afii10033" unicode="&#x41f;" horiz-adv-x="1572" 
d="M51 0v270h113v891h-113v271h1471v-271h-119v-891h119v-270h-666v270h121v891h-389v-891h127v-270h-664z" />
    <glyph glyph-name="afii10034" unicode="&#x420;" horiz-adv-x="1310" 
d="M51 0l-0.000976562 270.001h115v893h-115v269h664c118.667 0 214.834 -12 288.501 -36s131 -56.167 172 -96.5s68.667 -86.833 83 -139.5s21.5 -108.334 21.5 -167.001c0 -68 -14.333 -127.333 -43 -178s-67.5 -92.667 -116.5 -126s-106 -58.5 -171 -75.5
s-134.5 -25.5 -208.5 -25.5h-155v-318h125v-270h-660zM585.999 809.001l92 0.000976562c60 0 108.5 14.667 145.5 44s55.5 71.333 55.5 126c0 61.333 -16.833 107.666 -50.5 138.999s-80.5 47 -140.5 47h-102v-356z" />
    <glyph glyph-name="afii10035" unicode="&#x421;" horiz-adv-x="1404" 
d="M31 702c0 117.333 19.833 222.832 59.5 316.499s90.167 173 151.5 238s128.5 114.5 201.5 148.5s142.833 51 209.5 51c50.667 0 94.834 -6.16699 132.501 -18.5s69.5 -26.333 95.5 -42s46.167 -31.334 60.5 -47.001s23.5 -26.167 27.5 -31.5l47 115h321v-582h-366
c-1.33301 32.667 -6.83301 64.667 -16.5 96s-23 59 -40 83s-38.833 43.167 -65.5 57.5s-58.334 21.5 -95.001 21.5s-70.167 -10.667 -100.5 -32s-56 -50.333 -77 -87s-37.333 -79.667 -49 -129s-17.5 -102 -17.5 -158c0 -50.667 6.5 -99.167 19.5 -145.5
s32.167 -87.166 57.5 -122.499s56.333 -63.666 93 -84.999s79.667 -32 129 -32c42 0 82.167 9.66699 120.5 29s71.833 40.833 100.5 64.5s52.167 46.167 70.5 67.5l34.5 40l239 -262c-35.333 -38 -74.833 -74.5 -118.5 -109.5s-91.5 -65.833 -143.5 -92.5
s-108 -47.834 -168 -63.501s-123.333 -23.5 -190 -23.5c-109.333 0 -208.333 16.833 -297 50.5s-164.5 82.167 -227.5 145.5s-111.833 140.333 -146.5 231s-52 193.334 -52 308.001z" />
    <glyph glyph-name="afii10036" unicode="&#x422;" horiz-adv-x="1435" 
d="M31 899v533h1374v-533h-301v262h-172v-889h170v-272h-762v272h168v889h-176v-262h-301z" />
    <glyph glyph-name="afii10037" unicode="&#x423;" horiz-adv-x="1374" 
d="M-12 1169v263.001h694v-261h-80l152 -319l153 319h-82v261h572v-254h-113l-442 -928c-18 -32.667 -38.167 -66.167 -60.5 -100.5s-52.666 -65.5 -90.999 -93.5s-85.833 -50.833 -142.5 -68.5s-127.334 -26.5 -212.001 -26.5c-61.333 2.66699 -115.333 13.667 -162 33
s-87.667 42.333 -123 69l176 242c22 -18 46.333 -34.5 73 -49.5s53.667 -22.5 81 -22.5c32.667 0 60 11.667 82 35s39 48.666 51 75.999l29 68l-459 757h-96z" />
    <glyph glyph-name="afii10038" unicode="&#x424;" horiz-adv-x="1581" 
d="M14 725c0 58.667 16.167 111.164 48.5 157.497s74.333 84.833 126 115.5s111 54.334 178 71.001s135.167 25 204.5 25l2 67h-129v271h680v-271h-127v-67c79.333 -1.33301 153.5 -10.666 222.5 -27.999s128.5 -42.333 178.5 -75s89.333 -72.167 118 -118.5
s43 -99.5 43 -159.5c0 -57.333 -14.833 -109 -44.5 -155s-70 -84.667 -121 -116s-110.667 -55.166 -179 -71.499s-140.833 -24.5 -217.5 -24.5v-74h127v-272h-680v272h129v76c-72.667 0 -142.667 8.16699 -210 24.5s-127 40.333 -179 72s-93.333 70.667 -124 117
s-46 100.833 -46 163.5zM432 722.997c0 -57.333 13.332 -103 39.999 -137s60.334 -52.667 101.001 -56l-2 379c-39.333 0 -72.333 -18 -99 -54s-40 -80 -40 -132zM996.999 527.997c44 0 79.001 18.5 105.001 55.5s39 82.167 39 135.5c0 52 -12.333 96 -37 132
s-60.334 55.333 -107.001 58v-381z" />
    <glyph glyph-name="afii10039" unicode="&#x425;" horiz-adv-x="1710" 
d="M51 0v264h178l301 391l-370 510h-107v267h811v-267h-119l201 -272l209 272h-180v267h680v-267h-174l-310 -395l369 -504h119v-266h-817v266h116l-198 266l-211 -268h182v-264h-680z" />
    <glyph glyph-name="afii10040" unicode="&#x426;" horiz-adv-x="1572" 
d="M51 0v270h119v891h-119v271h666v-271h-121v-891h389v891h-127v271h664v-271h-113v-891h113v-270h4l106 -291h-256l-256 291h-1069z" />
    <glyph glyph-name="afii10041" unicode="&#x427;" horiz-adv-x="1568" 
d="M53 1161v271h641v-271h-96v-307c0 -54.667 18.5 -96.667 55.5 -126s85.5 -44 145.5 -44h137v481h-86v267h620v-269h-114v-893h114v-270h-659v270h125v193h-225c-74 0 -143.333 8.16699 -208 24.5s-121.667 41.5 -171 75.5s-88.333 76 -117 126s-43 109 -43 177v295h-119z
" />
    <glyph glyph-name="afii10042" unicode="&#x428;" horiz-adv-x="2361" 
d="M55 0v270h119v891h-119v271h666v-271h-121v-891h358v891h-118v271h665v-271h-121v-891h390v891h-127v271h663v-271h-112v-891h112v-270h-2255z" />
    <glyph glyph-name="afii10043" unicode="&#x429;" horiz-adv-x="2361" 
d="M55 0v270h119v891h-119v271h666v-271h-121v-891h358v891h-118v271h665v-271h-121v-891h390v891h-127v271h663v-271h-112v-891h112v-270h4l107 -291h-256l-256 291h-1854z" />
    <glyph glyph-name="afii10044" unicode="&#x42a;" horiz-adv-x="1679" 
d="M57 979v452.999h1022v-271h-125v-317h156c74 0 143.333 -8.5 208 -25.5s121.667 -42.333 171 -76s88.333 -76 117 -127s43 -110.167 43 -177.5c0 -58.667 -7.16699 -114.167 -21.5 -166.5s-42 -98.666 -83 -138.999s-98.333 -72.5 -172 -96.5s-170.167 -36 -289.5 -36
h-663v268h115v893h-123v-182h-355zM954 265.999h103c60 0 106.667 15.667 140 47s50 78 50 140c0 54.667 -18.333 96.667 -55 126s-85 44 -145 44h-93v-357z" />
    <glyph glyph-name="afii10045" unicode="&#x42b;" horiz-adv-x="2099" 
d="M51 0l0.000976562 267.999h115v893h-115v271h660v-271h-125v-317h155c74 0 143.5 -8.5 208.5 -25.5s122 -42.333 171 -76s87.833 -76 116.5 -127s43 -110.167 43 -177.5c0 -58.667 -7.16699 -114.167 -21.5 -166.5s-42 -98.666 -83 -138.999s-98.333 -72.5 -172 -96.5
s-169.834 -36 -288.501 -36h-664zM586.001 265.999h102c60 0 106.833 15.667 140.5 47s50.5 78 50.5 140c0 54.667 -18.5 96.667 -55.5 126s-85.5 44 -145.5 44h-92v-357zM1335 -0.000976562v272h129v889h-129v271h680v-271h-127v-889h127v-272h-680z" />
    <glyph glyph-name="afii10046" unicode="&#x42c;" horiz-adv-x="1310" 
d="M51 0l0.000976562 267.999h115v893h-115v271h660v-271h-125v-317h155c74 0 143.5 -8.5 208.5 -25.5s122 -42.333 171 -76s87.833 -76 116.5 -127s43 -110.167 43 -177.5c0 -58.667 -7.16699 -114.167 -21.5 -166.5s-42 -98.666 -83 -138.999s-98.333 -72.5 -172 -96.5
s-169.834 -36 -288.501 -36h-664zM586.001 265.999h102c60 0 106.833 15.667 140.5 47s50.5 78 50.5 140c0 54.667 -18.5 96.667 -55.5 126s-85.5 44 -145.5 44h-92v-357z" />
    <glyph glyph-name="afii10047" unicode="&#x42d;" horiz-adv-x="1404" 
d="M31 256l238.999 261.998c4 -5.33301 15.333 -18.666 34 -39.999s42.334 -43.833 71.001 -67.5s61.667 -45.167 99 -64.5s78 -29 122 -29c38 0 73.167 6.83301 105.5 20.5s60.333 32.834 84 57.501s43.667 53.334 60 86.001s28.833 68.334 37.5 107.001
c-34 -22 -78.333 -33 -133 -33c-26 0 -48 3.33301 -66 10s-34.833 14.5 -50.5 23.5s-32 17 -49 24s-37.833 10.5 -62.5 10.5c-45.333 0 -85 -18.667 -119 -56l-73 183c27.333 35.333 56.333 62.166 87 80.499s67.667 27.5 111 27.5c26 0 48.333 -3.33301 67 -10
s35.834 -13.834 51.501 -21.501s32 -14.834 49 -21.501s37.833 -10 62.5 -10s48.667 5 72 15s40.333 22.667 51 38c-16.667 76.667 -44.834 139.167 -84.501 187.5s-88.167 72.5 -145.5 72.5s-104 -8.16699 -140 -24.5s-61.667 -43.833 -77 -82.5h-366v431h321l47 -115
c4 5.33301 13.167 15.833 27.5 31.5s34.5 31.334 60.5 47.001s57.5 29.667 94.5 42s81.5 18.5 133.5 18.5c66.667 0 136.5 -17 209.5 -51s140.167 -83.5 201.5 -148.5s111.833 -144.167 151.5 -237.5s59.5 -199 59.5 -317c0 -114.667 -17.333 -217.334 -52 -308.001
s-83.5 -167.667 -146.5 -231s-139.167 -111.833 -228.5 -145.5s-188 -50.5 -296 -50.5c-66.667 0 -130 7.83301 -190 23.5s-116 36.834 -168 63.501s-100.167 57.5 -144.5 92.5s-83.5 71.5 -117.5 109.5z" />
    <glyph glyph-name="afii10048" unicode="&#x42e;" horiz-adv-x="2318" 
d="M84 0l0.000976562 271.998h129v889h-129v271h680v-271h-127v-287h209c15.333 90 43 171.667 83 245s90.833 135.833 152.5 187.5s132 91.834 211 120.501s165.5 43 259.5 43c125.333 0 234.166 -18 326.499 -54s169 -87.167 230 -153.5s106.167 -146.5 135.5 -240.5
s44 -198.333 44 -313c0 -116 -15.833 -220.167 -47.5 -312.5s-78.167 -170.5 -139.5 -234.5s-136.666 -113.167 -225.999 -147.5s-192 -51.5 -308 -51.5c-94 0 -182 12.333 -264 37s-154.167 61.5 -216.5 110.5s-114.333 110.833 -156 185.5
s-69.834 162.334 -84.501 263.001h-209v-287h127v-272h-680zM1339 722.998c0 -66.667 5.83105 -127.003 17.498 -181.003s27.5 -100.167 47.5 -138.5s44 -67.666 72 -87.999s58.333 -30.5 91 -30.5s61.667 10.167 87 30.5s47.166 49 65.499 86s32.333 81.333 42 133
s14.5 109.834 14.5 174.501c0 62.667 -4.5 121 -13.5 175s-22.667 101 -41 141s-41.833 71.667 -70.5 95s-63 35 -103 35c-31.333 0 -59.666 -10.5 -84.999 -31.5s-47.166 -50.667 -65.499 -89s-32.666 -84.166 -42.999 -137.499s-15.5 -111.333 -15.5 -174z" />
    <glyph glyph-name="afii10049" unicode="&#x42f;" horiz-adv-x="1474" 
d="M59 0l-0.000976562 265.998h119l230 363c-65.333 35.333 -118.666 81.333 -159.999 138s-62 123.334 -62 200.001c0 58.667 7.16699 116 21.5 172s42 105.833 83 149.5s98.333 78.834 172 105.501s170.167 40 289.5 40h663v-271h-115v-893h115v-270h-659v270h125v279h-88
l-340 -549h-394zM587.999 978.998c0 -54.667 18.333 -96.668 55 -126.001s85 -44 145 -44h93v356h-103c-60 0 -106.667 -15.667 -140 -47s-50 -77.666 -50 -138.999z" />
    <glyph glyph-name="afii10065" unicode="&#x430;" horiz-adv-x="1228" 
d="M31 303c0 57.333 11.1641 109.165 33.4971 155.498s53 86 92 119s84.5 58.333 136.5 76s106.667 26.5 164 26.5c30 0 56.833 -3 80.5 -9s44.167 -13.167 61.5 -21.5s31 -16.666 41 -24.999s16.333 -13.833 19 -16.5v72c0 46.667 -18.333 77.5 -55 92.5
s-83 22.5 -139 22.5c-61.333 0 -117.666 -10.333 -168.999 -31s-96.666 -42 -135.999 -64l-86 238c20.667 12 46.667 26.333 78 43s66.333 32.834 105 48.501s80.334 28.5 125.001 38.5s90.667 15 138 15c61.333 0 124.833 -6.5 190.5 -19.5s125.5 -35.5 179.5 -67.5
s98.333 -75.333 133 -130s52 -122.667 52 -204v-400h123v-262h-438l-49 92c-19.333 -26 -41 -47.5 -65 -64.5s-48.5 -30.333 -73.5 -40s-49.833 -16.5 -74.5 -20.5s-46 -6 -64 -6c-49.333 0 -97.833 6.83301 -145.5 20.5s-90.667 34.167 -129 61.5s-69.333 62.5 -93 105.5
s-35.5 94.5 -35.5 154.5zM419.997 323.999c0 -28.667 10.1699 -52.001 30.5029 -70.001s46.166 -27 77.499 -27s58.666 7.5 81.999 22.5s39.666 30.167 48.999 45.5v78c-1.33301 2.66699 -4.33301 7 -9 13s-11.834 12.5 -21.501 19.5s-21.667 13.167 -36 18.5
s-32.166 8 -53.499 8c-40.667 0 -70.667 -10.167 -90 -30.5s-29 -46.166 -29 -77.499z" />
    <glyph glyph-name="afii10066" unicode="&#x431;" horiz-adv-x="1140" 
d="M63 0l-0.00195312 252h99v520h-99v252h1012v-383h-297v131h-264v-145h131c61.333 0 119.333 -6.5 174 -19.5s102.834 -32.167 144.501 -57.5s74.5 -56.833 98.5 -94.5s36 -81.5 36 -131.5c0 -44 -6.16699 -85.5 -18.5 -124.5s-35.666 -73.167 -69.999 -102.5
s-82.5 -52.833 -144.5 -70.5s-142.667 -26.5 -242 -26.5h-560zM513.998 250l83.999 0.000976562c50.667 0 90.667 7.16699 120 21.5s44 35.833 44 64.5c0 23.333 -15.667 41.166 -47 53.499s-71.666 18.5 -120.999 18.5h-80v-158z" />
    <glyph glyph-name="afii10067" unicode="&#x432;" horiz-adv-x="1153" 
d="M61 0v252.002h97v520h-97v250h611c135.333 0 235 -23.167 299 -69.5s96 -112.5 96 -198.5c0 -50.667 -5.5 -92.334 -16.5 -125.001s-30.167 -59.334 -57.5 -80.001c38 -22 69 -52.167 93 -90.5s36 -86.833 36 -145.5c0 -110.667 -34.5 -190.5 -103.5 -239.5
s-181.833 -73.5 -338.5 -73.5h-619zM494 252.002l131 -0.000976562c34 0 64.333 6.83301 91 20.5s40 32.834 40 57.501c0 23.333 -12 42.833 -36 58.5s-58 23.5 -102 23.5h-124v-160zM494 641.001l100 -0.000976562c44 0 73.5 5.83301 88.5 17.5s22.5 27.834 22.5 48.501
c0 19.333 -10.333 34.333 -31 45s-46.667 16 -78 16h-102v-127z" />
    <glyph glyph-name="afii10068" unicode="&#x433;" horiz-adv-x="1097" 
d="M63 0v252h95v520h-95v254h963v-424h-289v170h-221v-520h90v-252h-543z" />
    <glyph glyph-name="afii10069" unicode="&#x434;" horiz-adv-x="1447" 
d="M-57 -190l118 247.001v207c10.667 -2.66699 22 -5 34 -7s26.667 -3 44 -3c44 0 79 11.667 105 35s39 63.666 39 120.999v364h-150v250h1247v-250h-104v-524h104v-197l113 -243h-227l-215 190h-664l-213 -190h-231zM616 252.001h308v522h-285v-364
c0 -60 -7.66699 -112.667 -23 -158z" />
    <glyph glyph-name="afii10070" unicode="&#x435;" horiz-adv-x="1110" 
d="M10 518c0 83.333 14.334 158.171 43.001 224.504s67.667 122.666 117 168.999s107.333 81.5 174 105.5s139 36 217 36c84.667 0 159.5 -12.333 224.5 -37s119.333 -58.834 163 -102.501s76.334 -95.167 98.001 -154.5s32.5 -124 32.5 -194c0 -27.333 -2 -54.333 -6 -81
s-10 -51.334 -18 -74.001h-645c2.66699 -13.333 7 -29.666 13 -48.999s16.5 -37.833 31.5 -55.5s35.5 -32.667 61.5 -45s61 -18.5 105 -18.5c18 0 37.5 0.666992 58.5 2s43.667 5.33301 68 12s50.166 16.5 77.499 29.5s54.666 31.167 81.999 54.5l172 -199
c-76.667 -65.333 -157.167 -111.333 -241.5 -138s-179.833 -40 -286.5 -40c-64 0 -128.167 10.667 -192.5 32s-122 54.166 -173 98.499s-93 101.666 -126 171.999s-49.5 154.5 -49.5 252.5zM416.001 612.005h309.002c0 19.333 -2 38.833 -6 58.5s-11.167 37.5 -21.5 53.5
s-25.5 28.667 -45.5 38s-46.333 14 -79 14c-31.333 0 -56.833 -6.16699 -76.5 -18.5s-35.334 -27 -47.001 -44s-19.834 -35 -24.501 -54s-7.66699 -34.833 -9 -47.5z" />
    <glyph glyph-name="afii10072" unicode="&#x436;" horiz-adv-x="2136" 
d="M92 756l2 252.001c13.333 2.66699 33.166 5.66699 59.499 9s52.166 5 77.499 5c88.667 -1.33301 157.334 -13 206.001 -35s86.334 -48.333 113.001 -79s46.5 -64 59.5 -100s28 -69 45 -99s40.5 -55.333 70.5 -76s75.667 -31 137 -31v162h-123v248h592v-248h-123v-162
c61.333 0 107.166 10.333 137.499 31s54.333 46 72 76s33 63 46 99s32.833 69.333 59.5 100s63.834 57 111.501 79s115.834 33.667 204.501 35c27.333 0 54.333 -1.66699 81 -5s45.334 -6.33301 56.001 -9v-250c-9.33301 5.33301 -32.333 8 -69 8
c-45.333 0 -80.666 -6.16699 -105.999 -18.5s-45.833 -28 -61.5 -47s-28.167 -40.5 -37.5 -64.5s-21 -47 -35 -69l109.5 -167l109.5 -167v17h90v-250h-596v250h72l-30.5 55.5l-30.5 54.5v-16c-23.333 -5.33301 -52.833 -9.66602 -88.5 -12.999s-67.167 -5 -94.5 -5v-76h82
v-250h-510v250h82v76c-27.333 0 -58.333 1.66699 -93 5s-63.667 7.66602 -87 12.999v16l-61 -110h71v-250h-594v250h86v-17l111.5 167l112.5 169c-4 6.66699 -7.83301 14.167 -11.5 22.5s-6.83398 15.833 -9.50098 22.5v-2l-31.5 56.5
c-10.333 18.333 -23.333 34.666 -39 48.999s-35.834 26 -60.501 35s-55.334 13.5 -92.001 13.5c-35.333 0 -59.333 -3.33301 -72 -10z" />
    <glyph glyph-name="afii10073" unicode="&#x437;" horiz-adv-x="1140" 
d="M10 182l253.999 164c35.333 -23.333 74.5 -42.5 117.5 -57.5s97.5 -22.5 163.5 -22.5c61.333 0 108.666 5.5 141.999 16.5s50 27.5 50 49.5c0 20.667 -16.333 35.667 -49 45s-75 14 -127 14h-98v236h92c52 0 95.333 4.33301 130 13s52 21.334 52 38.001
c0 9.33301 -2 18.166 -6 26.499s-11.833 15.833 -23.5 22.5s-28 12.167 -49 16.5s-47.833 6.5 -80.5 6.5c-31.333 0 -58 -4.5 -80 -13.5s-40.5 -20.667 -55.5 -35s-27 -30 -36 -47s-16.167 -33.833 -21.5 -50.5h-305v408h258l49 -99v13c24.667 26 60.167 49.5 106.5 70.5
s103.833 31.5 172.5 31.5c147.333 0 255.833 -23.5 325.5 -70.5s104.5 -124.5 104.5 -232.5c0 -39.333 -10.667 -76.833 -32 -112.5s-43.666 -60.834 -66.999 -75.501c31.333 -20.667 61.333 -48.834 90 -84.501s43 -81.5 43 -137.5s-17 -104.833 -51 -146.5
s-78.667 -76 -134 -103s-118 -47.333 -188 -61s-141.333 -20.5 -214 -20.5c-49.333 0 -99.666 5.33301 -150.999 16s-100.5 25.334 -147.5 44.001s-91 39.834 -132 63.501s-75.167 48.5 -102.5 74.5z" />
    <glyph glyph-name="afii10074" unicode="&#x438;" horiz-adv-x="1523" 
d="M72 0v247.999h112v526h-108v248h573v-248h-114c0 -56 -1.16699 -111.667 -3.5 -167s-3.5 -111.666 -3.5 -168.999l122 140.5l131.5 151.5l131 151.5l121.5 140.5h412v-248h-98v-526h98v-248h-584v248h131v327l-246 -287.5l-245 -287.5h-430z" />
    <glyph glyph-name="afii10075" unicode="&#x439;" horiz-adv-x="1521" 
d="M72 0v247.999h112l4 526h-112v248h573v-248h-114c0 -56 -1.16699 -111.667 -3.5 -167s-3.5 -111.666 -3.5 -168.999l122 140.5l131.5 151.5l131 151.5l121.5 140.5h412v-248h-98v-526h98v-248h-584v248h131v327l-246 -287.5l-245 -287.5h-430zM352 1436h318
c6.66699 -44 19.5 -78.333 38.5 -103s41.5 -37 67.5 -37c27.333 0 49.166 13.333 65.499 40s28.166 60.667 35.499 102l317 2c-6.66699 -54.667 -22 -103.167 -46 -145.5s-54.5 -77.833 -91.5 -106.5s-79.667 -50.5 -128 -65.5s-99.166 -22.5 -152.499 -22.5
c-49.333 0 -97.833 6.83301 -145.5 20.5s-90.667 34.5 -129 62.5s-70.666 63.167 -96.999 105.5s-43.833 91.5 -52.5 147.5z" />
    <glyph glyph-name="afii10076" unicode="&#x43a;" horiz-adv-x="1456" 
d="M70 0l0.00390625 250h92v526h-92v248h589v-248h-139v-184c2.66699 5.33301 4 10.333 4 15s5.66699 7 17 7c62.667 0 109.667 10.333 141 31s56.166 46 74.499 76s34.666 63 48.999 99s36.666 69.5 66.999 100.5s73.333 57.333 129 79s133.5 33.167 233.5 34.5
c28.667 0 57.667 -1.66699 87 -5s51.666 -6.33301 66.999 -9l2 -252c-13.333 6.66699 -39.333 10 -78 10c-39.333 0 -72.833 -4.33301 -100.5 -13s-50.667 -20.167 -69 -34.5s-34 -30.833 -47 -49.5s-24.833 -37.334 -35.5 -56.001l-25 -43l244 -332h109v-250h-672v250h80
l-34 51.5c-12 17.667 -23.333 35.834 -34 54.501c-52 -12 -111.333 -18 -178 -18h-31v-88h94v-250h-544z" />
    <glyph glyph-name="afii10077" unicode="&#x43b;" horiz-adv-x="1447" 
d="M61 -4l-0.00292969 249.999c10.667 -2.66699 22 -5 34 -7s26.667 -3 44 -3c44 0 79.333 11.167 106 33.5s40 62.833 40 121.5v383h-152v250h1247v-252h-104v-522h104v-250h-555v252h99v520h-285v-381c0 -65.333 -8.5 -123.666 -25.5 -174.999s-44.667 -94.333 -83 -129
s-88.166 -61.167 -149.499 -79.5s-136.333 -27.5 -225 -27.5c-15.333 0 -31.166 1.66699 -47.499 5s-32.166 7 -47.499 11z" />
    <glyph glyph-name="afii10078" unicode="&#x43c;" horiz-adv-x="1871" 
d="M76 0v247.999h94v516h-92v248h643l184 -527l85 264.5l85 262.5h651v-248h-94v-514h94v-250h-544v250h98v452h-8v27c-35.333 -125.333 -73.833 -248.166 -115.5 -368.499l-126.5 -360.5h-340l-203 563v-4c0 4 -5 22.5 -15 55.5s-18.667 71.167 -26 114.5v-481h99v-248
h-469z" />
    <glyph glyph-name="afii10079" unicode="&#x43d;" horiz-adv-x="1372" 
d="M68 0v252h96v518h-96v252h559v-252h-107v-127h326v127h-101v252h560v-252h-101v-518h101v-252h-560v252h101v137h-326v-137h107v-252h-559z" />
    <glyph glyph-name="afii10080" unicode="&#x43e;" horiz-adv-x="1175" 
d="M23 516c0 86 16.001 162.165 48.001 228.498s74.167 122 126.5 167s112.333 79.167 180 102.5s136.5 35 206.5 35c80.667 0 155.667 -12.667 225 -38s129.666 -61.666 180.999 -108.999s91.333 -104.666 120 -171.999s43 -144 43 -230
c0 -84.667 -14.667 -159.5 -44 -224.5s-69.333 -120 -120 -165s-109.667 -79.167 -177 -102.5s-140 -35 -218 -35c-74 0 -145.5 11.333 -214.5 34s-130 56.5 -183 101.5s-95.167 101.667 -126.5 170s-47 147.5 -47 237.5zM442.001 513.998
c0 -84.667 14.332 -152.167 42.999 -202.5s65 -75.5 109 -75.5c22 0 41.5 6.66699 58.5 20s31.667 32.333 44 57s21.5 53.834 27.5 87.501s9 69.5 9 107.5s-3.33301 73.833 -10 107.5s-16.167 62.667 -28.5 87s-27.666 43.666 -45.999 57.999s-39.833 21.5 -64.5 21.5
c-20.667 0 -39.5 -6.83301 -56.5 -20.5s-31.667 -32.667 -44 -57s-22.333 -53 -30 -86s-11.5 -67.833 -11.5 -104.5z" />
    <glyph glyph-name="afii10081" unicode="&#x43f;" horiz-adv-x="1368" 
d="M68 0v252h96v518h-96v252h1237v-252h-101v-518h101v-252h-560v252h101v518h-326v-518h107v-252h-559z" />
    <glyph glyph-name="afii10082" unicode="&#x440;" 
d="M51 -150l85.999 -0.000976562v902h-86v272h469l35 -72c9.33301 6.66699 21.833 15.167 37.5 25.5s33.834 20 54.501 29s44 16.833 70 23.5s54.667 10 86 10c79.333 0 149.333 -14.333 210 -43s111.167 -67.5 151.5 -116.5s70.666 -106 90.999 -171
s30.5 -133.5 30.5 -205.5c0 -82 -12 -155.5 -36 -220.5s-56.667 -120 -98 -165s-90.666 -79.833 -147.999 -104.5s-119 -37 -185 -37c-42 0 -79.167 3.5 -111.5 10.5s-59 15.333 -80 25s-37.667 18.834 -50 27.501l-24.5 17v-207h111v-268h-613v268zM552.999 513.999
c0 -38 3.33301 -73.5 10 -106.5s16.5 -61.667 29.5 -86s28.833 -43.333 47.5 -57s38.667 -20.5 60 -20.5c44 0 79.333 23.167 106 69.5s40 108.5 40 186.5c0 30 -3.5 60.333 -10.5 91s-17 57.667 -30 81s-28.667 42.5 -47 57.5s-38.5 22.5 -60.5 22.5
c-38 0 -71.667 -21.167 -101 -63.5s-44 -100.5 -44 -174.5z" />
    <glyph glyph-name="afii10083" unicode="&#x441;" horiz-adv-x="1087" 
d="M2 518c0 90 14.001 168.167 42.001 234.5s65.167 121 111.5 164s100 74.667 161 95s124.167 30.5 189.5 30.5c34 0 65 -4 93 -12s52.667 -18.167 74 -30.5s39.5 -25.333 54.5 -39s26.5 -25.167 34.5 -34.5l35 98h241v-463h-301c-1.33301 24.667 -4.33301 49.667 -9 75
s-11.834 48.5 -21.501 69.5s-22.667 38 -39 51s-36.166 19.5 -59.499 19.5c-30 0 -56.167 -7.5 -78.5 -22.5s-41 -34.833 -56 -59.5s-26.333 -52.667 -34 -84s-11.5 -63.333 -11.5 -96c0 -69.333 19.167 -127 57.5 -173s91.5 -69 159.5 -69c52 0 97.167 10.667 135.5 32
s73.833 49.666 106.5 84.999l180 -209c-24.667 -26 -54 -51.5 -88 -76.5s-72.5 -47.167 -115.5 -66.5s-89.833 -35.166 -140.5 -47.499s-103.334 -18.5 -158.001 -18.5c-75.333 0 -147 11.333 -215 34s-127.667 56.834 -179 102.501s-92.333 102.667 -123 171
s-46 148.166 -46 239.499z" />
    <glyph glyph-name="afii10084" unicode="&#x442;" horiz-adv-x="1302" 
d="M51 600v424h1153v-424h-252v172h-147v-518h145v-254h-641v254h144v518h-150v-172h-252z" />
    <glyph glyph-name="afii10085" unicode="&#x443;" horiz-adv-x="1187" 
d="M-18 762l-0.000976562 262.002h630v-260h-96l133 -320l133 320h-94v260h520v-254h-98l-389 -946c-15.333 -32.667 -32.833 -66.167 -52.5 -100.5s-45.834 -65.5 -78.501 -93.5s-74 -50.833 -124 -68.5s-111.667 -26.5 -185 -26.5
c-53.333 2.66699 -100.166 13.667 -140.499 33s-76.166 42.666 -107.499 69.999l153 241c19.333 -18 41 -34.5 65 -49.5s47.667 -22.5 71 -22.5c27.333 0 50.833 11.667 70.5 35s34.167 48.666 43.5 75.999l29 86l-399 758h-84z" />
    <glyph glyph-name="afii10086" unicode="&#x444;" horiz-adv-x="1511" 
d="M23 516c0 83.333 15.332 157.833 45.999 223.5s71.167 121 121.5 166s108.333 79.333 174 103s132.5 37.167 200.5 40.5v223h-86v264h475v-489c78 -2.66699 150.167 -17 216.5 -43s124 -62.333 173 -109s87.167 -103 114.5 -169s41 -141.333 41 -226
c0 -83.333 -14.333 -157.166 -43 -221.499s-67.5 -119 -116.5 -164s-106.667 -79.5 -173 -103.5s-137.166 -36.667 -212.499 -38v-213h121v-268h-598v268h88v215c-72.667 2.66699 -141.334 16 -206.001 40s-122.167 58.5 -172.5 103.5s-90.166 100.667 -119.499 167
s-44 143.166 -44 230.499zM441.999 514c0 -75.333 11.3311 -137.5 33.998 -186.5s52.334 -78.833 89.001 -89.5v542c-35.333 -8 -64.666 -37 -87.999 -87s-35 -109.667 -35 -179zM953.997 236c39.333 6.66699 70 35.167 92 85.5s33 112.5 33 186.5
c0 69.333 -10.833 129 -32.5 179s-52.5 80.333 -92.5 91v-542z" />
    <glyph glyph-name="afii10087" unicode="&#x445;" horiz-adv-x="1290" 
d="M63 0v311.001h138c16.667 18 31 34.5 43 49.5l35.5 43l37 42l43.5 48.5l-100 108l-100 109h-97v313h615v-313h-31l74 -80c12 12 22.833 23.5 32.5 34.5s24.834 26.167 45.501 45.5h-37v313h457v-313h-138l-44 -45.5l-37.5 -39l-38 -38l-43.5 -43.5l102 -116.5l102 -117.5
h99v-311h-605v311h29c-15.333 15.333 -29.333 30.166 -42 44.499s-26.667 28.833 -42 43.5v2l-24.5 -27c-5.66699 -6 -10.834 -11.833 -15.501 -17.5l-15 -17.5l-25 -28h37v-311h-455z" />
    <glyph glyph-name="afii10088" unicode="&#x446;" horiz-adv-x="1372" 
d="M70 0v252h102v520h-102v252h561v-252h-103v-520h328v520h-106v252h557v-252h-93v-520h93v-191l118 -251h-231l-215 190h-909z" />
    <glyph glyph-name="afii10089" unicode="&#x447;" 
d="M31 770v252.002h540v-252h-82v-172c0 -23.333 15.5 -41.5 46.5 -54.5s72.167 -19.5 123.5 -19.5h115v248h-72v250h521v-250h-99v-520h99v-252h-553v252h104v51h-192c-61.333 0 -119.333 6.16699 -174 18.5s-102.5 31.166 -143.5 56.499s-73.5 56.666 -97.5 93.999
s-36 81.333 -36 132v166h-100z" />
    <glyph glyph-name="afii10090" unicode="&#x448;" horiz-adv-x="2035" 
d="M84 0v252h100v508h-100v252h561v-252h-102v-508h303v508h-101v252h558v-252h-99v-508h324v508h-105v252h559v-252h-96v-508h96v-252h-1898z" />
    <glyph glyph-name="afii10091" unicode="&#x449;" horiz-adv-x="2041" 
d="M86 0v252h100v520h-100v252h561v-252h-102v-520h303v520h-100v252h557v-252h-99v-520h324v520h-105v252h560v-252h-97v-520h97v-195l118 -247h-231l-215 190h-1571z" />
    <glyph glyph-name="afii10092" unicode="&#x44a;" horiz-adv-x="1402" 
d="M55 653l0.000976562 371h850v-252h-104v-145h127c61.333 0 119.666 -6.5 174.999 -19.5s103.5 -32.167 144.5 -57.5s73.667 -56.833 98 -94.5s36.5 -81.5 36.5 -131.5c0 -44 -6 -85.5 -18 -124.5s-35.5 -73.167 -70.5 -102.5s-83.5 -52.833 -145.5 -70.5
s-143 -26.5 -243 -26.5h-557v252h96v520h-92v-119h-297zM801.001 250l84.001 0.000976562c50.667 0 89.5 7.16699 116.5 21.5s40.5 35.833 40.5 64.5c0 23.333 -15.333 41.166 -46 53.499s-71.334 18.5 -122.001 18.5h-73v-158z" />
    <glyph glyph-name="afii10093" unicode="&#x44b;" horiz-adv-x="1802" 
d="M76 0l-0.00195312 252h98v520h-98v252h555v-252h-105v-145h131c61.333 0 119.333 -6.5 174 -19.5s102.834 -32.167 144.501 -57.5s74.5 -56.833 98.5 -94.5s36 -81.5 36 -131.5c0 -44 -6.16699 -85.5 -18.5 -124.5s-35.5 -73.167 -69.5 -102.5
s-82.167 -52.833 -144.5 -70.5s-143.166 -26.5 -242.499 -26.5h-559zM525.998 250l83.999 0.000976562c50.667 0 90.667 7.16699 120 21.5s44 35.833 44 64.5c0 23.333 -15.667 41.166 -47 53.499s-71.666 18.5 -120.999 18.5h-80v-158zM1153 0.000976562v254h113v518h-113
v252h576v-252h-109v-518h109v-254h-576z" />
    <glyph glyph-name="afii10094" unicode="&#x44c;" horiz-adv-x="1107" 
d="M63 0l-0.00195312 252h99v520h-99v252h555v-252h-104v-145h131c61.333 0 119.333 -6.5 174 -19.5s102.834 -32.167 144.501 -57.5s74.5 -56.833 98.5 -94.5s36 -81.5 36 -131.5c0 -44 -6.16699 -85.5 -18.5 -124.5s-35.666 -73.167 -69.999 -102.5
s-82.5 -52.833 -144.5 -70.5s-142.667 -26.5 -242 -26.5h-560zM513.998 250l83.999 0.000976562c50.667 0 90.667 7.16699 120 21.5s44 35.833 44 64.5c0 23.333 -15.667 41.166 -47 53.499s-71.666 18.5 -120.999 18.5h-80v-158z" />
    <glyph glyph-name="afii10095" unicode="&#x44d;" horiz-adv-x="1187" 
d="M16 207l232 199.002l8 -9v2c6.66699 -6.66699 17.5 -16.167 32.5 -28.5s33.833 -25 56.5 -38s49 -24.167 79 -33.5s63.333 -14 100 -14c50.667 0 94.167 8.83301 130.5 26.5s63.833 40.834 82.5 69.501c-28.667 -10.667 -57.334 -16 -86.001 -16
c-18 0 -32.667 2.33301 -44 7l-35.5 14c-12.333 4.66699 -26.666 9.5 -42.999 14.5s-38.833 7.5 -67.5 7.5c-44 0 -76 -8.33301 -96 -25l-78 158c31.333 31.333 60.666 55.166 87.999 71.499s58 24.5 92 24.5c18 0 33.333 -2 46 -6s25.5 -8.5 38.5 -13.5
s28.167 -9.5 45.5 -13.5s38 -6 62 -6c19.333 0 37.166 1 53.499 3s28.833 5 37.5 9c-15.333 35.333 -38.333 63.666 -69 84.999s-68 32 -112 32c-50.667 0 -92.334 -5.83301 -125.001 -17.5s-54.334 -30.5 -65.001 -56.5h-297v359h258l49 -99v9
c4 5.33301 12.5 14.166 25.5 26.499s30.833 24.666 53.5 36.999s49.334 22.833 80.001 31.5s66.334 13 107.001 13c57.333 0 116.5 -12.333 177.5 -37s117 -59.834 168 -105.501s93 -101.167 126 -166.5s49.5 -139.666 49.5 -222.999c0 -80.667 -14.333 -153.167 -43 -217.5
s-69.667 -118.666 -123 -162.999s-117.166 -78.333 -191.499 -102s-157.5 -35.5 -249.5 -35.5c-110.667 0 -212.667 22.5 -306 67.5s-175.666 98.167 -246.999 159.5z" />
    <glyph glyph-name="afii10096" unicode="&#x44e;" horiz-adv-x="1839" 
d="M68 0l-0.000976562 251.998h96v518h-96v252h559v-252h-107v-127h191c15.333 65.333 40.666 123.333 75.999 174s77.5 93 126.5 127s103.167 60 162.5 78s119.666 27 180.999 27c80.667 0 155.834 -12.667 225.501 -38s130.167 -61.666 181.5 -108.999
s91.333 -104.666 120 -171.999s43 -144 43 -230c0 -84.667 -14.667 -159.5 -44 -224.5s-69.333 -120 -120 -165s-109.667 -79.167 -177 -102.5s-140 -35 -218 -35c-64 0 -126.833 8.66699 -188.5 26s-117.667 43.333 -168 78s-93.666 78 -129.999 130
s-61.166 112.667 -74.499 182h-187v-137h107v-252h-559zM1116 513.998c0 -84.667 14.335 -152.167 43.002 -202.5s65 -75.5 109 -75.5c22 0 41.5 6.66699 58.5 20s31.667 32.333 44 57s21.5 53.834 27.5 87.501s9 69.5 9 107.5s-3.5 73.833 -10.5 107.5
s-16.5 62.667 -28.5 87s-27.333 43.666 -46 57.999s-40.334 21.5 -65.001 21.5c-20.667 0 -39.334 -6.83301 -56.001 -20.5s-31.167 -32.667 -43.5 -57s-22.333 -53 -30 -86s-11.5 -67.833 -11.5 -104.5z" />
    <glyph glyph-name="afii10097" unicode="&#x44f;" horiz-adv-x="1253" 
d="M76 0l0.000976562 250.002h98v-12l43.5 51l36.5 43.5l36.5 45l41.5 52.5c-44 24.667 -80.333 57.5 -109 98.5s-43 88.167 -43 141.5c0 42 6.16699 84.167 18.5 126.5s35.5 80.666 69.5 114.999s82.167 61.666 144.5 81.999s143.166 30.5 242.499 30.5h557v-252h-96v-520
h96v-252h-553v252h105v108h-74v15l-147.5 -187.5l-147.5 -187.5h-319zM518.001 688.002c0 -23.333 15.332 -43.168 45.999 -59.501s71.334 -24.5 122.001 -24.5h78v168h-84c-52 0 -92 -7.16699 -120 -21.5s-42 -35.166 -42 -62.499z" />
    <glyph glyph-name="uni0450" unicode="&#x450;" horiz-adv-x="1110" 
d="M10 518c0 83.333 14.334 158.171 43.001 224.504s67.667 122.666 117 168.999s107.333 81.5 174 105.5s139 36 217 36c84.667 0 159.5 -12.333 224.5 -37s119.333 -58.834 163 -102.501s76.334 -95.167 98.001 -154.5s32.5 -124 32.5 -194c0 -27.333 -2 -54.333 -6 -81
s-10 -51.334 -18 -74.001h-645c2.66699 -13.333 7 -29.666 13 -48.999s16.5 -37.833 31.5 -55.5s35.5 -32.667 61.5 -45s61 -18.5 105 -18.5c18 0 37.5 0.666992 58.5 2s43.667 5.33301 68 12s50.166 16.5 77.499 29.5s54.666 31.167 81.999 54.5l172 -199
c-76.667 -65.333 -157.167 -111.333 -241.5 -138s-179.833 -40 -286.5 -40c-64 0 -128.167 10.667 -192.5 32s-122 54.166 -173 98.499s-93 101.666 -126 171.999s-49.5 154.5 -49.5 252.5zM147.001 1436h406l160 -291h-256zM416.001 612.005h309.002
c0 19.333 -2 38.833 -6 58.5s-11.167 37.5 -21.5 53.5s-25.5 28.667 -45.5 38s-46.333 14 -79 14c-31.333 0 -56.833 -6.16699 -76.5 -18.5s-35.334 -27 -47.001 -44s-19.834 -35 -24.501 -54s-7.66699 -34.833 -9 -47.5z" />
    <glyph glyph-name="afii10071" unicode="&#x451;" horiz-adv-x="1110" 
d="M10 518c0 83.333 14.334 158.171 43.001 224.504s67.667 122.666 117 168.999s107.333 81.5 174 105.5s139 36 217 36c84.667 0 159.5 -12.333 224.5 -37s119.333 -58.834 163 -102.501s76.334 -95.167 98.001 -154.5s32.5 -124 32.5 -194c0 -27.333 -2 -54.333 -6 -81
s-10 -51.334 -18 -74.001h-645c2.66699 -13.333 7 -29.666 13 -48.999s16.5 -37.833 31.5 -55.5s35.5 -32.667 61.5 -45s61 -18.5 105 -18.5c18 0 37.5 0.666992 58.5 2s43.667 5.33301 68 12s50.166 16.5 77.499 29.5s54.666 31.167 81.999 54.5l172 -199
c-76.667 -65.333 -157.167 -111.333 -241.5 -138s-179.833 -40 -286.5 -40c-64 0 -128.167 10.667 -192.5 32s-122 54.166 -173 98.499s-93 101.666 -126 171.999s-49.5 154.5 -49.5 252.5zM51.001 1323c0 23.333 4.83594 47.3301 14.5029 71.9971s23.667 47.167 42 67.5
s41.5 37 69.5 50s59.667 19.5 95 19.5s67.166 -6.5 95.499 -19.5s52 -29.667 71 -50s33.667 -42.833 44 -67.5s15.5 -48.667 15.5 -72c0 -57.333 -19.167 -106.166 -57.5 -146.499s-94.5 -60.5 -168.5 -60.5c-32.667 0 -62.334 6.16699 -89.001 18.5
s-49.834 28.333 -69.501 48s-35 41.834 -46 66.501s-16.5 49.334 -16.5 74.001zM416.004 612.002h309.002c0 19.333 -2 38.833 -6 58.5s-11.167 37.5 -21.5 53.5s-25.5 28.667 -45.5 38s-46.333 14 -79 14c-31.333 0 -56.833 -6.16699 -76.5 -18.5s-35.334 -27 -47.001 -44
s-19.834 -35 -24.501 -54s-7.66699 -34.833 -9 -47.5zM614.006 1323c0 23.333 4.83301 47.3301 14.5 71.9971s23.667 47.167 42 67.5s41.5 37 69.5 50s60 19.5 96 19.5c35.333 0 67 -6.5 95 -19.5s51.5 -29.667 70.5 -50s33.667 -42.833 44 -67.5s15.5 -48.667 15.5 -72
c0 -57.333 -19.167 -106.166 -57.5 -146.499s-94.166 -60.5 -167.499 -60.5c-32.667 0 -62.334 6.16699 -89.001 18.5s-50 28.333 -70 48s-35.5 41.834 -46.5 66.501s-16.5 49.334 -16.5 74.001z" />
    <glyph glyph-name="afii10099" unicode="&#x452;" horiz-adv-x="1372" 
d="M59 1098v157.001h97v101h-86v180h495v-281h406v-157h-406v-201c5.33301 9.33301 18.333 23 39 41s45.667 36.167 75 54.5s62 34.333 98 48s72.667 20.5 110 20.5c79.333 0 142.5 -13.333 189.5 -40s83.167 -61.5 108.5 -104.5s41.666 -91.5 48.999 -145.5
s11 -107.667 11 -161v-467c0 -64 -8.83301 -129.5 -26.5 -196.5s-51.167 -128.5 -100.5 -184.5s-117 -101.667 -203 -137s-197 -53 -333 -53v274c52 0 93.333 8.66699 124 26s53.834 38.5 69.501 63.5s26.167 52.5 31.5 82.5s8 58 8 84v455c0 18 -0.666992 37.833 -2 59.5
s-5.83301 42.167 -13.5 61.5s-19.667 35.833 -36 49.5s-39.5 20.5 -69.5 20.5c-26 0 -47.5 -5.83301 -64.5 -17.5s-30.333 -26.834 -40 -45.501s-16.167 -39.167 -19.5 -61.5s-5 -44.5 -5 -66.5v-289h148v-268h-643v268h86v830h-97z" />
    <glyph glyph-name="afii10100" unicode="&#x453;" horiz-adv-x="1097" 
d="M63 0v252h95v520h-95v254h963v-424h-289v170h-221v-520h90v-252h-543zM475 1139l160 291h405l-309 -291h-256z" />
    <glyph glyph-name="afii10101" unicode="&#x454;" horiz-adv-x="1120" 
d="M31 504c0 86 15.6699 163.171 47.0029 231.504s70.833 126 118.5 173s100.5 83.167 158.5 108.5s113.667 38 167 38c39.333 0 73.833 -4.5 103.5 -13.5s54.667 -19.333 75 -31s36 -22.834 47 -33.501s18.5 -19 22.5 -25l37 84h254v-313h-289c-24.667 52 -82 78 -172 78
c-44 0 -81 -16 -111 -48s-51.667 -73.333 -65 -124c23.333 13.333 53.333 20 90 20c20.667 0 38.167 -2.33301 52.5 -7s27.666 -9.83398 39.999 -15.501s25.333 -10.834 39 -15.501s29.834 -7 48.501 -7c19.333 0 37.833 3.83301 55.5 11.5s31.5 16.834 41.5 27.501l59 -141
c-19.333 -23.333 -42 -41.5 -68 -54.5s-57.333 -19.5 -94 -19.5c-20.667 0 -37.834 2.33301 -51.501 7s-26.5 10.167 -38.5 16.5s-24.833 12.166 -38.5 17.499s-30.834 8 -51.501 8c-32.667 0 -63.334 -13 -92.001 -39h-2c10.667 -60 35.5 -111.167 74.5 -153.5
s91.167 -63.5 156.5 -63.5c34 0 65.667 7.16699 95 21.5s55.333 30 78 47s41.167 33.333 55.5 49s23.5 25.834 27.5 30.501l189 -191c-27.333 -27.333 -58.166 -54 -92.499 -80s-72 -48.5 -113 -67.5s-85.333 -34.333 -133 -46s-98.167 -17.5 -151.5 -17.5
c-86 0 -163.833 12.333 -233.5 37s-129.334 60.167 -179.001 106.5s-88.167 102.666 -115.5 168.999s-41 141.166 -41 224.499z" />
    <glyph glyph-name="afii10102" unicode="&#x455;" horiz-adv-x="1040" 
d="M31 0l-0.00292969 369.002h274c0 -27.333 8.5 -50 25.5 -68s37.167 -32 60.5 -42s47.333 -17.167 72 -21.5s44.334 -6.5 59.001 -6.5c20.667 0 40.834 4.5 60.501 13.5s29.5 27.833 29.5 56.5c0 19.333 -14 34.833 -42 46.5s-63.5 22.834 -106.5 33.501
s-89 23.5 -138 38.5s-95 35.833 -138 62.5s-78.5 61.5 -106.5 104.5s-42 98.167 -42 165.5c0 52 12 96.667 36 134s54 68 90 92s74.833 41.833 116.5 53.5s80.834 17.5 117.501 17.5c69.333 0 132.166 -15.833 188.499 -47.5s95.5 -69.167 117.5 -112.5l16 135h252v-369
h-266c0 22 -6.16699 42.167 -18.5 60.5s-28.5 34.666 -48.5 48.999s-42.167 25.666 -66.5 33.999s-49.5 12.5 -75.5 12.5c-22 0 -40.833 -5.83301 -56.5 -17.5s-23.5 -30.5 -23.5 -56.5c0 -23.333 14.333 -41.666 43 -54.999s64.5 -26.5 107.5 -39.5l140 -43.5
c50.333 -16 97 -36.833 140 -62.5s78.833 -58.667 107.5 -99s43 -91.833 43 -154.5c0 -48 -10.5 -91.167 -31.5 -129.5s-49 -70.833 -84 -97.5s-75.667 -46.834 -122 -60.501s-94.166 -20.5 -143.499 -20.5c-74 0 -138.5 15.167 -193.5 45.5s-94.833 65.166 -119.5 104.499
l-18 -125h-256z" />
    <glyph glyph-name="afii10103" unicode="&#x456;" horiz-adv-x="675" 
d="M51 0v268h86v490h-86v266h475v-756h99v-268h-574zM109 1323c0 23.333 4.66602 47.3301 13.999 71.9971s23.333 47.167 42 67.5s41.834 37 69.501 50s59.5 19.5 95.5 19.5c35.333 0 67 -6.5 95 -19.5s51.5 -29.667 70.5 -50s33.667 -42.833 44 -67.5
s15.5 -48.667 15.5 -72c0 -57.333 -19.167 -106.166 -57.5 -146.499s-94.166 -60.5 -167.499 -60.5c-32.667 0 -62.334 6.16699 -89.001 18.5s-50 28.333 -70 48s-35.333 41.834 -46 66.501s-16 49.334 -16 74.001z" />
    <glyph glyph-name="afii10104" unicode="&#x457;" horiz-adv-x="675" 
d="M-166 1323c0 23.333 4.83594 47.3301 14.5029 71.9971s23.667 47.167 42 67.5s41.5 37 69.5 50s59.667 19.5 95 19.5s67.166 -6.5 95.499 -19.5s52 -29.667 71 -50s33.667 -42.833 44 -67.5s15.5 -48.667 15.5 -72c0 -57.333 -19.167 -106.166 -57.5 -146.499
s-94.5 -60.5 -168.5 -60.5c-32.667 0 -62.334 6.16699 -89.001 18.5s-49.834 28.333 -69.501 48s-35 41.834 -46 66.501s-16.5 49.334 -16.5 74.001zM51.0029 -0.00292969v268h86v490h-86v266h475v-756h99v-268h-574zM397.003 1323
c0 23.333 4.83594 47.3301 14.5029 71.9971s23.667 47.167 42 67.5s41.5 37 69.5 50s59.667 19.5 95 19.5s67.166 -6.5 95.499 -19.5s52 -29.667 71 -50s33.667 -42.833 44 -67.5s15.5 -48.667 15.5 -72c0 -57.333 -19.167 -106.166 -57.5 -146.499
s-94.5 -60.5 -168.5 -60.5c-32.667 0 -62.334 6.16699 -89.001 18.5s-49.834 28.333 -69.501 48s-35 41.834 -46 66.501s-16.5 49.334 -16.5 74.001z" />
    <glyph glyph-name="afii10105" unicode="&#x458;" horiz-adv-x="737" 
d="M29 -154c58.667 0 104.001 11 136.001 33s55.167 48.333 69.5 79s22.5 63 24.5 97s3 63.333 3 88v615h-86v266h475v-881c0 -64 -6.83301 -129.5 -20.5 -196.5s-42.334 -128.5 -86.001 -184.5s-106.5 -101.667 -188.5 -137s-191 -53 -327 -53v274zM233.001 1323
c0 23.333 4.83301 47.3301 14.5 71.9971s23.667 47.167 42 67.5s41.5 37 69.5 50s60 19.5 96 19.5c35.333 0 67 -6.5 95 -19.5s51.5 -29.667 70.5 -50s33.667 -42.833 44 -67.5s15.5 -48.667 15.5 -72c0 -57.333 -19.167 -106.166 -57.5 -146.499
s-94.166 -60.5 -167.499 -60.5c-32.667 0 -62.334 6.16699 -89.001 18.5s-50 28.333 -70 48s-35.5 41.834 -46.5 66.501s-16.5 49.334 -16.5 74.001z" />
    <glyph glyph-name="afii10106" unicode="&#x459;" horiz-adv-x="1732" 
d="M61 -4v249.999c10.667 -2.66699 22 -5 34 -7s26.667 -3 44 -3c44 0 79.333 11.167 106 33.5s40 62.833 40 121.5v383h-152v250h1131v-252h-105v-145h131c61.333 0 117.666 -6.5 168.999 -19.5s95.166 -32.167 131.499 -57.5s64.666 -56.833 84.999 -94.5
s30.5 -81.5 30.5 -131.5c0 -44 -4.16699 -85.5 -12.5 -124.5s-27.5 -73.167 -57.5 -102.5s-74 -52.833 -132 -70.5s-136.667 -26.5 -236 -26.5h-559v252h98v520h-168v-381c0 -65.333 -8.5 -123.666 -25.5 -174.999s-44.667 -94.333 -83 -129s-88.166 -61.167 -149.499 -79.5
s-136.333 -27.5 -225 -27.5c-15.333 0 -31.166 1.66699 -47.499 5s-32.166 7 -47.499 11zM1159 249.999l84 0.000976562c50.667 0 84.5 7.16699 101.5 21.5s25.5 35.833 25.5 64.5c0 23.333 -9.5 41.166 -28.5 53.499s-53.167 18.5 -102.5 18.5h-80v-158z" />
    <glyph glyph-name="afii10107" unicode="&#x45a;" horiz-adv-x="1785" 
d="M68 0v252h96v518h-96v252h559v-252h-107v-143h326v143h-101v252h562v-250h-103v-145h129c61.333 0 118.333 -6.5 171 -19.5s98.5 -32.5 137.5 -58.5s69.333 -58.167 91 -96.5s32.5 -82.833 32.5 -133.5c0 -44 -5 -85 -15 -123s-30.833 -71.667 -62.5 -101
s-77.5 -52.5 -137.5 -69.5s-139.667 -25.5 -239 -25.5h-566v252h101v154h-326v-154h107v-252h-559zM1204 252l101 0.000976562v-2c83.333 1.33301 125 28.666 125 81.999c0 23.333 -12.333 41.833 -37 55.5s-61.667 20.5 -111 20.5h-78v-156z" />
    <glyph glyph-name="afii10108" unicode="&#x45b;" horiz-adv-x="1372" 
d="M59 1098l0.000976562 157.001h97v101h-86v180h495v-281h406v-157h-406v-201c5.33301 9.33301 18.333 23 39 41s45.667 36.167 75 54.5s62 34.333 98 48s72.667 20.5 110 20.5c79.333 0 142.5 -13.333 189.5 -40s83.167 -61.5 108.5 -104.5s41.666 -91.5 48.999 -145.5
s11 -107.667 11 -161v-342h96v-268h-526v557c0 18 -0.666992 37.833 -2 59.5s-5.83301 42.167 -13.5 61.5s-19.667 35.833 -36 49.5s-39.5 20.5 -69.5 20.5c-26 0 -47.5 -5.83301 -64.5 -17.5s-30.333 -26.834 -40 -45.501s-16.167 -39.167 -19.5 -61.5s-5 -44.5 -5 -66.5
v-289h148v-268h-643v268h86v830h-97z" />
    <glyph glyph-name="afii10109" unicode="&#x45c;" horiz-adv-x="1456" 
d="M70 0l0.00390625 250h92v526h-92v248h589v-248h-139v-184c2.66699 5.33301 4 10.333 4 15s5.66699 7 17 7c62.667 0 109.667 10.333 141 31s56.166 46 74.499 76s34.666 63 48.999 99s36.666 69.5 66.999 100.5s73.333 57.333 129 79s133.5 33.167 233.5 34.5
c28.667 0 57.667 -1.66699 87 -5s51.666 -6.33301 66.999 -9l2 -252c-13.333 6.66699 -39.333 10 -78 10c-39.333 0 -72.833 -4.33301 -100.5 -13s-50.667 -20.167 -69 -34.5s-34 -30.833 -47 -49.5s-24.833 -37.334 -35.5 -56.001l-25 -43l244 -332h109v-250h-672v250h80
l-34 51.5c-12 17.667 -23.333 35.834 -34 54.501c-52 -12 -111.333 -18 -178 -18h-31v-88h94v-250h-544zM641.004 1139l160 291h405l-309 -291h-256z" />
    <glyph glyph-name="uni045D" unicode="&#x45d;" horiz-adv-x="1507" 
d="M72 0v247.999h112v526h-108v248h573v-248h-114c0 -56 -1.16699 -111.667 -3.5 -167s-3.5 -111.666 -3.5 -168.999l122 140.5l131.5 151.5l131 151.5l121.5 140.5h412v-248h-98v-526h98v-248h-584v248h131v327l-246 -287.5l-245 -287.5h-430zM410 1436h405l160 -291h-256z
" />
    <glyph glyph-name="afii10110" unicode="&#x45e;" horiz-adv-x="1187" 
d="M-18 762l-0.000976562 262.002h630v-260h-96l133 -320l133 320h-94v260h520v-254h-98l-389 -946c-15.333 -32.667 -32.833 -66.167 -52.5 -100.5s-45.834 -65.5 -78.501 -93.5s-74 -50.833 -124 -68.5s-111.667 -26.5 -185 -26.5
c-53.333 2.66699 -100.166 13.667 -140.499 33s-76.166 42.666 -107.499 69.999l153 241c19.333 -18 41 -34.5 65 -49.5s47.667 -22.5 71 -22.5c27.333 0 50.833 11.667 70.5 35s34.167 48.666 43.5 75.999l29 86l-399 758h-84zM222.999 1436h318
c6.66699 -44 19.5 -78.333 38.5 -103s41.5 -37 67.5 -37c27.333 0 49.166 13.333 65.499 40s28.166 60.667 35.499 102l317 2c-6.66699 -54.667 -22 -103.167 -46 -145.5s-54.5 -77.833 -91.5 -106.5s-79.667 -50.5 -128 -65.5s-99.166 -22.5 -152.499 -22.5
c-49.333 0 -97.833 6.83301 -145.5 20.5s-90.667 34.5 -129 62.5s-70.666 63.167 -96.999 105.5s-43.833 91.5 -52.5 147.5z" />
    <glyph glyph-name="afii10193" unicode="&#x45f;" horiz-adv-x="1396" 
d="M84 0v252h100v508h-100v252h561v-252h-102v-508h303v508h-101v252h558v-252h-99v-508h101v-252h-420l-99 -297h-198l-86 297h-418z" />
    <glyph glyph-name="afii10050" unicode="&#x490;" horiz-adv-x="1249" 
d="M51 0v270h113v889h-113v273h803v260h344v-533h-608v-889h108v-270h-647z" />
    <glyph glyph-name="afii10098" unicode="&#x491;" horiz-adv-x="1097" 
d="M63 0v252h95v520h-95v254h674v170h289v-424h-510v-520h90v-252h-543z" />
    <glyph glyph-name="uni0492" unicode="&#x492;" horiz-adv-x="1249" 
d="M51 0v270h113v521h-113v196h113v172h-113v273h1147v-533h-344v260h-264v-172h137v-196h-137v-521h108v-270h-647z" />
    <glyph glyph-name="uni0493" unicode="&#x493;" horiz-adv-x="1097" 
d="M63 0v252h95v199h-95v196h95v125h-95v254h963v-424h-289v170h-221v-125h111v-196h-111v-199h90v-252h-543z" />
    <glyph glyph-name="uni0494" unicode="&#x494;" horiz-adv-x="1249" 
d="M51 0l0.00195312 269.999h113v889h-113v273h1147v-455h-344v182h-264v-459c35.333 48 76.166 87 122.499 117s102.5 45 168.5 45c79.333 0 143.5 -13.333 192.5 -40s86.833 -61.167 113.5 -103.5s44.667 -90.333 54 -144s14 -107.167 14 -160.5v-281
c0 -90 -10.167 -169.5 -30.5 -238.5s-53.333 -126.667 -99 -173s-105.334 -81.166 -179.001 -104.499s-163.167 -35 -268.5 -35c-19.333 0 -38.166 2 -56.499 6s-35.166 9.66699 -50.499 17l-2 270c26 -12 57 -18 93 -18c48 0 87.5 19.333 118.5 58s47.833 106.667 50.5 204
v241c0 18 -0.333008 38 -1 60s-4.33398 42.5 -11.001 61.5s-17.834 35.333 -33.501 49s-38.5 20.5 -68.5 20.5c-44 0 -75.167 -14.667 -93.5 -44s-29.5 -62.333 -33.5 -99v-138h108v-270h-647z" />
    <glyph glyph-name="uni0495" unicode="&#x495;" horiz-adv-x="1159" 
d="M63 0l0.000976562 252.001h95v1026h-95v254h963v-389h-289v135h-221v-346c5.33301 9.33301 15.833 20.833 31.5 34.5s35.5 26.667 59.5 39s51.667 23 83 32s65.666 13.5 102.999 13.5c68 0 122.5 -14.667 163.5 -44s72.333 -67 94 -113s36 -97 43 -153
s10.5 -110.333 10.5 -163v-433c0 -64 -8.5 -129.5 -25.5 -196.5s-47 -128.333 -90 -184s-101.5 -101.334 -175.5 -137.001s-166.667 -53.5 -278 -53.5v274c52 0 91.5 8.66699 118.5 26s46.667 38.5 59 63.5s19.5 52.667 21.5 83s3 58.166 3 83.499v445
c0 10.667 0.666992 24.167 2 40.5s2 33.5 2 51.5s-1 35.5 -3 52.5s-6.33301 32.333 -13 46s-16.167 24.5 -28.5 32.5s-28.833 12 -49.5 12c-23.333 0 -42.833 -8.5 -58.5 -25.5s-28.5 -37.833 -38.5 -62.5s-17.833 -50.167 -23.5 -76.5s-9.16699 -49.166 -10.5 -68.499v-299
h90v-252h-543z" />
    <glyph glyph-name="uni0496" unicode="&#x496;" horiz-adv-x="2355" 
d="M63 1151l3.00293 272.001c13.333 5.33301 35 10.166 65 14.499s62 6.5 96 6.5c84.667 -1.33301 154.334 -11.666 209.001 -30.999s99.167 -44.333 133.5 -75s61 -65 80 -103s34.667 -76.833 47 -116.5l35 -116c11 -37.667 26 -71.5 45 -101.5s44.167 -53.833 75.5 -71.5
s73.666 -26.5 126.999 -26.5v364h-145v265h704v-265h-145v-364c53.333 0 95.666 9.16699 126.999 27.5s56.5 42.5 75.5 72.5s34 64.167 45 102.5s23 77.666 36 117.999s29 79.5 48 117.5s46.333 72.167 82 102.5s81.5 54.666 137.5 72.999s127.667 27.5 215 27.5
c31.333 0 60.666 -2 88 -6c27.333 -4 47 -9 59 -15l2 -272c-23.333 12 -51.333 18 -84 18c-50.667 0 -91.334 -10.833 -122.001 -32.5s-56.167 -50 -76.5 -85s-38 -74 -53 -117s-32.167 -86.167 -51.5 -129.5l385 -770v-361h-469v326l-229 520
c-56 -15.333 -119.667 -22.666 -191 -21.999h-24v-232h96v-266h-606v266h96v232h-25c-70.667 0 -134 7.33301 -190 22l-113 -254h123v-266h-706v266h104l279 539c-19.333 44 -36.833 87.333 -52.5 130s-33.834 81.5 -54.501 116.5s-46 63.333 -76 85s-70.333 32.5 -121 32.5
c-34 0 -62 -6 -84 -18z" />
    <glyph glyph-name="uni0497" unicode="&#x497;" horiz-adv-x="2136" 
d="M92 756l2.00098 252c13.333 2.66699 33.166 5.66699 59.499 9s52.166 5 77.499 5c88.667 -1.33301 157.334 -13 206.001 -35s86.334 -48.333 113.001 -79s46.5 -64 59.5 -100s28 -69 45 -99s40.5 -55.333 70.5 -76s75.667 -31 137 -31v162h-123v248h592v-248h-123v-162
c61.333 0 107.166 10.333 137.499 31s54.333 46 72 76s33 63 46 99s32.833 69.333 59.5 100s63.834 57 111.501 79s115.834 33.667 204.501 35c27.333 0 54.333 -1.66699 81 -5s45.334 -6.33301 56.001 -9v-250c-9.33301 5.33301 -32.333 8 -69 8
c-45.333 0 -80.666 -6.16699 -105.999 -18.5s-45.833 -28 -61.5 -47s-28.167 -40.5 -37.5 -64.5s-21 -47 -35 -69c18 -27.333 36.5 -57.666 55.5 -90.999l65.5 -112.5l82 -139.5c30 -51.333 65.333 -108.333 106 -171l6 -415h-399v362l-131 250l-30.5 53.5
c-9.66699 16.333 -19.834 29.833 -30.501 40.5c-23.333 -5.33301 -52.833 -9.66602 -88.5 -12.999s-67.167 -5 -94.5 -5v-76h82v-250h-510v250h82v76c-27.333 0 -58.333 1.66699 -93 5s-63.667 7.66602 -87 12.999l-61 -94h71v-250h-594v250h86v-17l111.5 167l112.5 169
c-4 6.66699 -7.83301 14.167 -11.5 22.5s-6.83398 15.833 -9.50098 22.5v-2l-31.5 56.5c-10.333 18.333 -23.333 34.666 -39 48.999s-35.834 26 -60.501 35s-55.334 13.5 -92.001 13.5c-35.333 0 -59.333 -3.33301 -72 -10z" />
    <glyph glyph-name="uni0498" unicode="&#x498;" horiz-adv-x="1366" 
d="M31 205l257.997 216.998c48 -38 97.5 -69.667 148.5 -95s112.833 -38 185.5 -38c70.667 0 126.167 13.333 166.5 40s60.5 65.667 60.5 117c0 56 -19.167 95 -57.5 117s-88.833 33 -151.5 33h-190v244h184c61.333 0 112.5 11.833 153.5 35.5s61.5 58.834 61.5 105.501
c0 20.667 -2.33301 40.834 -7 60.501s-13.834 37 -27.501 52s-32.834 27 -57.501 36s-56 13.5 -94 13.5c-35.333 0 -65.666 -6.83301 -90.999 -20.5s-46.666 -30.834 -63.999 -51.501s-31 -43.834 -41 -69.501s-18 -50.834 -24 -75.501h-376v506h321l47 -115
c26 32.667 66 63.667 120 93s123.333 44 208 44c174.667 0 303.334 -37.833 386.001 -113.5s124 -183.834 124 -324.501c0 -34 -6.83301 -64.667 -20.5 -92s-30 -51.333 -49 -72s-39.5 -38.834 -61.5 -54.501s-41.333 -28.167 -58 -37.5c20.667 -12 44.667 -27.667 72 -47
s53 -42.666 77 -69.999s44.5 -59 61.5 -95s25.5 -77.333 25.5 -124c0 -65.333 -15.667 -123.666 -47 -174.999s-73 -95.5 -125 -132.5s-112.167 -66.667 -180.5 -89s-139.166 -37.5 -212.499 -45.5l-15 -33c49.333 -4 88 -20.167 116 -48.5s42 -62.166 42 -101.499
c0 -24.667 -4.5 -49.5 -13.5 -74.5s-23 -47.5 -42 -67.5s-44.167 -36.167 -75.5 -48.5s-70.333 -18.5 -117 -18.5c-31.333 0 -63.666 4.16699 -96.999 12.5s-61 17.833 -83 28.5l66 127c32.667 -15.333 65.334 -22.666 98.001 -21.999c45.333 0 67.666 16.333 66.999 49
c0 32.667 -22.333 49 -67 49c-12 0 -22.833 -0.333008 -32.5 -1s-17.834 -1.66699 -24.501 -3l-21 35l33 110c-57.333 1.33301 -114.333 8.83301 -171 22.5s-110 31.167 -160 52.5s-94.667 45.333 -134 72s-70.666 54.334 -93.999 83.001z" />
    <glyph glyph-name="uni0499" unicode="&#x499;" horiz-adv-x="1140" 
d="M10 182l253.999 163.996c35.333 -23.333 74.5 -42.5 117.5 -57.5s97.5 -22.5 163.5 -22.5c61.333 0 108.666 5.5 141.999 16.5s50 27.5 50 49.5c0 20.667 -16.333 35.667 -49 45s-75 14 -127 14h-98v236h92c52 0 95.333 4.33301 130 13s52 21.334 52 38.001
c0 9.33301 -2 18.166 -6 26.499s-11.833 15.833 -23.5 22.5s-28 12.167 -49 16.5s-47.833 6.5 -80.5 6.5c-31.333 0 -58 -4.5 -80 -13.5s-40.5 -20.667 -55.5 -35s-27 -30 -36 -47s-16.167 -33.833 -21.5 -50.5h-305v408h258l49 -99v13c24.667 26 60.167 49.5 106.5 70.5
s103.833 31.5 172.5 31.5c147.333 0 255.833 -23.5 325.5 -70.5s104.5 -124.5 104.5 -232.5c0 -39.333 -10.667 -76.833 -32 -112.5s-43.666 -60.834 -66.999 -75.501c31.333 -20.667 61.333 -48.834 90 -84.501s43 -81.5 43 -137.5c0 -49.333 -13.167 -93 -39.5 -131
s-62.166 -70.667 -107.499 -98s-97.333 -49.166 -156 -65.499s-119.334 -27.166 -182.001 -32.499l-18 -39c49.333 -4 87.833 -20.167 115.5 -48.5s41.5 -62.166 41.5 -101.499c0 -24.667 -4.33301 -49.5 -13 -74.5s-22.667 -47.5 -42 -67.5s-44.666 -36.167 -75.999 -48.5
s-70 -18.5 -116 -18.5c-31.333 0 -63.833 4.16699 -97.5 12.5s-61.5 17.833 -83.5 28.5l66 127c32.667 -15.333 65.334 -22.666 98.001 -21.999c45.333 0 68 16.333 68 49s-22.667 49 -68 49c-12 0 -22.833 -0.333008 -32.5 -1s-17.834 -1.66699 -24.501 -3l-21 35l37 123
c-45.333 4 -90.5 11.833 -135.5 23.5s-88.167 26.334 -129.5 44.001s-79.5 37.334 -114.5 59.001s-64.833 44.167 -89.5 67.5z" />
    <glyph glyph-name="uni049A" unicode="&#x49a;" horiz-adv-x="1669" 
d="M51 0l-0.000976562 266.002h111v901h-111v265h701v-265h-166v-364c61.333 0 109.666 9.16699 144.999 27.5s64 42.5 86 72.5s39.167 64.167 51.5 102.5s25.666 77.666 39.999 117.999s32.333 79.5 54 117.5s52.334 72.167 92.001 102.5s91.334 54.666 155.001 72.999
s144.5 27.5 242.5 27.5c35.333 0 68.333 -2 99 -6s53.667 -9 69 -15l2 -272c-27.333 12 -58.666 18 -93.999 18c-57.333 0 -103.166 -10.833 -137.499 -32.5s-63.333 -50 -87 -85s-44 -74 -61 -117s-36.5 -86.167 -58.5 -129.5l315 -539l119 -217v-344h-471v295l-318 520
c-31.333 -6.66699 -64.333 -12 -99 -16s-73.334 -6 -116.001 -6h-28v-232h110v-266h-645z" />
    <glyph glyph-name="uni049B" unicode="&#x49b;" horiz-adv-x="1456" 
d="M70 0l0.00390625 250.001h92v526h-92v248h589v-248h-139v-184c2.66699 5.33301 4 10.333 4 15s5.66699 7 17 7c62.667 0 109.667 10.333 141 31s56.166 46 74.499 76s34.666 63 48.999 99s36.666 69.5 66.999 100.5s73.333 57.333 129 79s133.5 33.167 233.5 34.5
c28.667 0 57.667 -1.66699 87 -5s51.666 -6.33301 66.999 -9l2 -252c-13.333 6.66699 -39.333 10 -78 10c-39.333 0 -72.833 -4.33301 -100.5 -13s-50.667 -20.167 -69 -34.5s-34 -30.833 -47 -49.5s-24.833 -37.334 -35.5 -56.001l-25 -43l353 -484v-413h-410v315l-250 356
c-52 -12 -111.333 -18 -178 -18h-31v-88h94v-250h-544z" />
    <glyph glyph-name="uni049C" unicode="&#x49c;" horiz-adv-x="1669" 
d="M51 0v266h111v901h-111v265h701v-265h-166v-364h36.5c12.333 0 23.833 0.666992 34.5 2v285h193v-238c46.667 24.667 78.834 56.5 96.501 95.5s30.5 80.333 38.5 124s16.5 87.667 25.5 132s28.167 84.166 57.5 119.499s73.333 64.333 132 87s142.667 34 252 34
c35.333 0 68.333 -2 99 -6s53.667 -9 69 -15l2 -272c-27.333 12 -58.666 18 -93.999 18c-57.333 0 -99.333 -10.833 -126 -32.5s-46.5 -50 -59.5 -85s-24.333 -74 -34 -117s-25.167 -86.167 -46.5 -129.5l237 -539h119v-266h-746v266h140l-105 254
c-8 -2.66699 -16.833 -4.66699 -26.5 -6s-19.834 -2.66602 -30.501 -3.99902v-172h-193v160c-4 0 -8.33301 -0.333008 -13 -1s-9 -1 -13 -1c-8 0 -15.833 0.333008 -23.5 1s-14.834 1 -21.501 1v-232h110v-266h-645z" />
    <glyph glyph-name="uni049D" unicode="&#x49d;" horiz-adv-x="1456" 
d="M70 0l-0.00195312 250.001h92v526h-92v248h589v-248h-139v-203h60v156h178v-123c20.667 10.667 35.667 28.667 45 54s18.833 53.833 28.5 85.5s21.334 64.167 35.001 97.5s34.834 64 63.501 92s67.167 51.167 115.5 69.5s111.5 28.166 189.5 29.499
c28.667 0 57.667 -1.66699 87 -5s51.666 -6.33301 66.999 -9l2 -252c-13.333 6.66699 -39.333 10 -78 10c-39.333 0 -68.666 -4 -87.999 -12s-34.5 -19.5 -45.5 -34.5s-20.167 -34.167 -27.5 -57.5s-20 -50 -38 -80l166 -344h109v-250h-564v250h111l-72 174
c-10.667 -2.66699 -25.167 -5 -43.5 -7l-62.5 -7v-115h-178v108h-60v-153h94v-250h-544z" />
    <glyph glyph-name="uni049E" unicode="&#x49e;" horiz-adv-x="1669" 
d="M51 0l-0.000976562 266.002h111v627h-111v180h111v94h-111v265h701v-265h-166v-94h166v-180h-166v-90c61.333 0 109.666 9.16699 144.999 27.5s64 42.5 86 72.5s39.167 64.167 51.5 102.5s25.666 77.666 39.999 117.999s32.333 79.5 54 117.5s52.334 72.167 92.001 102.5
s91.334 54.666 155.001 72.999s144.5 27.5 242.5 27.5c35.333 0 68.333 -2 99 -6s53.667 -9 69 -15l2 -272c-27.333 12 -58.666 18 -93.999 18c-57.333 0 -103.166 -10.833 -137.499 -32.5s-63.333 -50 -87 -85s-44 -74 -61 -117s-36.5 -86.167 -58.5 -129.5l315 -539h119
v-266h-799v266h139l-129 254c-31.333 -6.66699 -64.333 -12 -99 -16s-73.334 -6 -116.001 -6h-28v-232h110v-266h-645z" />
    <glyph glyph-name="uni049F" unicode="&#x49f;" horiz-adv-x="1456" 
d="M70 0l0.00195312 250.002h92v352h-92v113h92v61h-92v248h589v-248h-139v-61h137v-113h-137v-88h6c44 0 80 9.16699 108 27.5s50.833 40.166 68.5 65.499s32 52.333 43 81l28.5 74c13.333 31.333 28.666 62.666 45.999 93.999s42.333 60 75 86s76 47.5 130 64.5
s124 26.167 210 27.5c28.667 0 57.667 -1.66699 87 -5s51.666 -6.33301 66.999 -9l2 -252c-13.333 6.66699 -39.333 10 -78 10c-39.333 0 -72.833 -4.33301 -100.5 -13s-50.667 -20.167 -69 -34.5s-34 -30.833 -47 -49.5s-24.833 -37.334 -35.5 -56.001l-25 -43l244 -332
h109v-250h-672v250h80l-34 51.5c-12 17.667 -23.333 35.834 -34 54.501c-52 -12 -111.333 -18 -178 -18h-31v-88h94v-250h-544z" />
    <glyph glyph-name="uni04A0" unicode="&#x4a0;" horiz-adv-x="2023" 
d="M45 979l-0.000976562 453.002h1067v-271h-172v-358c61.333 0 109.833 9.16699 145.5 27.5s64.334 42.5 86.001 72.5s38.667 64.167 51 102.5s25.666 77.666 39.999 117.999s32.5 79.5 54.5 117.5s52.667 72.167 92 102.5s90.833 54.666 154.5 72.999
s144.5 27.5 242.5 27.5c35.333 0 68.5 -2 99.5 -6s53.833 -9 68.5 -15l2 -272c-27.333 12 -58.666 18 -93.999 18c-57.333 0 -103 -10.833 -137 -32.5s-63 -50 -87 -85s-44.5 -74 -61.5 -117s-36.5 -86.167 -58.5 -129.5l315 -539h119v-266h-798v266h139l-129 254
c-31.333 -6.66699 -64.5 -12 -99.5 -16s-73.5 -6 -115.5 -6h-29v-232h111v-266h-645v266h110v895h-117v-182h-354z" />
    <glyph glyph-name="uni04A1" unicode="&#x4a1;" horiz-adv-x="1710" 
d="M23 633l0.000976562 391h890v-248h-139v-158c5.33301 -1.33301 10.833 -2 16.5 -2h16.5c54.667 0 96.334 10.333 125.001 31s52.167 46 70.5 76s35.666 62.667 51.999 98s40.666 68.833 72.999 100.5s76.333 58 132 79s132.167 32.167 229.5 33.5
c28.667 0 57.667 -1.66699 87 -5s51.333 -6.33301 66 -9l3 -252c-13.333 6.66699 -39.333 10 -78 10c-39.333 0 -72.833 -4.33301 -100.5 -13s-50.667 -20.167 -69 -34.5s-34 -30.833 -47 -49.5s-24.833 -37.334 -35.5 -56.001l-25 -43l244 -332h108v-250h-671v250h80
l-34 51.5c-12 17.667 -23.333 35.834 -34 54.501c-52 -12 -111.333 -18 -178 -18h-31v-88h94v-250h-544v250h92v526h-123v-143h-270z" />
    <glyph glyph-name="uni04A2" unicode="&#x4a2;" horiz-adv-x="1572" 
d="M51 0v270h113v891h-113v271h664v-271h-127v-309h389v309h-121v271h666v-271h-119v-891h119v-573h-353v303h-192v580h-389v-310h127v-270h-664z" />
    <glyph glyph-name="uni04A3" unicode="&#x4a3;" horiz-adv-x="1372" 
d="M68 0v252h96v518h-96v252h559v-252h-107v-127h326v127h-101v252h560v-252h-101v-518h101v-504h-301v252h-158v389h-326v-137h107v-252h-559z" />
    <glyph glyph-name="uni04A4" unicode="&#x4a4;" horiz-adv-x="1984" 
d="M51 0v270h113v891h-113v271h664v-271h-127v-309h389v309h-121v271h1061v-533h-344v260h-170v-889h119v-270h-666v270h121v310h-389v-310h127v-270h-664z" />
    <glyph glyph-name="uni04A5" unicode="&#x4a5;" horiz-adv-x="1665" 
d="M68 0v252h96v518h-96v252h559v-252h-107v-127h326v127h-101v252h852v-424h-288v170h-105v-516h101v-252h-560v252h101v137h-326v-137h107v-252h-559z" />
    <glyph glyph-name="uni04A6" unicode="&#x4a6;" horiz-adv-x="1572" 
d="M51 0l-0.000976562 270.001h113v891h-113v271h1471v-271h-119v-891h119v-270l-78 -188c-15.333 -32.667 -32.833 -66.167 -52.5 -100.5s-45.834 -65.5 -78.501 -93.5s-74 -50.833 -124 -68.5s-111.667 -26.5 -185 -26.5c-53.333 2.66699 -100.166 13.5 -140.499 32.5
s-76.166 42.167 -107.499 69.5l153 242c19.333 -18 41 -34.5 65 -49.5s47.333 -22.5 70 -22.5c27.333 0 51 11.667 71 35s34.667 48.666 44 75.999l29 86l-4 8h-328v270h121v891h-389v-891h127v-270h-664z" />
    <glyph glyph-name="uni04A7" unicode="&#x4a7;" horiz-adv-x="1368" 
d="M68 0l0.000976562 252.001h96v518h-96v252h1237v-252h-101v-518h101v-250l-76 -188c-15.333 -32.667 -32.833 -66.167 -52.5 -100.5s-45.834 -65.5 -78.501 -93.5s-74 -50.833 -124 -68.5s-112 -26.5 -186 -26.5c-53.333 2.66699 -100 13.5 -140 32.5
s-75.667 42.167 -107 69.5l153 242c19.333 -18 41 -34.5 65 -49.5s47.333 -22.5 70 -22.5c27.333 0 51 11.667 71 35s34.667 48.666 44 75.999l29 86l-4 6h-224v252h101v518h-326v-518h107v-252h-559z" />
    <glyph glyph-name="uni04A8" unicode="&#x4a8;" horiz-adv-x="1404" 
d="M31 702c0 117.333 19.832 222.834 59.499 316.501s90.167 173 151.5 238s128.5 114.5 201.5 148.5s142.833 51 209.5 51c50.667 0 94.834 -6.16699 132.501 -18.5s69.5 -26.333 95.5 -42s46.167 -31.334 60.5 -47.001s23.5 -26.167 27.5 -31.5l47 115h321v-582h-366
c-1.33301 32.667 -6.83301 64.667 -16.5 96s-23 59 -40 83s-38.833 43.167 -65.5 57.5s-58.334 21.5 -95.001 21.5s-70.167 -10.667 -100.5 -32s-56 -50.333 -77 -87s-37.333 -79.667 -49 -129s-17.5 -102 -17.5 -158c0 -20.667 0.666992 -40.167 2 -58.5s4 -36.833 8 -55.5
c44 28.667 91.5 50.167 142.5 64.5s103.833 21.5 158.5 21.5c18 2.66699 35.5 4.66699 52.5 6s33.167 2 48.5 2c53.333 0 99.333 -7.83301 138 -23.5s70.334 -36.5 95.001 -62.5s43.167 -56 55.5 -90s18.5 -70.333 18.5 -109c0 -49.333 -10 -99.5 -30 -150.5
s-48 -97 -84 -138s-80.333 -74.5 -133 -100.5s-111.667 -39 -177 -39c36.667 -44 88.667 -65.667 156 -65c52 0 97 10.5 135 31.5s73.333 49.167 106 84.5l180 -208c-24.667 -26 -54 -51.667 -88 -77s-72.5 -47.5 -115.5 -66.5s-89.667 -34.667 -140 -47
s-102.833 -18.5 -157.5 -18.5c-70.667 0 -138.5 10.167 -203.5 30.5s-122.833 50.666 -173.5 90.999s-92.334 90.833 -125.001 151.5s-52.667 131.334 -60 212.001c-91.333 61.333 -162.166 144 -212.499 248s-75.5 226 -75.5 366zM781.999 317.001h41
c39.333 0 71.333 8.33301 96 25s37 31.667 37 45s-12 20.333 -36 21c-31.333 0 -58.333 -8.66699 -81 -26s-41.667 -39 -57 -65z" />
    <glyph glyph-name="uni04A9" unicode="&#x4a9;" horiz-adv-x="1087" 
d="M2 518c0 90 13.999 168.167 41.999 234.5s65.167 121 111.5 164s100 74.667 161 95s124.167 30.5 189.5 30.5c34 0 65 -4 93 -12s52.667 -18.167 74 -30.5s39.5 -25.333 54.5 -39s26.5 -25.167 34.5 -34.5l35 98h241v-354h-301c-1.33301 0 -4.66602 5.33301 -9.99902 16
s-13.166 22.834 -23.499 36.501s-23.333 26 -39 37s-34.5 16.5 -56.5 16.5c-52 0 -92.667 -20.167 -122 -60.5s-47.333 -87.833 -54 -142.5c35.333 18 73.666 31.167 114.999 39.5s83 12.5 125 12.5c57.333 0 108.166 -10 152.499 -30s81.833 -46.333 112.5 -79
s53.834 -69.5 69.501 -110.5s23.5 -82.5 23.5 -124.5c0 -39.333 -7.16699 -77.5 -21.5 -114.5s-35.833 -69.833 -64.5 -98.5s-65.167 -52 -109.5 -70s-97.166 -27 -158.499 -27h-27.5c-9 0 -19.167 0.666992 -30.5 2c18 -35.333 43 -63.833 75 -85.5s71.333 -32.5 118 -32.5
c52 0 97.167 10.5 135.5 31.5s73.833 49.167 106.5 84.5l180 -209c-24.667 -26 -54 -51.5 -88 -76.5s-72.5 -47.167 -115.5 -66.5s-89.833 -35 -140.5 -47s-103.334 -18 -158.001 -18c-75.333 0 -147 11.167 -215 33.5s-127.667 56.333 -179 102s-92.333 102.667 -123 171
s-46 148.166 -46 239.499v11c-52 45.333 -92.667 102 -122 170s-44 147 -44 237zM601.999 260c9.33301 -5.33301 21.668 -7.99902 37.001 -7.99902c16.667 0 33.167 2.66699 49.5 8s31.666 12.5 45.999 21.5s25.833 18.667 34.5 29s13 20.166 13 29.499s-4 16.833 -12 22.5
s-17.667 8.5 -29 8.5c-12 0 -25.5 -3.83301 -40.5 -11.5s-29.333 -17 -43 -28s-25.667 -23 -36 -36s-16.833 -24.833 -19.5 -35.5z" />
    <glyph glyph-name="uni04AA" unicode="&#x4aa;" horiz-adv-x="1404" 
d="M31 702c0 117.333 19.8301 222.831 59.4971 316.498s90.167 173 151.5 238s128.5 114.5 201.5 148.5s142.833 51 209.5 51c50.667 0 94.834 -6.16699 132.501 -18.5s69.5 -26.333 95.5 -42s46.167 -31.334 60.5 -47.001s23.5 -26.167 27.5 -31.5l47 115h321v-582h-366
c-1.33301 32.667 -6.83301 64.667 -16.5 96s-23 59 -40 83s-38.833 43.167 -65.5 57.5s-58.334 21.5 -95.001 21.5s-70.167 -10.667 -100.5 -32s-56 -50.333 -77 -87s-37.333 -79.667 -49 -129s-17.5 -102 -17.5 -158c0 -50.667 6.5 -99.167 19.5 -145.5
s32.167 -87.166 57.5 -122.499s56.333 -63.666 93 -84.999s79.667 -32 129 -32c42 0 82.167 9.66699 120.5 29s71.833 40.833 100.5 64.5s52.167 46.167 70.5 67.5l34.5 40l239 -262c-60 -65.333 -132 -124.333 -216 -177s-179.333 -86.667 -286 -102l-45 -26
c-27.333 -15.333 -47.333 -36.333 -60 -63s-19 -52 -19 -76c0 -28.667 11.5 -52.667 34.5 -72s46.833 -29 71.5 -29c30 0 67.833 6.5 113.5 19.5s89.834 27.167 132.501 42.5v-293c-31.333 -13.333 -70.333 -25.166 -117 -35.499s-102 -15.5 -166 -15.5
c-46.667 0 -91 4.33301 -133 13s-79.5 25.334 -112.5 50.001s-59 58.5 -78 101.5s-28.5 99.167 -28.5 168.5c0 60 9.83301 109.167 29.5 147.5s37.167 65.166 52.5 80.499c-79.333 19.333 -150.666 49.333 -213.999 90s-117.666 91.167 -162.999 151.5
s-79.833 130 -103.5 209s-35.5 166.167 -35.5 261.5z" />
    <glyph glyph-name="uni04AB" unicode="&#x4ab;" horiz-adv-x="1087" 
d="M2 518c0 90 14 168.169 42 234.502s65.167 121 111.5 164s100 74.667 161 95s124.167 30.5 189.5 30.5c34 0 65 -4 93 -12s52.667 -18.167 74 -30.5s39.5 -25.333 54.5 -39s26.5 -25.167 34.5 -34.5l35 98h241v-463h-301c-1.33301 24.667 -4.33301 49.667 -9 75
s-11.834 48.5 -21.501 69.5s-22.667 38 -39 51s-36.166 19.5 -59.499 19.5c-30 0 -56.167 -7.5 -78.5 -22.5s-41 -34.833 -56 -59.5s-26.333 -52.667 -34 -84s-11.5 -63.333 -11.5 -96c0 -69.333 19.167 -127 57.5 -173s91.5 -69 159.5 -69c52 0 97.167 10.667 135.5 32
s73.833 49.666 106.5 84.999l180 -209c-39.333 -42 -91.5 -81.833 -156.5 -119.5s-139.167 -63.834 -222.5 -78.501l-4 -2c-27.333 -15.333 -47.5 -36.333 -60.5 -63s-19.5 -52.334 -19.5 -77.001c0 -28.667 11.667 -52.5 35 -71.5s47.333 -28.5 72 -28.5
c30 0 67.833 6.5 113.5 19.5s89.5 26.833 131.5 41.5v-293c-31.333 -13.333 -70.166 -25.166 -116.499 -35.499s-101.5 -15.5 -165.5 -15.5c-46.667 0 -91.167 4.5 -133.5 13.5s-79.833 25.833 -112.5 50.5s-58.5 58.5 -77.5 101.5s-28.5 99.167 -28.5 168.5
c0 48 6.66699 90.333 20 127s27.666 62.667 42.999 78c-54.667 15.333 -105.5 37.5 -152.5 66.5s-87.667 65.167 -122 108.5s-61 94 -80 152s-28.5 123 -28.5 195z" />
    <glyph glyph-name="uni04AC" unicode="&#x4ac;" horiz-adv-x="1435" 
d="M31 899v533h1374v-533h-301v262h-172v-889h170v-538h-252v266h-510v272h168v889h-176v-262h-301z" />
    <glyph glyph-name="uni04AD" unicode="&#x4ad;" horiz-adv-x="1302" 
d="M51 600v424h1153v-424h-252v172h-147v-518h147v-520h-254v266h-389v254h144v518h-150v-172h-252z" />
    <glyph glyph-name="uni04AE" unicode="&#x4ae;" horiz-adv-x="1370" 
d="M-20 1169l-0.000976562 263.002h700v-263h-107l119 -217c2.66699 -9.33301 7.16699 -21.5 13.5 -36.5l19.5 -47l18.5 -47c5.66699 -15 9.83398 -26.833 12.501 -35.5h8c1.33301 9.33301 5 21.666 11 36.999s12.833 31.166 20.5 47.499l23.5 49l21 43.5l112 206h-112v263
h551v-263h-111l-379 -665v-238h115v-266h-656v266h117v242l-397 661h-100z" />
    <glyph glyph-name="uni04AF" unicode="&#x4af;" horiz-adv-x="1255" 
d="M0 764l0.000976562 259.999h623v-260h-103l94 -217c13.333 -39.333 25 -79.5 35 -120.5s16.333 -72.5 19 -94.5h8c0 10.667 1.66699 24.5 5 41.5s7.66602 35.833 12.999 56.5s11.833 41.834 19.5 63.501l23.5 63.5l99 207h-109v260h528v-260h-106l-334 -721v-283h92v-272
h-547v272h95v285l-359 719h-96z" />
    <glyph glyph-name="uni04B0" unicode="&#x4b0;" horiz-adv-x="1370" 
d="M-20 1169l-0.000976562 263.002h700v-263h-107l119 -217c2.66699 -9.33301 7.16699 -21.5 13.5 -36.5l19.5 -47l18.5 -47c5.66699 -15 9.83398 -26.833 12.501 -35.5h8c1.33301 9.33301 5 21.666 11 36.999s12.833 31.166 20.5 47.499l23.5 49l21 43.5l112 206h-112v263
h551v-263h-111l-338 -591h318v-166h-359v-146h115v-266h-656v266h117v146h-366v166h323l-354 591h-100z" />
    <glyph glyph-name="uni04B1" unicode="&#x4b1;" horiz-adv-x="1255" 
d="M0 764l0.000976562 259.999h623v-260h-103l94 -217c13.333 -39.333 25 -79.5 35 -120.5s16.333 -72.5 19 -94.5h8c0 10.667 1.66699 24.5 5 41.5s7.66602 35.833 12.999 56.5s11.833 41.834 19.5 63.501l23.5 63.5l99 207h-109v260h528v-260h-106l-285 -612h205v-152
h-254v-240h92v-272h-547v272h95v240h-308v152h254l-305 612h-96z" />
    <glyph glyph-name="uni04B2" unicode="&#x4b2;" horiz-adv-x="1710" 
d="M51 0v264h178l301 391l-370 510h-107v267h811v-267h-119l201 -272l209 272h-180v267h680v-267h-174l-310 -395l369 -504h119v-553h-307v287h-510v266h116l-198 266l-211 -268h182v-264h-680z" />
    <glyph glyph-name="uni04B3" unicode="&#x4b3;" horiz-adv-x="1290" 
d="M63 0v311.001h138c16.667 18 31 34.5 43 49.5l35.5 43l37 42l43.5 48.5l-100 108l-100 109h-97v313h615v-313h-31l74 -80c12 12 22.833 23.5 32.5 34.5s24.834 26.167 45.501 45.5h-37v313h457v-313h-138l-44 -45.5l-37.5 -39l-38 -38l-43.5 -43.5l102 -116.5l102 -117.5
h97v-575h-271v264h-332v311h29c-15.333 15.333 -29.333 30.166 -42 44.499s-26.667 28.833 -42 43.5v2l-24.5 -27c-5.66699 -6 -10.834 -11.833 -15.501 -17.5l-15 -17.5l-25 -28h37v-311h-455z" />
    <glyph glyph-name="uni04B4" unicode="&#x4b4;" horiz-adv-x="2281" 
d="M31 899v533h1374v-533h-301v262h-172v-889h735v889h-129v271h680v-271h-127v-889h127v-546h-262v274h-1616v272h168v889h-176v-262h-301z" />
    <glyph glyph-name="uni04B5" unicode="&#x4b5;" horiz-adv-x="1929" 
d="M53 600v424h1041v-424h-252v172h-88v-518h530v504h-90v266h578v-266h-99v-504h99v-524h-279v270h-1235v254h143v518h-96v-172h-252z" />
    <glyph glyph-name="uni04B6" unicode="&#x4b6;" horiz-adv-x="1568" 
d="M53 1161v271h641v-271h-96v-307c0 -54.667 18.5 -96.667 55.5 -126s85.5 -44 145.5 -44h137v481h-86v267h620v-269h-114v-893h114v-544h-262v274h-397v270h125v193h-225c-74 0 -143.333 8.16699 -208 24.5s-121.667 41.5 -171 75.5s-88.333 76 -117 126s-43 109 -43 177
v295h-119z" />
    <glyph glyph-name="uni04B7" unicode="&#x4b7;" 
d="M31 770v252.002h540v-252h-82v-172c0 -23.333 15.5 -41.5 46.5 -54.5s72.167 -19.5 123.5 -19.5h115v248h-72v250h521v-250h-99v-520h99v-526h-262v274h-291v252h104v51h-192c-61.333 0 -119.333 6.16699 -174 18.5s-102.5 31.166 -143.5 56.499
s-73.5 56.666 -97.5 93.999s-36 81.333 -36 132v166h-100z" />
    <glyph glyph-name="uni04B8" unicode="&#x4b8;" horiz-adv-x="1568" 
d="M53 1161l0.00195312 271h641v-271h-96v-307c0 -36.667 8.5 -67.667 25.5 -93s40.5 -45 70.5 -59v269h156v-287h86v481h-86v267h620v-269h-114v-893h114v-270h-659v270h125v193h-86v-103h-156v103c-72.667 1.33301 -140.334 10.5 -203.001 27.5
s-117.834 42.167 -165.501 75.5s-85.167 75 -112.5 125s-41 108.333 -41 175v295h-119z" />
    <glyph glyph-name="uni04B9" unicode="&#x4b9;" 
d="M31 770l-0.000976562 252h540v-252h-82v-108c0 -32.667 27.333 -54.667 82 -66v86h131v-94h72v184h-72v250h521v-250h-99v-520h99v-252h-553v252h104v115h-72v-64h-131v64c-60 0 -116.5 6.5 -169.5 19.5s-99.667 32 -140 57s-72.166 56.333 -95.499 94
s-35 81.167 -35 130.5v102h-100z" />
    <glyph glyph-name="uni04BA" unicode="&#x4ba;" horiz-adv-x="1568" 
d="M53 0v267.997h115v893h-115v271h660v-271h-125v-192h225c74 0 143.333 -8.16699 208 -24.5s121.667 -41.666 171 -75.999s88.333 -76.666 117 -126.999s43 -109.166 43 -176.499v-295h118v-270h-641v270h97v308c0 54.667 -18.5 96.667 -55.5 126s-85.5 44 -145.5 44h-137
v-482h86v-266h-621z" />
    <glyph glyph-name="uni04BB" unicode="&#x4bb;" 
d="M31 0v249.998h98v1034h-98v252h448v-514h193c61.333 0 119.333 -6.16699 174 -18.5s102.5 -31.166 143.5 -56.499s73.333 -56.666 97 -93.999s35.5 -81.333 35.5 -132v-469h101v-252h-541v252h82v475c0 23.333 -15.333 41.5 -46 54.5s-72 19.5 -124 19.5h-115v-551h72
v-250h-520z" />
    <glyph glyph-name="uni04BC" unicode="&#x4bc;" horiz-adv-x="1939" 
d="M37 885c0 66.667 11.499 119.836 34.499 159.503s43.5 66.167 61.5 79.5l348 -4l-4 -2l-78 -45c-27.333 -15.333 -47.5 -36.166 -60.5 -62.499s-19.5 -51.833 -19.5 -76.5c0 -28.667 11.667 -52.5 35 -71.5s47.333 -28.5 72 -28.5h16.5
c5.66699 0 11.834 0.666992 18.501 2c12 95.333 37.5 181.833 76.5 259.5s89.5 144.167 151.5 199.5s134 98.333 216 129s171.667 46 269 46c125.333 0 234 -18 326 -54s168.5 -87.167 229.5 -153.5s106.167 -146.5 135.5 -240.5s44 -198.333 44 -313v-33
c0 -11.333 -0.666992 -22.333 -2 -33l-971 -6c4 -45.333 13.833 -90.5 29.5 -135.5s36.167 -85.5 61.5 -121.5s55.333 -65.333 90 -88s74 -34 118 -34c42 0 81.833 12.667 119.5 38s70.834 53.666 99.501 84.999s52.167 60.666 70.5 87.999s29.833 43.666 34.5 48.999
l239 -262c-35.333 -38 -74.833 -74.5 -118.5 -109.5s-91.5 -65.833 -143.5 -92.5s-108 -47.834 -168 -63.501s-123.333 -23.5 -190 -23.5c-96.667 0 -185.834 13.333 -267.501 40s-153.167 65 -214.5 115s-111.833 111.167 -151.5 183.5s-66.167 154.833 -79.5 247.5
c-12 -1.33301 -24.167 -2 -36.5 -2h-39.5c-46.667 0 -91 4.5 -133 13.5s-79.5 25.667 -112.5 50s-59 58 -78 101s-28.5 99.5 -28.5 169.5zM945.999 850.002l541.003 0.000976562c-5.33301 45.333 -14.5 88.666 -27.5 129.999s-30.833 78.166 -53.5 110.499
s-50.667 58.333 -84 78s-73.333 29.5 -120 29.5c-36.667 0 -69.334 -9.5 -98.001 -28.5s-53.334 -44.167 -74.001 -75.5s-37.834 -68.166 -51.501 -110.499s-24.5 -86.833 -32.5 -133.5z" />
    <glyph glyph-name="uni04BD" unicode="&#x4bd;" horiz-adv-x="1468" 
d="M20 612c0 46.667 8.3291 84 24.9961 112s31.667 46.667 45 56l254 -2l-4 -2l-55 -31c-20.667 -10.667 -35.834 -25.167 -45.501 -43.5s-14.5 -37.166 -14.5 -56.499s8.5 -35.833 25.5 -49.5s34.5 -20.5 52.5 -20.5c19.333 0 42.666 4.33301 69.999 13
c8 74 27.333 139.5 58 196.5s70.334 105.333 119.001 145s104.334 70.167 167.001 91.5s130.334 32 203.001 32c84.667 0 159.334 -12.333 224.001 -37s118.834 -58.834 162.501 -102.501s76.5 -95.167 98.5 -154.5s33 -124 33 -194c0 -27.333 -2.16699 -54.333 -6.5 -81
s-10.5 -51.334 -18.5 -74.001h-645c2.66699 -13.333 7.16699 -29.666 13.5 -48.999s17 -37.833 32 -55.5s35.333 -32.667 61 -45s60.5 -18.5 104.5 -18.5c18 0 37.5 0.666992 58.5 2s43.833 5.33301 68.5 12s50.667 16.5 78 29.5s54.666 31.167 81.999 54.5l172 -199
c-76.667 -65.333 -157.334 -111.333 -242.001 -138s-180.334 -40 -287.001 -40c-56 0 -112.333 7.83301 -169 23.5s-109.167 40.667 -157.5 75s-90.666 78 -126.999 131s-61.166 116.5 -74.499 190.5c-31.333 -4 -66.333 -6 -105 -6c-32.667 0 -64.667 3 -96 9
s-58.666 17.5 -81.999 34.5s-42.166 41 -56.499 72s-21.5 70.833 -21.5 119.5zM773.996 612h309.001c0 19.333 -2 38.833 -6 58.5s-11.167 37.5 -21.5 53.5s-25.333 28.667 -45 38s-45.834 14 -78.501 14c-31.333 0 -57 -6.16699 -77 -18.5s-35.667 -27 -47 -44
s-19.5 -35 -24.5 -54s-8.16699 -34.833 -9.5 -47.5z" />
    <glyph glyph-name="uni04BE" unicode="&#x4be;" horiz-adv-x="1939" 
d="M37 885c0 66.667 11.4951 119.839 34.4951 159.506s43.5 66.167 61.5 79.5l348 -4l-4 -2l-78 -45c-27.333 -15.333 -47.5 -36.166 -60.5 -62.499s-19.5 -51.833 -19.5 -76.5c0 -28.667 11.667 -52.5 35 -71.5s47.333 -28.5 72 -28.5h16.5
c5.66699 0 11.834 0.666992 18.501 2c12 95.333 37.5 181.833 76.5 259.5s89.5 144.167 151.5 199.5s134 98.333 216 129s171.667 46 269 46c125.333 0 234 -18 326 -54s168.5 -87.167 229.5 -153.5s106.167 -146.5 135.5 -240.5s44 -198.333 44 -313v-33
c0 -11.333 -0.666992 -22.333 -2 -33l-971 -6c4 -45.333 13.833 -90.5 29.5 -135.5s36.167 -85.5 61.5 -121.5s55.333 -65.333 90 -88s74 -34 118 -34c42 0 81.833 12.667 119.5 38s70.834 53.666 99.501 84.999s52.167 60.666 70.5 87.999s29.833 43.666 34.5 48.999
l239 -262c-53.333 -58.667 -116.5 -112.167 -189.5 -160.5s-155.833 -83.5 -248.5 -105.5l-76 -45c-27.333 -15.333 -47.5 -36.333 -60.5 -63s-19.5 -52.334 -19.5 -77.001c0 -28.667 11.667 -52.5 35 -71.5s47.333 -28.5 72 -28.5c30 0 67.833 6.5 113.5 19.5
s89.5 27.167 131.5 42.5v-293c-31.333 -13.333 -70.166 -25.333 -116.499 -36s-101.5 -16 -165.5 -16c-46.667 0 -91.167 4.5 -133.5 13.5s-79.833 25.833 -112.5 50.5s-58.5 58.5 -77.5 101.5s-28.5 99.167 -28.5 168.5c0 60 9.83301 109.167 29.5 147.5
s37.167 65.166 52.5 80.499c-147.333 27.333 -268.166 89.666 -362.499 186.999s-153.166 224.666 -176.499 381.999c-12 -1.33301 -24.167 -2 -36.5 -2h-39.5c-46.667 0 -91 4.5 -133 13.5s-79.5 25.667 -112.5 50s-59 58 -78 101s-28.5 99.5 -28.5 169.5zM945.995 850.005
l541.003 0.000976562c-5.33301 45.333 -14.5 88.666 -27.5 129.999s-30.833 78.166 -53.5 110.499s-50.667 58.333 -84 78s-73.333 29.5 -120 29.5c-36.667 0 -69.334 -9.5 -98.001 -28.5s-53.334 -44.167 -74.001 -75.5s-37.834 -68.166 -51.501 -110.499
s-24.5 -86.833 -32.5 -133.5z" />
    <glyph glyph-name="uni04BF" unicode="&#x4bf;" horiz-adv-x="1468" 
d="M20 612c0 46.667 8.32617 84 24.9932 112s31.667 46.667 45 56l254 -2l-4 -2l-55 -31c-20.667 -10.667 -35.834 -25.167 -45.501 -43.5s-14.5 -37.166 -14.5 -56.499s8.5 -35.833 25.5 -49.5s34.5 -20.5 52.5 -20.5c19.333 0 42.666 4.33301 69.999 13
c8 74 27.333 139.5 58 196.5s70.334 105.333 119.001 145s104.334 70.167 167.001 91.5s130.334 32 203.001 32c84.667 0 159.334 -12.333 224.001 -37s118.834 -58.834 162.501 -102.501s76.5 -95.167 98.5 -154.5s33 -124 33 -194c0 -27.333 -2.16699 -54.333 -6.5 -81
s-10.5 -51.334 -18.5 -74.001h-645c2.66699 -13.333 7.16699 -29.666 13.5 -48.999s17 -37.833 32 -55.5s35.333 -32.667 61 -45s60.5 -18.5 104.5 -18.5c18 0 37.5 0.666992 58.5 2s43.833 5.33301 68.5 12s50.667 16.5 78 29.5s54.666 31.167 81.999 54.5l172 -199
c-87.333 -75.333 -181.666 -125 -282.999 -149l-78 -47c-27.333 -16.667 -47.5 -38 -60.5 -64s-19.5 -51.333 -19.5 -76c0 -28.667 11.667 -52.5 35 -71.5s47.333 -28.5 72 -28.5c30 0 67.833 6.5 113.5 19.5s89.834 27.167 132.501 42.5v-293
c-31.333 -13.333 -70.333 -25.333 -117 -36s-102 -16 -166 -16c-46.667 0 -91.167 4.5 -133.5 13.5s-79.833 25.833 -112.5 50.5s-58.5 58.5 -77.5 101.5s-28.5 99.167 -28.5 168.5c0 57.333 8.5 103.166 25.5 137.499s32.833 61.5 47.5 81.5
c-46.667 8 -91.667 22.333 -135 43s-83.166 47.834 -119.499 81.501s-67.833 74 -94.5 121s-46 101.167 -58 162.5c-31.333 -4 -66.333 -6 -105 -6c-32.667 0 -64.667 3 -96 9s-58.666 17.5 -81.999 34.5s-42.166 41 -56.499 72s-21.5 70.833 -21.5 119.5zM773.993 612
h309.001c0 19.333 -2 38.833 -6 58.5s-11.167 37.5 -21.5 53.5s-25.333 28.667 -45 38s-45.834 14 -78.501 14c-31.333 0 -57 -6.16699 -77 -18.5s-35.667 -27 -47 -44s-19.5 -35 -24.5 -54s-8.16699 -34.833 -9.5 -47.5z" />
    <glyph glyph-name="uni04C0" unicode="&#x4c0;" horiz-adv-x="782" 
d="M51 0v272h129v889h-129v271h680v-271h-127v-889h127v-272h-680z" />
    <glyph glyph-name="uni04C1" unicode="&#x4c1;" horiz-adv-x="2355" 
d="M63 1151l3.00293 272.001c13.333 5.33301 35 10.166 65 14.499s62 6.5 96 6.5c84.667 -1.33301 154.334 -11.666 209.001 -30.999s99.167 -44.333 133.5 -75s61 -65 80 -103s34.667 -76.833 47 -116.5l35 -116c11 -37.667 26 -71.5 45 -101.5s44.167 -53.833 75.5 -71.5
s73.666 -26.5 126.999 -26.5v364h-145v265h704v-265h-145v-364c53.333 0 95.666 9.16699 126.999 27.5s56.5 42.5 75.5 72.5s34 64.167 45 102.5s23 77.666 36 117.999s29 79.5 48 117.5s46.333 72.167 82 102.5s81.5 54.666 137.5 72.999s127.667 27.5 215 27.5
c31.333 0 60.666 -2 88 -6c27.333 -4 47 -9 59 -15l2 -272c-23.333 12 -51.333 18 -84 18c-50.667 0 -91.334 -10.833 -122.001 -32.5s-56.167 -50 -76.5 -85s-38 -74 -53 -117s-32.167 -86.167 -51.5 -129.5l279 -539h104v-266h-707v266h123l-112 254
c-56 -15.333 -119.667 -22.666 -191 -21.999h-24v-232h96v-266h-606v266h96v232h-25c-70.667 0 -134 7.33301 -190 22l-113 -254h123v-266h-706v266h104l279 539c-19.333 44 -36.833 87.333 -52.5 130s-33.834 81.5 -54.501 116.5s-46 63.333 -76 85s-70.333 32.5 -121 32.5
c-34 0 -62 -6 -84 -18zM776.003 1847l318 -0.000976562c6.66699 -44 19.5 -78.167 38.5 -102.5s41.5 -36.5 67.5 -36.5c27.333 0 49.166 13.333 65.499 40s27.833 60.334 34.5 101.001l318 2c-6.66699 -54.667 -22 -103.167 -46 -145.5s-54.5 -77.833 -91.5 -106.5
s-79.667 -50.5 -128 -65.5s-99.166 -22.5 -152.499 -22.5c-49.333 0 -97.833 6.83301 -145.5 20.5s-90.667 34.5 -129 62.5s-70.833 63.167 -97.5 105.5s-44 91.5 -52 147.5z" />
    <glyph glyph-name="uni04C2" unicode="&#x4c2;" horiz-adv-x="2136" 
d="M92 756l2 252.001c13.333 2.66699 33.166 5.66699 59.499 9s52.166 5 77.499 5c88.667 -1.33301 157.334 -13 206.001 -35s86.334 -48.333 113.001 -79s46.5 -64 59.5 -100s28 -69 45 -99s40.5 -55.333 70.5 -76s75.667 -31 137 -31v162h-123v248h592v-248h-123v-162
c61.333 0 107.166 10.333 137.499 31s54.333 46 72 76s33 63 46 99s32.833 69.333 59.5 100s63.834 57 111.501 79s115.834 33.667 204.501 35c27.333 0 54.333 -1.66699 81 -5s45.334 -6.33301 56.001 -9v-250c-9.33301 5.33301 -32.333 8 -69 8
c-45.333 0 -80.666 -6.16699 -105.999 -18.5s-45.833 -28 -61.5 -47s-28.167 -40.5 -37.5 -64.5s-21 -47 -35 -69l109.5 -167l109.5 -167v17h90v-250h-596v250h72l-30.5 55.5l-30.5 54.5v-16c-23.333 -5.33301 -52.833 -9.66602 -88.5 -12.999s-67.167 -5 -94.5 -5v-76h82
v-250h-510v250h82v76c-27.333 0 -58.333 1.66699 -93 5s-63.667 7.66602 -87 12.999v16l-61 -110h71v-250h-594v250h86v-17l111.5 167l112.5 169c-4 6.66699 -7.83301 14.167 -11.5 22.5s-6.83398 15.833 -9.50098 22.5v-2l-31.5 56.5
c-10.333 18.333 -23.333 34.666 -39 48.999s-35.834 26 -60.501 35s-55.334 13.5 -92.001 13.5c-35.333 0 -59.333 -3.33301 -72 -10zM612 1436h318.004c6.66699 -44 19.5 -78.333 38.5 -103s41.5 -37 67.5 -37c27.333 0 49.166 13.333 65.499 40s28.166 60.667 35.499 102
l317 2c-6.66699 -54.667 -22 -103.167 -46 -145.5s-54.333 -77.833 -91 -106.5s-79.334 -50.5 -128.001 -65.5s-99.667 -22.5 -153 -22.5c-49.333 0 -97.833 6.83301 -145.5 20.5s-90.5 34.5 -128.5 62.5s-70.333 63.167 -97 105.5s-44.334 91.5 -53.001 147.5z" />
    <glyph glyph-name="uni04C3" unicode="&#x4c3;" horiz-adv-x="1669" 
d="M51 0l-0.00195312 266.003h111v901h-111v265h701v-265h-166v-364c61.333 0 109.666 9.16699 144.999 27.5s64 42.5 86 72.5s39.167 64.167 51.5 102.5s25.666 77.666 39.999 117.999s32.333 79.5 54 117.5s52.334 72.167 92.001 102.5s91.334 54.666 155.001 72.999
s144.5 27.5 242.5 27.5c35.333 0 68.333 -2 99 -6s53.667 -9 69 -15l2 -272c-27.333 12 -58.666 18 -93.999 18c-57.333 0 -103.166 -10.833 -137.499 -32.5s-63.333 -50 -87 -85s-44 -74 -61 -117s-36.5 -86.167 -58.5 -129.5l315 -539h119v-266l-80 -188
c-15.333 -32.667 -32.833 -66.167 -52.5 -100.5s-45.834 -65.5 -78.501 -93.5s-74 -50.833 -124 -68.5s-111.667 -26.5 -185 -26.5c-53.333 2.66699 -100.166 13.5 -140.499 32.5s-76.166 42.167 -107.499 69.5l154 242c19.333 -18 40.833 -34.5 64.5 -49.5
s47.167 -22.5 70.5 -22.5c27.333 0 50.833 11.667 70.5 35s34.167 48.666 43.5 75.999l29 86l-4 8h-459v266h139l-129 254c-31.333 -6.66699 -64.333 -12 -99 -16s-73.334 -6 -116.001 -6h-28v-232h110v-266h-645z" />
    <glyph glyph-name="uni04C4" unicode="&#x4c4;" horiz-adv-x="1456" 
d="M70 0l0.00390625 250.001h92v526h-92v248h589v-248h-139v-184c2.66699 5.33301 4 10.333 4 15s5.66699 7 17 7c62.667 0 109.667 10.333 141 31s56.166 46 74.499 76s34.666 63 48.999 99s36.666 69.5 66.999 100.5s73.333 57.333 129 79s133.5 33.167 233.5 34.5
c28.667 0 57.667 -1.66699 87 -5s51.666 -6.33301 66.999 -9l2 -252c-13.333 6.66699 -39.333 10 -78 10c-39.333 0 -72.833 -4.33301 -100.5 -13s-50.667 -20.167 -69 -34.5s-34 -30.833 -47 -49.5s-24.833 -37.334 -35.5 -56.001l-25 -43l244 -332h109v-250l-78 -188
c-15.333 -32.667 -32.833 -66.167 -52.5 -100.5s-46 -65.5 -79 -93.5s-74.333 -50.833 -124 -68.5s-111.5 -26.5 -185.5 -26.5c-53.333 2.66699 -100 13.5 -140 32.5s-75.667 42.167 -107 69.5l153 242c19.333 -18 41 -34.5 65 -49.5s47.333 -22.5 70 -22.5
c27.333 0 51 11.667 71 35s34.667 48.666 44 75.999l29 86l-4 8h-334v250h80l-34 51.5c-12 17.667 -23.333 35.834 -34 54.501c-52 -12 -111.333 -18 -178 -18h-31v-88h94v-250h-544z" />
    <glyph glyph-name="uni04C5" unicode="&#x4c5;" horiz-adv-x="1677" 
d="M41 262c26 -12 56.665 -18.001 91.998 -18.001c50.667 0 91.667 21.833 123 65.5s47 120.167 47 229.5v624h-176v269h1483v-271h-125v-895h125v-295l-78 -159c-15.333 -32.667 -32.833 -66.167 -52.5 -100.5s-45.834 -65.5 -78.501 -93.5s-73.667 -50.833 -123 -68.5
s-111.333 -26.5 -186 -26.5c-53.333 2.66699 -100.166 13.5 -140.499 32.5s-76.166 42.167 -107.499 69.5l153 242c19.333 -18 41 -34.5 65 -49.5s47.667 -22.5 71 -22.5c27.333 0 50.833 11.667 70.5 35s34.167 48.666 43.5 75.999l29 86l-4 8h-322v268h115v893h-338v-622
c0 -90 -10.167 -170.667 -30.5 -242s-53.5 -131.166 -99.5 -179.499s-105.833 -85.166 -179.5 -110.499s-162.834 -38 -267.501 -38c-19.333 0 -38.166 2.16699 -56.499 6.5s-35.166 9.83301 -50.499 16.5z" />
    <glyph glyph-name="uni04C6" unicode="&#x4c6;" horiz-adv-x="1447" 
d="M61 -4l-0.00292969 250c10.667 -2.66699 22 -5 34 -7s26.667 -3 44 -3c44 0 79.333 11.167 106 33.5s40 62.833 40 121.5v383h-152v250h1247v-252h-104v-522h104v-250l-77 -188c-15.333 -32.667 -32.833 -66.167 -52.5 -100.5s-46 -65.5 -79 -93.5
s-74.333 -50.833 -124 -68.5s-111.5 -26.5 -185.5 -26.5c-53.333 2.66699 -100 13.5 -140 32.5s-76 42.167 -108 69.5l154 242c19.333 -18 40.833 -34.5 64.5 -49.5s47.167 -22.5 70.5 -22.5c27.333 0 51 11.667 71 35s34.667 48.666 44 75.999l29 86l-5 8h-217v252h99v520
h-285v-381c0 -65.333 -8.5 -123.666 -25.5 -174.999s-44.667 -94.333 -83 -129s-88.166 -61.167 -149.499 -79.5s-136.333 -27.5 -225 -27.5c-15.333 0 -31.166 1.66699 -47.499 5s-32.166 7 -47.499 11z" />
    <glyph glyph-name="uni04C7" unicode="&#x4c7;" horiz-adv-x="1572" 
d="M51 0l-0.000976562 270.001h113v891h-113v271h664v-271h-127v-309h389v309h-121v271h666v-271h-119v-891h119v-270l-78 -188c-15.333 -32.667 -32.833 -66.167 -52.5 -100.5s-45.834 -65.5 -78.501 -93.5s-74 -50.833 -124 -68.5s-111.667 -26.5 -185 -26.5
c-53.333 2.66699 -100.166 13.5 -140.499 32.5s-76.166 42.167 -107.499 69.5l153 242c19.333 -18 41 -34.5 65 -49.5s47.333 -22.5 70 -22.5c27.333 0 51 11.667 71 35s34.667 48.666 44 75.999l29 86l-4 8h-328v270h121v310h-389v-310h127v-270h-664z" />
    <glyph glyph-name="uni04C8" unicode="&#x4c8;" horiz-adv-x="1372" 
d="M68 0l0.000976562 252.001h96v518h-96v252h559v-252h-107v-127h326v127h-101v252h560v-252h-101v-518h101v-252l-78 -188c-15.333 -32.667 -32.833 -66.167 -52.5 -100.5s-45.834 -65.5 -78.501 -93.5s-74 -50.833 -124 -68.5s-112 -26.5 -186 -26.5
c-53.333 2.66699 -100 13.5 -140 32.5s-75.667 42.167 -107 69.5l153 242c19.333 -18 41 -34.5 65 -49.5s47.333 -22.5 70 -22.5c27.333 0 51 11.667 71 35s34.667 48.666 44 75.999l29 86l-4 8h-222v252h101v137h-326v-137h107v-252h-559z" />
    <glyph glyph-name="uni04CB" unicode="&#x4cb;" horiz-adv-x="1568" 
d="M53 1161v271h641v-271h-96v-307c0 -54.667 18.5 -96.667 55.5 -126s85.5 -44 145.5 -44h137v481h-86v267h620v-269h-114v-893h114v-270h-372v-319h-287v589h125v193h-225c-74 0 -143.333 8.16699 -208 24.5s-121.667 41.5 -171 75.5s-88.333 76 -117 126s-43 109 -43 177
v295h-119z" />
    <glyph glyph-name="uni04CC" unicode="&#x4cc;" 
d="M31 770v252.002h540v-252h-82v-172c0 -23.333 15.5 -41.5 46.5 -54.5s72.167 -19.5 123.5 -19.5h115v248h-72v250h521v-250h-99v-520h99v-252h-267v-319h-286v571h104v51h-192c-61.333 0 -119.333 6.16699 -174 18.5s-102.5 31.166 -143.5 56.499
s-73.5 56.666 -97.5 93.999s-36 81.333 -36 132v166h-100z" />
    <glyph glyph-name="uni04D0" unicode="&#x4d0;" horiz-adv-x="1685" 
d="M31 0v268h139l276 899h-84v265h787l362 -1164h144v-268h-821v268h194l-43 140h-420l-43 -140h160v-268h-651zM387 1862h318c6.66699 -44 19.5 -78.333 38.5 -103s41.5 -37 67.5 -37c27.333 0 49.166 13.333 65.499 40s27.833 60.667 34.5 102l318 2
c-6.66699 -54.667 -22 -103.167 -46 -145.5s-54.5 -77.833 -91.5 -106.5s-79.667 -50.5 -128 -65.5s-99.166 -22.5 -152.499 -22.5c-49.333 0 -97.833 6.83301 -145.5 20.5s-90.667 34.5 -129 62.5s-70.833 63.167 -97.5 105.5s-44 91.5 -52 147.5zM641 653h268l-135 443z
" />
    <glyph glyph-name="uni04D1" unicode="&#x4d1;" horiz-adv-x="1228" 
d="M31 303c0 57.333 11.1641 109.165 33.4971 155.498s53 86 92 119s84.5 58.333 136.5 76s106.667 26.5 164 26.5c30 0 56.833 -3 80.5 -9s44.167 -13.167 61.5 -21.5s31 -16.666 41 -24.999s16.333 -13.833 19 -16.5v72c0 46.667 -18.333 77.5 -55 92.5
s-83 22.5 -139 22.5c-61.333 0 -117.666 -10.333 -168.999 -31s-96.666 -42 -135.999 -64l-86 238c20.667 12 46.667 26.333 78 43s66.333 32.834 105 48.501s80.334 28.5 125.001 38.5s90.667 15 138 15c61.333 0 124.833 -6.5 190.5 -19.5s125.5 -35.5 179.5 -67.5
s98.333 -75.333 133 -130s52 -122.667 52 -204v-400h123v-262h-438l-49 92c-19.333 -26 -41 -47.5 -65 -64.5s-48.5 -30.333 -73.5 -40s-49.833 -16.5 -74.5 -20.5s-46 -6 -64 -6c-49.333 0 -97.833 6.83301 -145.5 20.5s-90.667 34.167 -129 61.5s-69.333 62.5 -93 105.5
s-35.5 94.5 -35.5 154.5zM142.997 1518h318.004c6.66699 -44 19.5 -78.333 38.5 -103s41.5 -37 67.5 -37c27.333 0 49.166 13.333 65.499 40s28.166 60.667 35.499 102l317 2c-6.66699 -54.667 -22 -103.167 -46 -145.5s-54.333 -77.833 -91 -106.5
s-79.334 -50.5 -128.001 -65.5s-99.667 -22.5 -153 -22.5c-49.333 0 -97.833 6.83301 -145.5 20.5s-90.5 34.5 -128.5 62.5s-70.333 63.167 -97 105.5s-44.334 91.5 -53.001 147.5zM420.001 323.999c0 -28.667 10.1699 -52.001 30.5029 -70.001s46.166 -27 77.499 -27
s58.666 7.5 81.999 22.5s39.666 30.167 48.999 45.5v78c-1.33301 2.66699 -4.33301 7 -9 13s-11.834 12.5 -21.501 19.5s-21.667 13.167 -36 18.5s-32.166 8 -53.499 8c-40.667 0 -70.667 -10.167 -90 -30.5s-29 -46.166 -29 -77.499z" />
    <glyph glyph-name="uni04D2" unicode="&#x4d2;" horiz-adv-x="1685" 
d="M31 0v268h139l276 899h-84v265h787l362 -1164h144v-268h-821v268h194l-43 140h-420l-43 -140h160v-268h-651zM338 1731c0 23.333 4.83496 47.166 14.502 71.499s23.667 46.833 42 67.5s41.5 37.334 69.5 50.001s59.667 19 95 19s67 -6.33301 95 -19
s51.667 -29.334 71 -50.001s34 -43.334 44 -68.001s15 -48.334 15 -71.001c0 -57.333 -19 -106.166 -57 -146.499s-94 -60.5 -168 -60.5c-32.667 0 -62.334 6.16699 -89.001 18.5s-49.834 28.333 -69.501 48s-35 41.834 -46 66.501s-16.5 49.334 -16.5 74.001zM641.002 653
h268l-135 443zM901.002 1731c0 23.333 4.83594 47.166 14.5029 71.499s23.667 46.833 42 67.5s41.5 37.334 69.5 50.001s59.667 19 95 19s67.166 -6.33301 95.499 -19s52 -29.334 71 -50.001s33.667 -43.334 44 -68.001s15.5 -48.334 15.5 -71.001
c0 -57.333 -19.167 -106.166 -57.5 -146.499s-94.5 -60.5 -168.5 -60.5c-32.667 0 -62.334 6.16699 -89.001 18.5s-49.834 28.333 -69.501 48s-35 41.834 -46 66.501s-16.5 49.334 -16.5 74.001z" />
    <glyph glyph-name="uni04D3" unicode="&#x4d3;" horiz-adv-x="1228" 
d="M31 303c0 57.333 11.1641 109.165 33.4971 155.498s53 86 92 119s84.5 58.333 136.5 76s106.667 26.5 164 26.5c30 0 56.833 -3 80.5 -9s44.167 -13.167 61.5 -21.5s31 -16.666 41 -24.999s16.333 -13.833 19 -16.5v72c0 46.667 -18.333 77.5 -55 92.5
s-83 22.5 -139 22.5c-61.333 0 -117.666 -10.333 -168.999 -31s-96.666 -42 -135.999 -64l-86 238c20.667 12 46.667 26.333 78 43s66.333 32.834 105 48.501s80.334 28.5 125.001 38.5s90.667 15 138 15c61.333 0 124.833 -6.5 190.5 -19.5s125.5 -35.5 179.5 -67.5
s98.333 -75.333 133 -130s52 -122.667 52 -204v-400h123v-262h-438l-49 92c-19.333 -26 -41 -47.5 -65 -64.5s-48.5 -30.333 -73.5 -40s-49.833 -16.5 -74.5 -20.5s-46 -6 -64 -6c-49.333 0 -97.833 6.83301 -145.5 20.5s-90.667 34.167 -129 61.5s-69.333 62.5 -93 105.5
s-35.5 94.5 -35.5 154.5zM108.997 1323c0 23.333 4.66602 47.3301 13.999 71.9971s23.333 47.167 42 67.5s41.834 37 69.501 50s59.5 19.5 95.5 19.5c35.333 0 67 -6.5 95 -19.5s51.5 -29.667 70.5 -50s33.667 -42.833 44 -67.5s15.5 -48.667 15.5 -72
c0 -57.333 -19.167 -106.166 -57.5 -146.499s-94.166 -60.5 -167.499 -60.5c-32.667 0 -62.334 6.16699 -89.001 18.5s-50 28.333 -70 48s-35.333 41.834 -46 66.501s-16 49.334 -16 74.001zM419.996 323.996c0 -28.667 10.1699 -52.001 30.5029 -70.001
s46.166 -27 77.499 -27s58.666 7.5 81.999 22.5s39.666 30.167 48.999 45.5v78c-1.33301 2.66699 -4.33301 7 -9 13s-11.834 12.5 -21.501 19.5s-21.667 13.167 -36 18.5s-32.166 8 -53.499 8c-40.667 0 -70.667 -10.167 -90 -30.5s-29 -46.166 -29 -77.499zM671.999 1323
c0 23.333 4.66895 47.3301 14.002 71.9971s23.333 47.167 42 67.5s42 37 70 50s59.667 19.5 95 19.5s67 -6.5 95 -19.5s51.5 -29.667 70.5 -50s33.667 -42.833 44 -67.5s15.5 -48.667 15.5 -72c0 -57.333 -19 -106.166 -57 -146.499s-94 -60.5 -168 -60.5
c-32.667 0 -62.334 6.16699 -89.001 18.5s-49.834 28.333 -69.501 48s-35 41.834 -46 66.501s-16.5 49.334 -16.5 74.001z" />
    <glyph glyph-name="uni04D4" unicode="&#x4d4;" horiz-adv-x="2379" 
d="M88 0v268h139l533 899h-84v265h1603v-453h-354v182h-328v-282h390v-273h-390v-334h328v191h354v-463h-1235v272h130v136h-449l-84 -140h158v-268h-711zM870 653h304v514z" />
    <glyph glyph-name="uni04D5" unicode="&#x4d5;" horiz-adv-x="1853" 
d="M31 303c0 57.333 11.1631 109.166 33.4961 155.499s53 86 92 119s84.5 58.333 136.5 76s106.667 26.5 164 26.5c30 0 56.833 -3 80.5 -9s44.167 -13.167 61.5 -21.5s31 -16.666 41 -24.999s16.333 -13.833 19 -16.5v72c0 46.667 -18.333 77.5 -55 92.5
s-83 22.5 -139 22.5c-61.333 0 -117.666 -10.333 -168.999 -31s-96.666 -42 -135.999 -64l-86 238c20.667 12 46.667 26.333 78 43s66.333 32.834 105 48.501s80.334 28.5 125.001 38.5s90.667 15 138 15c69.333 0 140 -8.16699 212 -24.5s136.667 -44.833 194 -85.5
c44 26 91.833 45.833 143.5 59.5s106.834 20.5 165.501 20.5c84.667 0 159.334 -12.333 224.001 -37s119 -58.834 163 -102.501s76.833 -95.167 98.5 -154.5s32.5 -124 32.5 -194c0 -27.333 -2 -54.333 -6 -81s-10 -51.334 -18 -74.001h-646
c2.66699 -13.333 7.16699 -29.666 13.5 -48.999s17 -37.833 32 -55.5s35.5 -32.667 61.5 -45s60.667 -18.5 104 -18.5c18 0 37.5 0.666992 58.5 2s43.833 5.33301 68.5 12s50.667 16.5 78 29.5s54.666 31.167 81.999 54.5l172 -199
c-76.667 -65.333 -157.334 -111.333 -242.001 -138s-180 -40 -286 -40c-76.667 0 -152.5 14.667 -227.5 44s-139.167 76 -192.5 140c-19.333 -26 -43 -50.167 -71 -72.5s-58 -42 -90 -59s-66.167 -30.333 -102.5 -40s-72.166 -14.5 -107.499 -14.5
c-49.333 0 -97.833 6.83301 -145.5 20.5s-90.667 34.167 -129 61.5s-69.333 62.5 -93 105.5s-35.5 94.5 -35.5 154.5zM419.996 324c0 -28.667 10.1699 -52.001 30.5029 -70.001s46.166 -27 77.499 -27s58.666 7.5 81.999 22.5s39.666 30.167 48.999 45.5v78
c-1.33301 2.66699 -4.33301 7 -9 13s-11.834 12.5 -21.501 19.5s-21.667 13.167 -36 18.5s-32.166 8 -53.499 8c-40.667 0 -70.667 -10.167 -90 -30.5s-29 -46.166 -29 -77.499zM1090 611.999h309.002c0 19.333 -2.16699 38.833 -6.5 58.5s-11.5 37.5 -21.5 53.5
s-25 28.667 -45 38s-46.333 14 -79 14c-31.333 0 -56.833 -6.16699 -76.5 -18.5s-35.334 -27 -47.001 -44s-19.834 -35 -24.501 -54s-7.66699 -34.833 -9 -47.5z" />
    <glyph glyph-name="uni04D6" unicode="&#x4d6;" horiz-adv-x="1337" 
d="M51 0v272h129v889h-129v271h1235v-453h-354v182h-328v-282h389v-273h-389v-334h328v191h354v-463h-1235zM250 1878l317 -0.000976562c6.66699 -44 19.667 -78.167 39 -102.5s42 -36.5 68 -36.5c27.333 0 49.166 13.333 65.499 40s27.833 60.334 34.5 101.001l318 2
c-6.66699 -54.667 -22 -103.167 -46 -145.5s-54.5 -77.833 -91.5 -106.5s-79.667 -50.5 -128 -65.5s-99.166 -22.5 -152.499 -22.5c-49.333 0 -97.833 6.83301 -145.5 20.5s-90.667 34.5 -129 62.5s-70.833 63.167 -97.5 105.5s-44 91.5 -52 147.5z" />
    <glyph glyph-name="uni04D7" unicode="&#x4d7;" horiz-adv-x="1110" 
d="M10 518c0 83.333 14.334 158.171 43.001 224.504s67.667 122.666 117 168.999s107.333 81.5 174 105.5s139 36 217 36c84.667 0 159.5 -12.333 224.5 -37s119.333 -58.834 163 -102.501s76.334 -95.167 98.001 -154.5s32.5 -124 32.5 -194c0 -27.333 -2 -54.333 -6 -81
s-10 -51.334 -18 -74.001h-645c2.66699 -13.333 7 -29.666 13 -48.999s16.5 -37.833 31.5 -55.5s35.5 -32.667 61.5 -45s61 -18.5 105 -18.5c18 0 37.5 0.666992 58.5 2s43.667 5.33301 68 12s50.166 16.5 77.499 29.5s54.666 31.167 81.999 54.5l172 -199
c-76.667 -65.333 -157.167 -111.333 -241.5 -138s-179.833 -40 -286.5 -40c-64 0 -128.167 10.667 -192.5 32s-122 54.166 -173 98.499s-93 101.666 -126 171.999s-49.5 154.5 -49.5 252.5zM176.001 1458l318 -0.000976562c6.66699 -44 19.5 -78.167 38.5 -102.5
s41.5 -36.5 67.5 -36.5c27.333 0 49.166 13.333 65.499 40s27.833 60.334 34.5 101.001l318 2c-6.66699 -54.667 -22 -103.167 -46 -145.5s-54.5 -77.833 -91.5 -106.5s-79.667 -50.5 -128 -65.5s-99.166 -22.5 -152.499 -22.5c-49.333 0 -97.833 6.83301 -145.5 20.5
s-90.667 34.5 -129 62.5s-70.833 63.167 -97.5 105.5s-44 91.5 -52 147.5zM416.001 612.004h309.002c0 19.333 -2 38.833 -6 58.5s-11.167 37.5 -21.5 53.5s-25.5 28.667 -45.5 38s-46.333 14 -79 14c-31.333 0 -56.833 -6.16699 -76.5 -18.5s-35.334 -27 -47.001 -44
s-19.834 -35 -24.501 -54s-7.66699 -34.833 -9 -47.5z" />
    <glyph glyph-name="uni04D8" unicode="&#x4d8;" horiz-adv-x="1515" 
d="M31 729l-0.000976562 32.4971c0 11 0.666992 22.167 2 33.5l971 6c-4 45.333 -13.667 87.333 -29 126s-35.5 72.334 -60.5 101.001s-55 51.167 -90 67.5s-74.167 24.5 -117.5 24.5c-44 0 -84.833 -9.5 -122.5 -28.5s-70.834 -40.5 -99.501 -64.5
s-52.167 -46.5 -70.5 -67.5s-29.5 -34.167 -33.5 -39.5l-240 262c34 38 73.333 74.333 118 109s92.834 65.334 144.501 92.001s107.667 47.834 168 63.501s123.833 23.5 190.5 23.5c112 0 212.667 -17.333 302 -52s165 -84.5 227 -149.5s109.833 -144.167 143.5 -237.5
s50.5 -198.666 50.5 -315.999c0 -110.667 -17.5 -211.834 -52.5 -303.501s-84.167 -170.5 -147.5 -236.5s-139 -117.167 -227 -153.5s-185.333 -54.5 -292 -54.5c-125.333 0 -234.166 18.167 -326.499 54.5s-168.833 87.5 -229.5 153.5s-105.667 146.167 -135 240.5
s-44 198.833 -44 313.5zM550.999 587.997c10.667 -90 33.8311 -163.333 69.498 -220s84.834 -85 147.501 -85c52 0 98.833 27.167 140.5 81.5s69.834 128.833 84.501 223.5h-442z" />
    <glyph glyph-name="afii10846" unicode="&#x4d9;" horiz-adv-x="1110" 
d="M10 451c0 27.333 1.66797 54.167 5.00098 80.5s10 51.166 20 74.499h645c-2.66699 13.333 -7.16699 29.666 -13.5 48.999s-17 37.833 -32 55.5s-35.833 32.667 -62.5 45s-61 18.5 -103 18.5c-18 0 -37.833 -0.666992 -59.5 -2s-44.834 -5.33301 -69.501 -12
s-50.334 -16.5 -77.001 -29.5s-53.667 -31.167 -81 -54.5l-172 198c76.667 65.333 157.334 111.5 242.001 138.5s180.334 40.5 287.001 40.5c62.667 0 126.334 -10.667 191.001 -32s122.667 -54.166 174 -98.499s93.333 -101.666 126 -171.999s49 -154.5 49 -252.5
c0 -84.667 -14.333 -159.834 -43 -225.501s-67.5 -121.667 -116.5 -168s-107 -81.5 -174 -105.5s-139.5 -36 -217.5 -36c-84.667 0 -159.334 12.333 -224.001 37s-118.834 58.834 -162.501 102.501s-76.5 95.167 -98.5 154.5s-33 124 -33 194zM365.001 403.001
c0 -19.333 1.99902 -38.832 5.99902 -58.499s11.167 -37.334 21.5 -53.001s25.333 -28.167 45 -37.5s45.834 -14 78.501 -14c31.333 0 57 6 77 18s35.667 26.667 47 44s19.5 35.5 24.5 54.5s8.16699 34.5 9.5 46.5h-309z" />
    <glyph glyph-name="uni04DA" unicode="&#x4da;" horiz-adv-x="1523" 
d="M31 729l-0.000976562 32.4971c0 11 0.666992 22.167 2 33.5l971 6c-4 45.333 -13.667 87.333 -29 126s-35.5 72.334 -60.5 101.001s-55 51.167 -90 67.5s-74.167 24.5 -117.5 24.5c-44 0 -84.833 -9.5 -122.5 -28.5s-70.834 -40.5 -99.501 -64.5
s-52.167 -46.5 -70.5 -67.5s-29.5 -34.167 -33.5 -39.5l-240 262c34 38 73.333 74.333 118 109s92.834 65.334 144.501 92.001s107.667 47.834 168 63.501s123.833 23.5 190.5 23.5c112 0 212.667 -17.333 302 -52s165 -84.5 227 -149.5s109.833 -144.167 143.5 -237.5
s50.5 -198.666 50.5 -315.999c0 -110.667 -17.5 -211.834 -52.5 -303.501s-84.167 -170.5 -147.5 -236.5s-139 -117.167 -227 -153.5s-185.333 -54.5 -292 -54.5c-125.333 0 -234.166 18.167 -326.499 54.5s-168.833 87.5 -229.5 153.5s-105.667 146.167 -135 240.5
s-44 198.833 -44 313.5zM255.999 1731c0 23.333 4.83496 47.166 14.502 71.499s23.667 46.833 42 67.5s41.5 37.334 69.5 50.001s59.667 19 95 19s67 -6.33301 95 -19s51.667 -29.334 71 -50.001s34 -43.334 44 -68.001s15 -48.334 15 -71.001
c0 -57.333 -19 -106.166 -57 -146.499s-94 -60.5 -168 -60.5c-32.667 0 -62.334 6.16699 -89.001 18.5s-49.834 28.333 -69.501 48s-35 41.834 -46 66.501s-16.5 49.334 -16.5 74.001zM551.001 587.997c10.667 -90 33.8311 -163.333 69.498 -220s84.834 -85 147.501 -85
c52 0 98.833 27.167 140.5 81.5s69.834 128.833 84.501 223.5h-442zM818.998 1731c0 23.333 4.83594 47.166 14.5029 71.499s23.667 46.833 42 67.5s41.5 37.334 69.5 50.001s59.667 19 95 19s67.166 -6.33301 95.499 -19s52 -29.334 71 -50.001s33.667 -43.334 44 -68.001
s15.5 -48.334 15.5 -71.001c0 -57.333 -19.167 -106.166 -57.5 -146.499s-94.5 -60.5 -168.5 -60.5c-32.667 0 -62.334 6.16699 -89.001 18.5s-49.834 28.333 -69.501 48s-35 41.834 -46 66.501s-16.5 49.334 -16.5 74.001z" />
    <glyph glyph-name="uni04DB" unicode="&#x4db;" horiz-adv-x="1110" 
d="M10 451c0 27.333 1.66797 54.167 5.00098 80.5s10 51.166 20 74.499h645c-2.66699 13.333 -7.16699 29.666 -13.5 48.999s-17 37.833 -32 55.5s-35.833 32.667 -62.5 45s-61 18.5 -103 18.5c-18 0 -37.833 -0.666992 -59.5 -2s-44.834 -5.33301 -69.501 -12
s-50.334 -16.5 -77.001 -29.5s-53.667 -31.167 -81 -54.5l-172 198c76.667 65.333 157.334 111.5 242.001 138.5s180.334 40.5 287.001 40.5c62.667 0 126.334 -10.667 191.001 -32s122.667 -54.166 174 -98.499s93.333 -101.666 126 -171.999s49 -154.5 49 -252.5
c0 -84.667 -14.333 -159.834 -43 -225.501s-67.5 -121.667 -116.5 -168s-107 -81.5 -174 -105.5s-139.5 -36 -217.5 -36c-84.667 0 -159.334 12.333 -224.001 37s-118.834 58.834 -162.501 102.501s-76.5 95.167 -98.5 154.5s-33 124 -33 194zM33.001 1290
c0 23.333 4.66895 47.332 14.002 71.999s23.333 47.167 42 67.5s42 37 70 50s59.667 19.5 95 19.5s67 -6.5 95 -19.5s51.667 -29.667 71 -50s34 -42.833 44 -67.5s15 -48.667 15 -72c0 -57.333 -19 -106.166 -57 -146.499s-94 -60.5 -168 -60.5
c-32.667 0 -62.334 6.16699 -89.001 18.5s-49.834 28.5 -69.501 48.5s-35 42.167 -46 66.5s-16.5 48.833 -16.5 73.5zM365.003 403c0 -19.333 1.99902 -38.832 5.99902 -58.499s11.167 -37.334 21.5 -53.001s25.333 -28.167 45 -37.5s45.834 -14 78.501 -14
c31.333 0 57 6 77 18s35.667 26.667 47 44s19.5 35.5 24.5 54.5s8.16699 34.5 9.5 46.5h-309zM596.002 1290c0 23.333 4.83496 47.332 14.502 71.999s23.667 47.167 42 67.5s41.5 37 69.5 50s59.667 19.5 95 19.5s67 -6.5 95 -19.5s51.667 -29.667 71 -50
s34 -42.833 44 -67.5s15 -48.667 15 -72c0 -57.333 -19 -106.166 -57 -146.499s-94 -60.5 -168 -60.5c-32.667 0 -62.334 6.16699 -89.001 18.5s-49.834 28.5 -69.501 48.5s-35 42.167 -46 66.5s-16.5 48.833 -16.5 73.5z" />
    <glyph glyph-name="uni04DC" unicode="&#x4dc;" horiz-adv-x="2355" 
d="M63 1151l3.00293 272.001c13.333 5.33301 35 10.166 65 14.499s62 6.5 96 6.5c84.667 -1.33301 154.334 -11.666 209.001 -30.999s99.167 -44.333 133.5 -75s61 -65 80 -103s34.667 -76.833 47 -116.5l35 -116c11 -37.667 26 -71.5 45 -101.5s44.167 -53.833 75.5 -71.5
s73.666 -26.5 126.999 -26.5v364h-145v265h704v-265h-145v-364c53.333 0 95.666 9.16699 126.999 27.5s56.5 42.5 75.5 72.5s34 64.167 45 102.5s23 77.666 36 117.999s29 79.5 48 117.5s46.333 72.167 82 102.5s81.5 54.666 137.5 72.999s127.667 27.5 215 27.5
c31.333 0 60.666 -2 88 -6c27.333 -4 47 -9 59 -15l2 -272c-23.333 12 -51.333 18 -84 18c-50.667 0 -91.334 -10.833 -122.001 -32.5s-56.167 -50 -76.5 -85s-38 -74 -53 -117s-32.167 -86.167 -51.5 -129.5l279 -539h104v-266h-707v266h123l-112 254
c-56 -15.333 -119.667 -22.666 -191 -21.999h-24v-232h96v-266h-606v266h96v232h-25c-70.667 0 -134 7.33301 -190 22l-113 -254h123v-266h-706v266h104l279 539c-19.333 44 -36.833 87.333 -52.5 130s-33.834 81.5 -54.501 116.5s-46 63.333 -76 85s-70.333 32.5 -121 32.5
c-34 0 -62 -6 -84 -18zM676.003 1731c0 23.333 4.83496 47.166 14.502 71.499s23.667 46.833 42 67.5s41.5 37.334 69.5 50.001s59.667 19 95 19s67 -6.33301 95 -19s51.667 -29.334 71 -50.001s34 -43.334 44 -68.001s15 -48.334 15 -71.001
c0 -57.333 -19 -106.166 -57 -146.499s-94 -60.5 -168 -60.5c-32.667 0 -62.334 6.16699 -89.001 18.5s-49.834 28.333 -69.501 48s-35 41.834 -46 66.501s-16.5 49.334 -16.5 74.001zM1239 1731c0 23.333 4.83594 47.166 14.5029 71.499s23.667 46.833 42 67.5
s41.5 37.334 69.5 50.001s59.667 19 95 19s67 -6.33301 95 -19s51.667 -29.334 71 -50.001s34.166 -43.334 44.499 -68.001s15.5 -48.334 15.5 -71.001c0 -57.333 -19.167 -106.166 -57.5 -146.499s-94.5 -60.5 -168.5 -60.5c-32.667 0 -62.334 6.16699 -89.001 18.5
s-49.834 28.333 -69.501 48s-35 41.834 -46 66.501s-16.5 49.334 -16.5 74.001z" />
    <glyph glyph-name="uni04DD" unicode="&#x4dd;" horiz-adv-x="2136" 
d="M92 756l2 252.001c13.333 2.66699 33.166 5.66699 59.499 9s52.166 5 77.499 5c88.667 -1.33301 157.334 -13 206.001 -35s86.334 -48.333 113.001 -79s46.5 -64 59.5 -100s28 -69 45 -99s40.5 -55.333 70.5 -76s75.667 -31 137 -31v162h-123v248h592v-248h-123v-162
c61.333 0 107.166 10.333 137.499 31s54.333 46 72 76s33 63 46 99s32.833 69.333 59.5 100s63.834 57 111.501 79s115.834 33.667 204.501 35c27.333 0 54.333 -1.66699 81 -5s45.334 -6.33301 56.001 -9v-250c-9.33301 5.33301 -32.333 8 -69 8
c-45.333 0 -80.666 -6.16699 -105.999 -18.5s-45.833 -28 -61.5 -47s-28.167 -40.5 -37.5 -64.5s-21 -47 -35 -69l109.5 -167l109.5 -167v17h90v-250h-596v250h72l-30.5 55.5l-30.5 54.5v-16c-23.333 -5.33301 -52.833 -9.66602 -88.5 -12.999s-67.167 -5 -94.5 -5v-76h82
v-250h-510v250h82v76c-27.333 0 -58.333 1.66699 -93 5s-63.667 7.66602 -87 12.999v16l-61 -110h71v-250h-594v250h86v-17l111.5 167l112.5 169c-4 6.66699 -7.83301 14.167 -11.5 22.5s-6.83398 15.833 -9.50098 22.5v-2l-31.5 56.5
c-10.333 18.333 -23.333 34.666 -39 48.999s-35.834 26 -60.501 35s-55.334 13.5 -92.001 13.5c-35.333 0 -59.333 -3.33301 -72 -10zM535 1290c0 23.333 4.66797 47.332 14.001 71.999s23.166 47.167 41.499 67.5s41.5 37 69.5 50s60 19.5 96 19.5
c35.333 0 67 -6.5 95 -19.5s51.5 -29.667 70.5 -50s33.667 -42.833 44 -67.5s15.5 -48.667 15.5 -72c0 -57.333 -19.167 -106.166 -57.5 -146.499s-94.166 -60.5 -167.499 -60.5c-32.667 0 -62.334 6.16699 -89.001 18.5s-50 28.5 -70 48.5s-35.333 42.167 -46 66.5
s-16 48.833 -16 73.5zM1098 1290c0 23.333 4.66797 47.332 14.001 71.999s23.333 47.167 42 67.5s42 37 70 50s59.667 19.5 95 19.5s67 -6.5 95 -19.5s51.5 -29.667 70.5 -50s33.667 -42.833 44 -67.5s15.5 -48.667 15.5 -72c0 -57.333 -19 -106.166 -57 -146.499
s-94 -60.5 -168 -60.5c-32.667 0 -62.334 6.16699 -89.001 18.5s-50 28.5 -70 48.5s-35.333 42.167 -46 66.5s-16 48.833 -16 73.5z" />
    <glyph glyph-name="uni04DE" unicode="&#x4de;" horiz-adv-x="1366" 
d="M31 205l258 217c48 -38 97.5 -69.667 148.5 -95s112.833 -38 185.5 -38c70.667 0 126.167 13.333 166.5 40s60.5 65.667 60.5 117c0 56 -19.167 95 -57.5 117s-88.833 33 -151.5 33h-190v244h184c60 0 110.833 11.5 152.5 34.5s62.5 58.5 62.5 106.5
c0 20.667 -2.33301 40.834 -7 60.501s-13.834 37 -27.501 52s-32.834 27 -57.501 36s-56 13.5 -94 13.5c-35.333 0 -65.666 -6.83301 -90.999 -20.5s-46.666 -30.834 -63.999 -51.501s-31 -43.834 -41 -69.501s-18 -50.834 -24 -75.501h-376v506h321l47 -115
c26 32.667 66 63.667 120 93s123.333 44 208 44c174.667 0 303.334 -37.833 386.001 -113.5s124 -183.834 124 -324.501c0 -52 -14.333 -95.667 -43 -131s-58.667 -64.666 -90 -87.999c-20.667 -15.333 -39.334 -27.666 -56.001 -36.999c20.667 -12 44.667 -27.667 72 -47
s53 -42.666 77 -69.999s44.5 -59 61.5 -95s25.5 -77.333 25.5 -124c0 -76.667 -20.5 -143 -61.5 -199s-94.667 -102.667 -161 -140s-141 -65.333 -224 -84s-167.5 -28 -253.5 -28c-60 0 -120.167 6.5 -180.5 19.5s-116.666 30.167 -168.999 51.5s-99.333 46 -141 74
s-74.834 57 -99.501 87zM201 1720c0 23.333 4.66699 47.332 14 71.999s23.333 47.167 42 67.5s42 37 70 50s59.667 19.5 95 19.5s67 -6.5 95 -19.5s51.5 -29.667 70.5 -50s33.667 -42.833 44 -67.5s15.5 -48.667 15.5 -72c0 -57.333 -19.167 -106.166 -57.5 -146.499
s-94.166 -60.5 -167.499 -60.5c-32.667 0 -62.334 6.16699 -89.001 18.5s-50 28.5 -70 48.5s-35.333 42.167 -46 66.5s-16 48.833 -16 73.5zM764 1720c0 23.333 4.83496 47.332 14.502 71.999s23.667 47.167 42 67.5s41.5 37 69.5 50s59.667 19.5 95 19.5s67 -6.5 95 -19.5
s51.667 -29.667 71 -50s34 -42.833 44 -67.5s15 -48.667 15 -72c0 -57.333 -19 -106.166 -57 -146.499s-94 -60.5 -168 -60.5c-32.667 0 -62.334 6.16699 -89.001 18.5s-49.834 28.5 -69.501 48.5s-35 42.167 -46 66.5s-16.5 48.833 -16.5 73.5z" />
    <glyph glyph-name="uni04DF" unicode="&#x4df;" horiz-adv-x="1140" 
d="M10 182l253.999 164c35.333 -23.333 74.5 -42.5 117.5 -57.5s97.5 -22.5 163.5 -22.5c61.333 0 108.666 5.5 141.999 16.5s50 27.5 50 49.5c0 20.667 -16.333 35.667 -49 45s-75 14 -127 14h-98v236h92c52 0 95.333 4.33301 130 13s52 21.334 52 38.001
c0 9.33301 -2 18.166 -6 26.499s-11.833 15.833 -23.5 22.5s-28 12.167 -49 16.5s-47.833 6.5 -80.5 6.5c-31.333 0 -58 -4.5 -80 -13.5s-40.5 -20.667 -55.5 -35s-27 -30 -36 -47s-16.167 -33.833 -21.5 -50.5h-305v408h258l49 -99v13c24.667 26 60.167 49.5 106.5 70.5
s103.833 31.5 172.5 31.5c147.333 0 255.833 -23.5 325.5 -70.5s104.5 -124.5 104.5 -232.5c0 -39.333 -10.667 -76.833 -32 -112.5s-43.666 -60.834 -66.999 -75.501c31.333 -20.667 61.333 -48.834 90 -84.501s43 -81.5 43 -137.5s-17 -104.833 -51 -146.5
s-78.667 -76 -134 -103s-118 -47.333 -188 -61s-141.333 -20.5 -214 -20.5c-49.333 0 -99.666 5.33301 -150.999 16s-100.5 25.334 -147.5 44.001s-91 39.834 -132 63.501s-75.167 48.5 -102.5 74.5zM85.999 1290c0 23.333 4.83496 47.332 14.502 71.999
s23.667 47.167 42 67.5s41.5 37 69.5 50s59.667 19.5 95 19.5s67 -6.5 95 -19.5s51.667 -29.667 71 -50s34 -42.833 44 -67.5s15 -48.667 15 -72c0 -57.333 -19 -106.166 -57 -146.499s-94 -60.5 -168 -60.5c-32.667 0 -62.334 6.16699 -89.001 18.5
s-49.834 28.5 -69.501 48.5s-35 42.167 -46 66.5s-16.5 48.833 -16.5 73.5zM649.001 1290c0 23.333 4.83594 47.332 14.5029 71.999s23.667 47.167 42 67.5s41.5 37 69.5 50s59.667 19.5 95 19.5s67.166 -6.5 95.499 -19.5s52 -29.667 71 -50s33.667 -42.833 44 -67.5
s15.5 -48.667 15.5 -72c0 -57.333 -19.167 -106.166 -57.5 -146.499s-94.5 -60.5 -168.5 -60.5c-32.667 0 -62.334 6.16699 -89.001 18.5s-49.834 28.5 -69.501 48.5s-35 42.167 -46 66.5s-16.5 48.833 -16.5 73.5z" />
    <glyph glyph-name="uni04E0" unicode="&#x4e0;" horiz-adv-x="1376" 
d="M31 205l258 217c48 -38 97.5 -69.667 148.5 -95s112.833 -38 185.5 -38c35.333 0 67 5.83301 95 17.5s51.833 27 71.5 46s34.667 40.833 45 65.5s15.5 50 15.5 76c0 56 -19.167 100.667 -57.5 134s-88.833 50 -151.5 50h-100v244h4l293 239h-428v-268h-347v539h1248v-273
l-307 -282h-5c36.667 -13.333 74.167 -31 112.5 -53s73 -48.833 104 -80.5s56.333 -67.167 76 -106.5s29.5 -83 29.5 -131c0 -76.667 -20.5 -147.334 -61.5 -212.001s-94.667 -120.667 -161 -168s-141 -84.666 -224 -111.999s-167.5 -41 -253.5 -41
c-60 0 -120.167 6.5 -180.5 19.5s-116.666 30.167 -168.999 51.5s-99.333 46 -141 74s-74.834 57 -99.501 87z" />
    <glyph glyph-name="uni04E1" unicode="&#x4e1;" horiz-adv-x="1132" 
d="M10 -315l254.002 163.003c35.333 -23.333 74.5 -42.333 117.5 -57s97.5 -22 163.5 -22c61.333 0 108.666 19.667 141.999 59s50 91.333 50 156c0 49.333 -7.83301 89.666 -23.5 120.999s-35.834 56.5 -60.501 75.5s-51.334 32.167 -80.001 39.5s-55.667 11 -81 11h-82
v134l299 395h-392v-146h-266v410h1049v-264l-271 -350c34 -9.33301 68.833 -24.333 104.5 -45s68.167 -48.834 97.5 -84.501s53.166 -80.834 71.499 -135.501s27.5 -120.667 27.5 -198c0 -79.333 -17 -148 -51 -206s-78.667 -105.833 -134 -143.5
s-118.166 -65.667 -188.499 -84s-141.5 -27.5 -213.5 -27.5c-49.333 0 -99.666 5.5 -150.999 16.5s-100.5 25.667 -147.5 44s-91 39.5 -132 63.5s-75.167 49 -102.5 75z" />
    <glyph glyph-name="uni04E2" unicode="&#x4e2;" horiz-adv-x="1755" 
d="M51 0v264h135v903h-135v265h682v-265h-139v-594l584 859h505v-265h-118v-903h121v-264h-695v264h158v592l-574 -856h-524zM295 1565v272h1143v-272h-1143z" />
    <glyph glyph-name="uni04E3" unicode="&#x4e3;" horiz-adv-x="1523" 
d="M72 0v247.999h112l4 526h-112v248h573v-248h-114c0 -56 -1.16699 -111.667 -3.5 -167s-3.5 -111.666 -3.5 -168.999l122 140.5l131.5 151.5l131 151.5l121.5 140.5h412v-248h-98v-526h98v-248h-584v248h131v327l-246 -287.5l-245 -287.5h-430zM193 1161v273h1142v-273
h-1142z" />
    <glyph glyph-name="uni04E4" unicode="&#x4e4;" horiz-adv-x="1755" 
d="M51 0v264h135v903h-135v265h682v-265h-139v-594l584 859h505v-265h-118v-903h121v-264h-695v264h158v592l-574 -856h-524zM362 1731c0 23.333 4.83301 47.166 14.5 71.499s23.667 46.833 42 67.5s41.5 37.334 69.5 50.001s60 19 96 19c35.333 0 67 -6.33301 95 -19
s51.5 -29.334 70.5 -50.001s33.667 -43.334 44 -68.001s15.5 -48.334 15.5 -71.001c0 -57.333 -19.167 -106.166 -57.5 -146.499s-94.166 -60.5 -167.499 -60.5c-32.667 0 -62.334 6.16699 -89.001 18.5s-50 28.333 -70 48s-35.5 41.834 -46.5 66.501
s-16.5 49.334 -16.5 74.001zM926 1731c0 23.333 4.66699 47.166 14 71.499s23.333 46.833 42 67.5s42 37.334 70 50.001s59.667 19 95 19s67 -6.33301 95 -19s51.5 -29.334 70.5 -50.001s33.667 -43.334 44 -68.001s15.5 -48.334 15.5 -71.001
c0 -57.333 -19.167 -106.166 -57.5 -146.499s-94.166 -60.5 -167.499 -60.5c-32.667 0 -62.334 6.16699 -89.001 18.5s-50 28.333 -70 48s-35.333 41.834 -46 66.501s-16 49.334 -16 74.001z" />
    <glyph glyph-name="uni04E5" unicode="&#x4e5;" horiz-adv-x="1523" 
d="M72 0v247.999h112l4 526h-112v248h573v-248h-114c0 -56 -1.16699 -111.667 -3.5 -167s-3.5 -111.666 -3.5 -168.999l122 140.5l131.5 151.5l131 151.5l121.5 140.5h412v-248h-98v-526h98v-248h-584v248h131v327l-246 -287.5l-245 -287.5h-430zM258 1290
c0 23.333 4.83594 47.332 14.5029 71.999s23.667 47.167 42 67.5s41.5 37 69.5 50s59.667 19.5 95 19.5s67 -6.5 95 -19.5s51.667 -29.667 71 -50s34.166 -42.833 44.499 -67.5s15.5 -48.667 15.5 -72c0 -57.333 -19.167 -106.166 -57.5 -146.499s-94.5 -60.5 -168.5 -60.5
c-32.667 0 -62.334 6.16699 -89.001 18.5s-49.834 28.5 -69.501 48.5s-35 42.167 -46 66.5s-16.5 48.833 -16.5 73.5zM821.003 1290c0 23.333 4.83594 47.332 14.5029 71.999s23.667 47.167 42 67.5s41.5 37 69.5 50s59.667 19.5 95 19.5s67.166 -6.5 95.499 -19.5
s52 -29.667 71 -50s33.667 -42.833 44 -67.5s15.5 -48.667 15.5 -72c0 -57.333 -19.167 -106.166 -57.5 -146.499s-94.5 -60.5 -168.5 -60.5c-32.667 0 -62.334 6.16699 -89.001 18.5s-49.834 28.5 -69.501 48.5s-35 42.167 -46 66.5s-16.5 48.833 -16.5 73.5z" />
    <glyph glyph-name="uni04E6" unicode="&#x4e6;" horiz-adv-x="1515" 
d="M31 723c0 110.667 17.332 211.667 51.999 303s83.834 170.166 147.501 236.499s139.5 117.5 227.5 153.5s185.333 54 292 54c125.333 0 234 -18 326 -54s168.5 -87.167 229.5 -153.5s106.167 -146.5 135.5 -240.5s44 -198.333 44 -313
c0 -116 -15.667 -220.167 -47 -312.5s-77.833 -170.5 -139.5 -234.5s-137.167 -113.167 -226.5 -147.5s-192 -51.5 -308 -51.5c-106.667 0 -205 15.667 -295 47s-167.5 78.5 -232.5 141.5s-115.5 141.833 -151.5 236.5s-54 206.334 -54 335.001zM251.999 1731
c0 23.333 4.83496 47.166 14.502 71.499s23.667 46.833 42 67.5s41.5 37.334 69.5 50.001s59.667 19 95 19s67 -6.33301 95 -19s51.667 -29.334 71 -50.001s34 -43.334 44 -68.001s15 -48.334 15 -71.001c0 -57.333 -19 -106.166 -57 -146.499s-94 -60.5 -168 -60.5
c-32.667 0 -62.334 6.16699 -89.001 18.5s-49.834 28.333 -69.501 48s-35 41.834 -46 66.501s-16.5 49.334 -16.5 74.001zM537.001 723c0 -66.667 5.66797 -127.003 17.001 -181.003s27 -100.167 47 -138.5s44 -67.666 72 -87.999s58.333 -30.5 91 -30.5
s61.667 10.167 87 30.5s47.166 49 65.499 86s32.333 81.333 42 133s14.5 109.834 14.5 174.501c0 62.667 -4.5 121 -13.5 175s-22.667 101 -41 141s-41.833 71.667 -70.5 95s-63 35 -103 35c-31.333 0 -59.5 -10.5 -84.5 -31.5s-46.833 -50.667 -65.5 -89
s-33 -84.166 -43 -137.499s-15 -111.333 -15 -174zM815.002 1731c0 23.333 4.83594 47.166 14.5029 71.499s23.667 46.833 42 67.5s41.5 37.334 69.5 50.001s59.667 19 95 19s67.166 -6.33301 95.499 -19s52 -29.334 71 -50.001s33.667 -43.334 44 -68.001
s15.5 -48.334 15.5 -71.001c0 -57.333 -19.167 -106.166 -57.5 -146.499s-94.5 -60.5 -168.5 -60.5c-32.667 0 -62.334 6.16699 -89.001 18.5s-49.834 28.333 -69.501 48s-35 41.834 -46 66.501s-16.5 49.334 -16.5 74.001z" />
    <glyph glyph-name="uni04E7" unicode="&#x4e7;" horiz-adv-x="1175" 
d="M23 516c0 86 16.001 162.165 48.001 228.498s74.167 122 126.5 167s112.333 79.167 180 102.5s136.5 35 206.5 35c80.667 0 155.667 -12.667 225 -38s129.666 -61.666 180.999 -108.999s91.333 -104.666 120 -171.999s43 -144 43 -230
c0 -84.667 -14.667 -159.5 -44 -224.5s-69.333 -120 -120 -165s-109.667 -79.167 -177 -102.5s-140 -35 -218 -35c-74 0 -145.5 11.333 -214.5 34s-130 56.5 -183 101.5s-95.167 101.667 -126.5 170s-47 147.5 -47 237.5zM84.001 1323
c0 23.333 4.83496 47.3301 14.502 71.9971s23.667 47.167 42 67.5s41.5 37 69.5 50s59.667 19.5 95 19.5s67 -6.5 95 -19.5s51.667 -29.667 71 -50s34 -42.833 44 -67.5s15 -48.667 15 -72c0 -57.333 -19 -106.166 -57 -146.499s-94 -60.5 -168 -60.5
c-32.667 0 -62.334 6.16699 -89.001 18.5s-49.834 28.333 -69.501 48s-35 41.834 -46 66.501s-16.5 49.334 -16.5 74.001zM442.003 513.995c0 -84.667 14.332 -152.167 42.999 -202.5s65 -75.5 109 -75.5c22 0 41.5 6.66699 58.5 20s31.667 32.333 44 57
s21.5 53.834 27.5 87.501s9 69.5 9 107.5s-3.33301 73.833 -10 107.5s-16.167 62.667 -28.5 87s-27.666 43.666 -45.999 57.999s-39.833 21.5 -64.5 21.5c-20.667 0 -39.5 -6.83301 -56.5 -20.5s-31.667 -32.667 -44 -57s-22.333 -53 -30 -86s-11.5 -67.833 -11.5 -104.5z
M647.002 1323c0 23.333 4.83594 47.3301 14.5029 71.9971s23.667 47.167 42 67.5s41.5 37 69.5 50s59.667 19.5 95 19.5s67.166 -6.5 95.499 -19.5s52 -29.667 71 -50s33.667 -42.833 44 -67.5s15.5 -48.667 15.5 -72c0 -57.333 -19.167 -106.166 -57.5 -146.499
s-94.5 -60.5 -168.5 -60.5c-32.667 0 -62.334 6.16699 -89.001 18.5s-49.834 28.333 -69.501 48s-35 41.834 -46 66.501s-16.5 49.334 -16.5 74.001z" />
    <glyph glyph-name="uni04E8" unicode="&#x4e8;" horiz-adv-x="1515" 
d="M31 723c0 110.667 17.332 211.667 51.999 303s83.834 170.166 147.501 236.499s139.5 117.5 227.5 153.5s185.333 54 292 54c125.333 0 234 -18 326 -54s168.5 -87.167 229.5 -153.5s106.167 -146.5 135.5 -240.5s44 -198.333 44 -313
c0 -116 -15.667 -220.167 -47 -312.5s-77.833 -170.5 -139.5 -234.5s-137.167 -113.167 -226.5 -147.5s-192 -51.5 -308 -51.5c-106.667 0 -205 15.667 -295 47s-167.5 78.5 -232.5 141.5s-115.5 141.833 -151.5 236.5s-54 206.334 -54 335.001zM538.999 807
l430 -0.000976562c-4 50.667 -11.5 97.167 -22.5 139.5s-25.833 78.833 -44.5 109.5s-41 54.834 -67 72.501s-56 26.5 -90 26.5c-56 0 -102 -32 -138 -96s-58.667 -148 -68 -252zM542.999 611.999c10.667 -102.667 35.833 -182.834 75.5 -240.501s88.167 -86.5 145.5 -86.5
c56 0 101.667 29.333 137 88s58 138.334 68 239.001h-426z" />
    <glyph glyph-name="uni04E9" unicode="&#x4e9;" horiz-adv-x="1175" 
d="M23 516c0 86 16.001 162.165 48.001 228.498s74.167 122 126.5 167s112.333 79.167 180 102.5s136.5 35 206.5 35c80.667 0 155.667 -12.667 225 -38s129.666 -61.666 180.999 -108.999s91.333 -104.666 120 -171.999s43 -144 43 -230
c0 -84.667 -14.667 -159.5 -44 -224.5s-69.333 -120 -120 -165s-109.667 -79.167 -177 -102.5s-140 -35 -218 -35c-74 0 -145.5 11.333 -214.5 34s-130 56.5 -183 101.5s-95.167 101.667 -126.5 170s-47 147.5 -47 237.5zM451.001 415.998
c10.667 -57.333 28.667 -101.666 54 -132.999s55 -47 89 -47c35.333 0 64.333 16.667 87 50s38 76.666 46 129.999h-276zM451.001 609.998h271.998c-9.33301 49.333 -25.666 90.333 -48.999 123s-53.333 49 -90 49c-31.333 0 -58.666 -16 -81.999 -48
s-40.333 -73.333 -51 -124z" />
    <glyph glyph-name="uni04EA" unicode="&#x4ea;" horiz-adv-x="1515" 
d="M31 723c0 110.667 17.332 211.667 51.999 303s83.834 170.166 147.501 236.499s139.5 117.5 227.5 153.5s185.333 54 292 54c125.333 0 234 -18 326 -54s168.5 -87.167 229.5 -153.5s106.167 -146.5 135.5 -240.5s44 -198.333 44 -313
c0 -116 -15.667 -220.167 -47 -312.5s-77.833 -170.5 -139.5 -234.5s-137.167 -113.167 -226.5 -147.5s-192 -51.5 -308 -51.5c-106.667 0 -205 15.667 -295 47s-167.5 78.5 -232.5 141.5s-115.5 141.833 -151.5 236.5s-54 206.334 -54 335.001zM251.999 1731
c0 23.333 4.83496 47.166 14.502 71.499s23.667 46.833 42 67.5s41.5 37.334 69.5 50.001s59.667 19 95 19s67 -6.33301 95 -19s51.667 -29.334 71 -50.001s34 -43.334 44 -68.001s15 -48.334 15 -71.001c0 -57.333 -19 -106.166 -57 -146.499s-94 -60.5 -168 -60.5
c-32.667 0 -62.334 6.16699 -89.001 18.5s-49.834 28.333 -69.501 48s-35 41.834 -46 66.501s-16.5 49.334 -16.5 74.001zM539.001 807l430 -0.000976562c-4 50.667 -11.5 97.167 -22.5 139.5s-25.833 78.833 -44.5 109.5s-41 54.834 -67 72.501s-56 26.5 -90 26.5
c-56 0 -102 -32 -138 -96s-58.667 -148 -68 -252zM543.001 611.999c10.667 -102.667 35.833 -182.834 75.5 -240.501s88.167 -86.5 145.5 -86.5c56 0 101.667 29.333 137 88s58 138.334 68 239.001h-426zM815 1731c0 23.333 4.83594 47.166 14.5029 71.499
s23.667 46.833 42 67.5s41.5 37.334 69.5 50.001s59.667 19 95 19s67.166 -6.33301 95.499 -19s52 -29.334 71 -50.001s33.667 -43.334 44 -68.001s15.5 -48.334 15.5 -71.001c0 -57.333 -19.167 -106.166 -57.5 -146.499s-94.5 -60.5 -168.5 -60.5
c-32.667 0 -62.334 6.16699 -89.001 18.5s-49.834 28.333 -69.501 48s-35 41.834 -46 66.501s-16.5 49.334 -16.5 74.001z" />
    <glyph glyph-name="uni04EB" unicode="&#x4eb;" horiz-adv-x="1175" 
d="M23 516c0 86 16.001 162.165 48.001 228.498s74.167 122 126.5 167s112.333 79.167 180 102.5s136.5 35 206.5 35c80.667 0 155.667 -12.667 225 -38s129.666 -61.666 180.999 -108.999s91.333 -104.666 120 -171.999s43 -144 43 -230
c0 -84.667 -14.667 -159.5 -44 -224.5s-69.333 -120 -120 -165s-109.667 -79.167 -177 -102.5s-140 -35 -218 -35c-74 0 -145.5 11.333 -214.5 34s-130 56.5 -183 101.5s-95.167 101.667 -126.5 170s-47 147.5 -47 237.5zM84.001 1323
c0 23.333 4.83496 47.3301 14.502 71.9971s23.667 47.167 42 67.5s41.5 37 69.5 50s59.667 19.5 95 19.5s67 -6.5 95 -19.5s51.667 -29.667 71 -50s34 -42.833 44 -67.5s15 -48.667 15 -72c0 -57.333 -19 -106.166 -57 -146.499s-94 -60.5 -168 -60.5
c-32.667 0 -62.334 6.16699 -89.001 18.5s-49.834 28.333 -69.501 48s-35 41.834 -46 66.501s-16.5 49.334 -16.5 74.001zM451.003 415.995c10.667 -57.333 28.667 -101.666 54 -132.999s55 -47 89 -47c35.333 0 64.333 16.667 87 50s38 76.666 46 129.999h-276z
M451.003 609.995h271.998c-9.33301 49.333 -25.666 90.333 -48.999 123s-53.333 49 -90 49c-31.333 0 -58.666 -16 -81.999 -48s-40.333 -73.333 -51 -124zM647.001 1323c0 23.333 4.83594 47.3301 14.5029 71.9971s23.667 47.167 42 67.5s41.5 37 69.5 50
s59.667 19.5 95 19.5s67.166 -6.5 95.499 -19.5s52 -29.667 71 -50s33.667 -42.833 44 -67.5s15.5 -48.667 15.5 -72c0 -57.333 -19.167 -106.166 -57.5 -146.499s-94.5 -60.5 -168.5 -60.5c-32.667 0 -62.334 6.16699 -89.001 18.5s-49.834 28.333 -69.501 48
s-35 41.834 -46 66.501s-16.5 49.334 -16.5 74.001z" />
    <glyph glyph-name="uni04EC" unicode="&#x4ec;" horiz-adv-x="1404" 
d="M31 256l238.999 261.998c4 -5.33301 15.333 -18.666 34 -39.999s42.334 -43.833 71.001 -67.5s61.667 -45.167 99 -64.5s78 -29 122 -29c38 0 73.167 6.83301 105.5 20.5s60.333 32.834 84 57.501s43.667 53.334 60 86.001s28.833 68.334 37.5 107.001
c-34 -22 -78.333 -33 -133 -33c-26 0 -48 3.33301 -66 10s-34.833 14.5 -50.5 23.5s-32 17 -49 24s-37.833 10.5 -62.5 10.5c-45.333 0 -85 -18.667 -119 -56l-73 183c27.333 35.333 56.333 62.166 87 80.499s67.667 27.5 111 27.5c26 0 48.333 -3.33301 67 -10
s35.834 -13.834 51.501 -21.501s32 -14.834 49 -21.501s37.833 -10 62.5 -10s48.667 5 72 15s40.333 22.667 51 38c-16.667 76.667 -44.834 139.167 -84.501 187.5s-88.167 72.5 -145.5 72.5s-104 -8.16699 -140 -24.5s-61.667 -43.833 -77 -82.5h-366v431h321l47 -115
c4 5.33301 13.167 15.833 27.5 31.5s34.5 31.334 60.5 47.001s57.5 29.667 94.5 42s81.5 18.5 133.5 18.5c66.667 0 136.5 -17 209.5 -51s140.167 -83.5 201.5 -148.5s111.833 -144.167 151.5 -237.5s59.5 -199 59.5 -317c0 -114.667 -17.333 -217.334 -52 -308.001
s-83.5 -167.667 -146.5 -231s-139.167 -111.833 -228.5 -145.5s-188 -50.5 -296 -50.5c-66.667 0 -130 7.83301 -190 23.5s-116 36.834 -168 63.501s-100.167 57.5 -144.5 92.5s-83.5 71.5 -117.5 109.5zM175.999 1731c0 23.333 4.83594 47.166 14.5029 71.499
s23.667 46.833 42 67.5s41.5 37.334 69.5 50.001s59.667 19 95 19s67.166 -6.33301 95.499 -19s52 -29.334 71 -50.001s33.667 -43.334 44 -68.001s15.5 -48.334 15.5 -71.001c0 -57.333 -19.167 -106.166 -57.5 -146.499s-94.5 -60.5 -168.5 -60.5
c-32.667 0 -62.334 6.16699 -89.001 18.5s-49.834 28.333 -69.501 48s-35 41.834 -46 66.501s-16.5 49.334 -16.5 74.001zM739.002 1731c0 23.333 4.83203 47.166 14.499 71.499s23.667 46.833 42 67.5s41.5 37.334 69.5 50.001s60 19 96 19c35.333 0 67 -6.33301 95 -19
s51.5 -29.334 70.5 -50.001s33.667 -43.334 44 -68.001s15.5 -48.334 15.5 -71.001c0 -57.333 -19.167 -106.166 -57.5 -146.499s-94.166 -60.5 -167.499 -60.5c-32.667 0 -62.5 6.16699 -89.5 18.5s-50.333 28.333 -70 48s-35 41.834 -46 66.501s-16.5 49.334 -16.5 74.001
z" />
    <glyph glyph-name="uni04ED" unicode="&#x4ed;" horiz-adv-x="1187" 
d="M16 207l232 199.002l8 -9v2c6.66699 -6.66699 17.5 -16.167 32.5 -28.5s33.833 -25 56.5 -38s49 -24.167 79 -33.5s63.333 -14 100 -14c50.667 0 94.167 8.83301 130.5 26.5s63.833 40.834 82.5 69.501c-28.667 -10.667 -57.334 -16 -86.001 -16
c-18 0 -32.667 2.33301 -44 7l-35.5 14c-12.333 4.66699 -26.666 9.5 -42.999 14.5s-38.833 7.5 -67.5 7.5c-44 0 -76 -8.33301 -96 -25l-78 158c31.333 31.333 60.666 55.166 87.999 71.499s58 24.5 92 24.5c18 0 33.333 -2 46 -6s25.5 -8.5 38.5 -13.5
s28.167 -9.5 45.5 -13.5s38 -6 62 -6c19.333 0 37.166 1 53.499 3s28.833 5 37.5 9c-15.333 35.333 -38.333 63.666 -69 84.999s-68 32 -112 32c-50.667 0 -92.334 -5.83301 -125.001 -17.5s-54.334 -30.5 -65.001 -56.5h-297v359h258l49 -99v9
c4 5.33301 12.5 14.166 25.5 26.499s30.833 24.666 53.5 36.999s49.334 22.833 80.001 31.5s66.334 13 107.001 13c57.333 0 116.5 -12.333 177.5 -37s117 -59.834 168 -105.501s93 -101.167 126 -166.5s49.5 -139.666 49.5 -222.999c0 -80.667 -14.333 -153.167 -43 -217.5
s-69.667 -118.666 -123 -162.999s-117.166 -78.333 -191.499 -102s-157.5 -35.5 -249.5 -35.5c-110.667 0 -212.667 22.5 -306 67.5s-175.666 98.167 -246.999 159.5zM82 1331c0 23.333 4.83496 47.332 14.502 71.999s23.667 47.167 42 67.5s41.5 37 69.5 50
s59.667 19.5 95 19.5s67 -6.5 95 -19.5s51.667 -29.667 71 -50s34 -42.833 44 -67.5s15 -48.667 15 -72c0 -57.333 -19 -106.166 -57 -146.499s-94 -60.5 -168 -60.5c-32.667 0 -62.334 6.16699 -89.001 18.5s-49.834 28.5 -69.501 48.5s-35 42.167 -46 66.5
s-16.5 48.833 -16.5 73.5zM645.002 1331c0 23.333 4.83594 47.332 14.5029 71.999s23.667 47.167 42 67.5s41.5 37 69.5 50s59.667 19.5 95 19.5s67.166 -6.5 95.499 -19.5s52 -29.667 71 -50s33.667 -42.833 44 -67.5s15.5 -48.667 15.5 -72
c0 -57.333 -19.167 -106.166 -57.5 -146.499s-94.5 -60.5 -168.5 -60.5c-32.667 0 -62.334 6.16699 -89.001 18.5s-49.834 28.5 -69.501 48.5s-35 42.167 -46 66.5s-16.5 48.833 -16.5 73.5z" />
    <glyph glyph-name="uni04EE" unicode="&#x4ee;" horiz-adv-x="1374" 
d="M-12 1169v263.001h694v-261h-80l152 -319l153 319h-82v261h572v-254h-113l-442 -928c-18 -32.667 -38.167 -66.167 -60.5 -100.5s-52.666 -65.5 -90.999 -93.5s-85.833 -50.833 -142.5 -68.5s-127.334 -26.5 -212.001 -26.5c-61.333 2.66699 -115.333 13.667 -162 33
s-87.667 42.333 -123 69l176 242c22 -18 46.333 -34.5 73 -49.5s53.667 -22.5 81 -22.5c32.667 0 60 11.667 82 35s39 48.666 51 75.999l29 68l-459 757h-96zM145 1565v272h1143v-272h-1143z" />
    <glyph glyph-name="uni04EF" unicode="&#x4ef;" horiz-adv-x="1187" 
d="M-18 762l-0.000976562 262.002h630v-260h-96l133 -320l133 320h-94v260h520v-254h-98l-389 -946c-15.333 -32.667 -32.833 -66.167 -52.5 -100.5s-45.834 -65.5 -78.501 -93.5s-74 -50.833 -124 -68.5s-111.667 -26.5 -185 -26.5
c-53.333 2.66699 -100.166 13.667 -140.499 33s-76.166 42.666 -107.499 69.999l153 241c19.333 -18 41 -34.5 65 -49.5s47.667 -22.5 71 -22.5c27.333 0 50.833 11.667 70.5 35s34.167 48.666 43.5 75.999l29 86l-399 758h-84zM26.999 1161v273h1142v-273h-1142z" />
    <glyph glyph-name="uni04F0" unicode="&#x4f0;" horiz-adv-x="1376" 
d="M-12 1169v263.001h694v-261h-80l152 -319l153 319h-82v261h572v-254h-113l-442 -928c-18 -32.667 -38.167 -66.167 -60.5 -100.5s-52.666 -65.5 -90.999 -93.5s-85.833 -50.833 -142.5 -68.5s-127.334 -26.5 -212.001 -26.5c-61.333 2.66699 -115.333 13.667 -162 33
s-87.667 42.333 -123 69l176 242c22 -18 46.333 -34.5 73 -49.5s53.667 -22.5 81 -22.5c32.667 0 60 11.667 82 35s39 48.666 51 75.999l29 68l-459 757h-96zM252 1731c0 23.333 4.83496 47.166 14.502 71.499s23.667 46.833 42 67.5s41.5 37.334 69.5 50.001
s59.667 19 95 19s67 -6.33301 95 -19s51.667 -29.334 71 -50.001s34 -43.334 44 -68.001s15 -48.334 15 -71.001c0 -57.333 -19 -106.166 -57 -146.499s-94 -60.5 -168 -60.5c-32.667 0 -62.334 6.16699 -89.001 18.5s-49.834 28.333 -69.501 48s-35 41.834 -46 66.501
s-16.5 49.334 -16.5 74.001zM815.002 1731c0 23.333 4.83594 47.166 14.5029 71.499s23.667 46.833 42 67.5s41.5 37.334 69.5 50.001s59.667 19 95 19s67.166 -6.33301 95.499 -19s52 -29.334 71 -50.001s33.667 -43.334 44 -68.001s15.5 -48.334 15.5 -71.001
c0 -57.333 -19.167 -106.166 -57.5 -146.499s-94.5 -60.5 -168.5 -60.5c-32.667 0 -62.334 6.16699 -89.001 18.5s-49.834 28.333 -69.501 48s-35 41.834 -46 66.501s-16.5 49.334 -16.5 74.001z" />
    </font>
</defs>
</svg>
